<?xml version="1.0" standalone="no"?>
<!DOCTYPE svg PUBLIC "-//W3C//DTD SVG 1.1//EN" "http://www.w3.org/Graphics/SVG/1.1/DTD/svg11.dtd" >
<svg xmlns="http://www.w3.org/2000/svg" xmlns:xlink="http://www.w3.org/1999/xlink" version="1.1">
<metadata>
Created by FontForge 20201107 at Mon May 20 03:00:00 2019
 By 
Copyright (c) 2019 by Adam Ladd. All rights reserved.
</metadata>
<defs>
<font id="FractulAlt-Bold" horiz-adv-x="634" >
  <font-face 
    font-family="Fractul Alt"
    font-weight="700"
    font-stretch="normal"
    units-per-em="1000"
    panose-1="2 0 8 0 0 0 0 0 0 0"
    ascent="789"
    descent="-211"
    x-height="510"
    cap-height="690"
    bbox="-718 -251 1270 941"
    underline-thickness="82"
    underline-position="-264"
    unicode-range="U+0020-FB02"
  />
<missing-glyph horiz-adv-x="500" 
d="M93 780h317v-1000h-317v1000zM333 680v33h-165v-33h65v-37h-66v-33h166v33h-66v37h66zM267 514v70h-100v-104h166v34h-66zM200 550h33v-36h-33v36zM333 420v33h-166v-33h66v-37h-66v-33h100v70h66zM333 293v100h-33v-66h-133v-34h166zM333 158v113h-100v-56h34v23h33v-47
h-100v80h-33v-113h166zM333 -15v113h-166v-113h166zM200 65h100v-47h-100v47zM333 -71v33h-166v-33h70l-70 -47v-33h166v33h-102l70 47h32z" />
    <glyph glyph-name="fi" unicode="fi" 
d="M413 665q0 38 26 63.5t64 25.5t64 -25.5t26 -63.5q0 -39 -26 -64.5t-64 -25.5t-64 25.5t-26 64.5zM248 510h328v-510h-146v377h-182v-377h-146v377h-77v133h77v210h247v-133h-101v-77z" />
    <glyph glyph-name="fl" unicode="fl" horiz-adv-x="694" 
d="M25 510h77v210h267v-133h-121v-77h121v-133h-121v-377h-146v377h-77v133zM600 720v-587h82v-133h-228v720h146z" />
    <glyph glyph-name="f_f.liga" unicode="ff" horiz-adv-x="741" 
d="M728 720v-133h-121v-77h121v-133h-121v-377h-146v377h-213v-377h-146v377h-77v133h77v210h267v-133h-121v-77h213v210h267z" />
    <glyph glyph-name="f_f_i.liga" unicode="ffi" horiz-adv-x="993" 
d="M772 665q0 38 26 63.5t64 25.5t64 -25.5t26 -63.5q0 -39 -26 -64.5t-64 -25.5t-64 25.5t-26 64.5zM607 510h328v-510h-146v377h-182v-377h-146v377h-213v-377h-146v377h-77v133h77v210h267v-133h-121v-77h213v210h247v-133h-101v-77z" />
    <glyph glyph-name=".notdef" horiz-adv-x="500" 
d="M93 780h317v-1000h-317v1000zM333 680v33h-165v-33h65v-37h-66v-33h166v33h-66v37h66zM267 514v70h-100v-104h166v34h-66zM200 550h33v-36h-33v36zM333 420v33h-166v-33h66v-37h-66v-33h100v70h66zM333 293v100h-33v-66h-133v-34h166zM333 158v113h-100v-56h34v23h33v-47
h-100v80h-33v-113h166zM333 -15v113h-166v-113h166zM200 65h100v-47h-100v47zM333 -71v33h-166v-33h70l-70 -47v-33h166v33h-102l70 47h32z" />
    <glyph glyph-name=".null" horiz-adv-x="0" 
 />
    <glyph glyph-name="nonmarkingreturn" horiz-adv-x="333" 
 />
    <glyph glyph-name="space" unicode=" " horiz-adv-x="220" 
 />
    <glyph glyph-name="exclam" unicode="!" horiz-adv-x="279" 
d="M208 230h-136l-9 290v170h154v-170zM140 -10q-42 0 -70 27.5t-28 68.5t28 69t70 28q41 0 69 -28t28 -69t-28 -68.5t-69 -27.5z" />
    <glyph glyph-name="quotedbl" unicode="&#x22;" horiz-adv-x="449" 
d="M178 412h-126l-9 278h144zM397 412h-125l-10 278h145z" />
    <glyph glyph-name="numbersign" unicode="#" horiz-adv-x="769" 
d="M737 528v-126h-140l-34 -114h120v-126h-158l-48 -162h-134l48 162h-130l-48 -162h-136l48 162h-102v126h140l33 114h-119v126h157l48 162h135l-48 -162h131l48 162h135l-48 -162h102zM298 288h131l33 114h-130z" />
    <glyph glyph-name="dollar" unicode="$" horiz-adv-x="558" 
d="M522 203q0 -84 -62 -143q-62 -58 -156 -66v-63h-50v63q-94 7 -156 68q-62 62 -62 147h159q0 -26 16 -46t43 -28v142l-12 3q-196 51 -196 214q0 81 59 137q59 58 149 65v64h50v-64q91 -8 149 -66q59 -59 59 -140h-159q0 46 -49 65v-134l14 -4q94 -26 148 -74
q56 -48 56 -140zM205 501q0 -37 49 -62v117q-22 -5 -35.5 -20.5t-13.5 -34.5zM304 260v-127q26 6 42.5 23t16.5 38q0 40 -59 66z" />
    <glyph glyph-name="percent" unicode="%" horiz-adv-x="870" 
d="M336 409q-49 -49 -124 -49t-124 49q-50 50 -50 123t50 121q49 49 124 49t124 -49q50 -48 50 -121t-50 -123zM263 0h-155l500 690h155zM265 532q0 22 -15.5 37.5t-37.5 15.5q-36 3 -50 -32.5t11 -59.5q24 -25 59.5 -11t32.5 50zM659 -12q-76 0 -125 49t-49 123
q0 72 49 121t125 49q75 0 124 -49q50 -50 50 -121q0 -73 -50 -123q-49 -49 -124 -49zM659 105q22 0 37.5 16t15.5 39q0 22 -15 37t-38 15t-38.5 -15t-15.5 -37q0 -23 15.5 -39t38.5 -16z" />
    <glyph glyph-name="ampersand" unicode="&#x26;" horiz-adv-x="629" 
d="M542 142l99 -142h-173l-34 49q-57 -61 -157 -61q-112 0 -182 62q-69 63 -69 165q0 148 148 214l-95 139v122h408v-132h-232l185 -267v152h135v-170q0 -73 -33 -131zM284 120q48 0 85 24l-124 182q-77 -41 -77 -108q0 -43 32.5 -70.5t83.5 -27.5z" />
    <glyph glyph-name="quotesingle" unicode="'" horiz-adv-x="230" 
d="M178 412h-126l-9 278h144z" />
    <glyph glyph-name="parenleft" unicode="(" horiz-adv-x="349" 
d="M355 -190h-147q-65 87 -104 213q-39 129 -39 257t39 256q38 127 104 214h147q-63 -88 -100 -214t-37 -256t37 -257q37 -125 100 -213z" />
    <glyph glyph-name="parenright" unicode=")" horiz-adv-x="349" 
d="M141 -190h-147q62 86 99 213q38 131 38 257q0 127 -38 256q-37 128 -99 214h147q64 -85 103 -214q40 -127 40 -256t-40 -256q-39 -129 -103 -214z" />
    <glyph glyph-name="asterisk" unicode="*" horiz-adv-x="374" 
d="M297 572l-31 -11l31 -12l55 -29l-46 -77l-55 29l-24 20l5 -31v-59h-90v59l6 31l-25 -20l-55 -29l-45 77l55 31l29 10l-29 12l-55 29l45 77l56 -29l24 -20l-6 31v59h90v-59l-5 -31l25 20l54 29l46 -77z" />
    <glyph glyph-name="plus" unicode="+" horiz-adv-x="534" 
d="M334 361h144v-132h-144v-145h-134v145h-144v132h144v145h134v-145z" />
    <glyph glyph-name="comma" unicode="," horiz-adv-x="266" 
d="M125 -145h-125l70 294h170z" />
    <glyph glyph-name="hyphen" unicode="-" horiz-adv-x="408" 
d="M352 203h-296v141h296v-141z" />
    <glyph glyph-name="period" unicode="." horiz-adv-x="262" 
d="M31 90q0 42 28.5 70.5t71.5 28.5t72 -28.5t29 -70.5q0 -43 -29 -71.5t-72 -28.5t-71.5 28.5t-28.5 71.5z" />
    <glyph glyph-name="slash" unicode="/" horiz-adv-x="539" 
d="M143 -150h-147l400 900h147z" />
    <glyph glyph-name="zero" unicode="0" horiz-adv-x="631" 
d="M315 -12q-119 0 -196 99q-76 100 -76 258q0 159 76 257q76 100 196 100q121 0 197 -100q76 -98 76 -257q0 -158 -76 -258q-76 -99 -197 -99zM315 137q51 0 82 58q32 59 32 150t-32 150q-31 58 -82 58q-50 0 -82 -59q-31 -58 -31 -149q0 -92 31 -150t82 -58z" />
    <glyph glyph-name="one" unicode="1" horiz-adv-x="459" 
d="M330 690v-544h118v-146h-405v146h132v359l-132 -56v164l177 77h110z" />
    <glyph glyph-name="two" unicode="2" horiz-adv-x="529" 
d="M391 294l-134 -148h225v-146h-441v126l214 239q65 76 65 123q0 25 -16.5 42t-41.5 17q-26 0 -42.5 -16.5t-16.5 -42.5h-159q0 90 62 152q64 62 156 62q94 0 155 -61q62 -62 62 -153q0 -100 -88 -194z" />
    <glyph glyph-name="three" unicode="3" horiz-adv-x="515" 
d="M388 358q41 -26 65 -68t24 -90q0 -91 -64 -152q-63 -60 -158 -60t-159 60q-63 62 -63 152h159q0 -27 18 -45t45 -18t45 18t18 45q0 38 -23.5 61t-61.5 23h-77v145h77q33 0 53.5 20t20.5 52q3 32 -24.5 45.5t-55 0t-24.5 -45.5h-159q0 86 60 143q59 58 151 58t151 -58
q60 -57 60 -143q0 -43 -21 -81t-57 -62z" />
    <glyph glyph-name="four" unicode="4" horiz-adv-x="570" 
d="M478 272h68v-146h-68v-126h-155v126h-297v115l281 449h171v-418zM323 483l-126 -211h126v211z" />
    <glyph glyph-name="five" unicode="5" horiz-adv-x="553" 
d="M304 451q96 0 160 -66q64 -65 64 -166q0 -99 -69 -165q-67 -66 -171 -66q-102 0 -171 66q-68 66 -68 165h159q0 -35 23 -58.5t57 -23.5q35 0 58 23.5t23 58.5q0 36 -23 59.5t-58 23.5q-45 0 -67 -32h-163l35 420h391v-146h-250l-9 -111q36 18 79 18z" />
    <glyph glyph-name="six" unicode="6" horiz-adv-x="531" 
d="M457 690l-149 -239q86 -7 146 -73q58 -64 58 -158q0 -98 -69 -166q-69 -66 -172 -66t-173 66q-69 68 -69 166q0 76 45 153l194 317h189zM271 137q35 0 58.5 24t23.5 59q0 36 -23.5 59.5t-58.5 23.5q-36 0 -59.5 -23.5t-23.5 -59.5q0 -35 23.5 -59t59.5 -24z" />
    <glyph glyph-name="seven" unicode="7" horiz-adv-x="523" 
d="M36 544v146h463v-122l-253 -568h-174l244 544h-280z" />
    <glyph glyph-name="eight" unicode="8" horiz-adv-x="543" 
d="M415 358q90 -58 90 -162q0 -88 -67 -148q-68 -60 -167 -60t-167 59q-66 60 -66 149q0 103 89 162q-76 57 -76 149q0 82 62 138q63 57 158 57t158 -57q63 -55 63 -138q0 -92 -77 -149zM315 535q-18 18 -44 18t-43 -18q-17 -17 -17 -44t17 -45t43 -18t44 18t18 45t-18 44z
M271 137q32 0 53.5 21t21.5 53t-21.5 53t-53.5 21q-31 0 -52.5 -21.5t-21.5 -52.5t21.5 -52.5t52.5 -21.5z" />
    <glyph glyph-name="nine" unicode="9" horiz-adv-x="541" 
d="M512 470q0 -74 -45 -153l-185 -317h-183l141 238q-90 6 -151 71q-60 66 -60 161q0 99 69 165q68 67 172 67t172 -67q70 -66 70 -165zM188 470q0 -36 23.5 -59.5t58.5 -23.5t59 23.5t24 59.5q0 35 -24 59t-59 24t-58.5 -24t-23.5 -59z" />
    <glyph glyph-name="colon" unicode=":" horiz-adv-x="272" 
d="M36 405q0 43 28.5 71.5t71.5 28.5t72 -28.5t29 -71.5q0 -42 -29 -70.5t-72 -28.5t-71.5 28.5t-28.5 70.5zM36 90q0 42 28.5 70.5t71.5 28.5t72 -28.5t29 -70.5q0 -43 -29 -71.5t-72 -28.5t-71.5 28.5t-28.5 71.5z" />
    <glyph glyph-name="semicolon" unicode=";" horiz-adv-x="287" 
d="M51 405q0 43 29 71.5t72 28.5t71.5 -28.5t28.5 -71.5q0 -42 -28.5 -70.5t-71.5 -28.5t-72 28.5t-29 70.5zM125 -145h-126l71 294h170z" />
    <glyph glyph-name="less" unicode="&#x3c;" horiz-adv-x="464" 
d="M56 362l352 170v-146l-204 -90l204 -90v-146l-352 170v132z" />
    <glyph glyph-name="equal" unicode="=" horiz-adv-x="534" 
d="M478 332h-422v131h422v-131zM478 128h-422v132h422v-132z" />
    <glyph glyph-name="greater" unicode="&#x3e;" horiz-adv-x="464" 
d="M56 386v146l352 -170v-132l-352 -170v146l204 90z" />
    <glyph glyph-name="question" unicode="?" horiz-adv-x="474" 
d="M308 231h-154v21q0 36 13.5 70t28.5 52q12 13 40 38t40 42.5t12 40.5q0 25 -16.5 41.5t-40.5 16.5q-25 0 -41.5 -16.5t-16.5 -41.5h-159q0 89 62 148t155 59t154 -60q62 -59 62 -147q0 -61 -29 -100q-15 -21 -55 -58q-30 -26 -42.5 -44t-12.5 -41v-21zM231 -10
q-42 0 -70 27.5t-28 68.5t28 69t70 28q41 0 69 -28t28 -69t-28 -68.5t-69 -27.5z" />
    <glyph glyph-name="at" unicode="@" horiz-adv-x="831" 
d="M420 -5q103 0 167 49h157q-60 -69 -145 -108t-181 -39q-163 0 -270 106q-108 107 -108 266t108 266q109 107 271 107q159 0 265 -99q108 -99 108 -248q0 -94 -45 -149.5t-123 -55.5q-90 0 -130 57q-36 -58 -112 -58q-73 0 -121 51q-47 53 -47 128q0 77 47 130
q46 52 114 52q57 0 96 -42v30h122v-215q0 -16 10.5 -26.5t26.5 -10.5q27 0 43 31t16 80q0 107 -78 177q-79 71 -192 71q-120 0 -199 -79q-78 -78 -78 -197q0 -117 79 -196q79 -78 199 -78zM471 269q0 28 -19 46t-47 18t-47.5 -18.5t-19.5 -45.5t19.5 -45.5t47.5 -18.5
t47 18.5t19 45.5z" />
    <glyph glyph-name="A" unicode="A" horiz-adv-x="718" 
d="M710 0h-170l-43 121h-280l-43 -121h-166l259 690h183zM357 519l-90 -255h180z" />
    <glyph glyph-name="B" unicode="B" horiz-adv-x="575" 
d="M447 367q48 -19 79 -69t31 -111q0 -81 -56 -134t-139 -53h-296v690h271q79 0 132 -50t53 -127q0 -45 -21 -85t-54 -61zM299 550h-83v-130h83q27 0 45.5 19t18.5 46q0 28 -18.5 46.5t-45.5 18.5zM216 140h108q32 0 53 21t21 53t-21.5 53.5t-52.5 21.5h-108v-149z" />
    <glyph glyph-name="C" unicode="C" horiz-adv-x="783" 
d="M397 -12q-156 0 -261 102q-104 104 -104 255q0 152 104 254q104 103 261 103q135 0 232 -79q100 -78 125 -201h-164q-23 60 -75 95.5t-118 35.5q-89 0 -147 -60q-59 -59 -59 -148q0 -88 59 -149q59 -59 147 -59q66 0 118 35.5t75 95.5h164q-25 -122 -125 -202
q-97 -78 -232 -78z" />
    <glyph glyph-name="D" unicode="D" horiz-adv-x="723" 
d="M66 690h272q150 0 251 -99q101 -98 101 -246t-101 -247q-101 -98 -251 -98h-272v690zM221 146h113q86 0 141 57q56 58 56 142t-56 142q-55 57 -141 57h-113v-398z" />
    <glyph glyph-name="E" unicode="E" horiz-adv-x="503" 
d="M221 274v-128h248v-146h-403v690h398v-146h-243v-124h210v-146h-210z" />
    <glyph glyph-name="F" unicode="F" horiz-adv-x="476" 
d="M449 690v-146h-228v-131h189v-146h-189v-267h-155v690h383z" />
    <glyph glyph-name="G" unicode="G" horiz-adv-x="805" 
d="M404 255v140h350v-395h-135v72q-75 -84 -222 -84q-156 0 -261 102q-104 104 -104 255q0 152 104 254q104 103 261 103q125 0 220 -68q97 -68 122 -172h-173q-24 42 -69 66.5t-100 24.5q-89 0 -147 -60q-59 -59 -59 -148q0 -88 59 -149q59 -59 147 -59q65 0 115.5 32
t71.5 86h-180z" />
    <glyph glyph-name="H" unicode="H" horiz-adv-x="719" 
d="M498 420v270h155v-690h-155v274h-277v-274h-155v690h155v-270h277z" />
    <glyph glyph-name="I" unicode="I" horiz-adv-x="391" 
d="M358 690v-146h-85v-398h85v-146h-325v146h85v398h-85v146h325z" />
    <glyph glyph-name="J" unicode="J" horiz-adv-x="461" 
d="M240 146v544h155v-690h-373v146h218z" />
    <glyph glyph-name="K" unicode="K" horiz-adv-x="650" 
d="M655 0h-193l-189 274h-52v-274h-155v690h155v-270h53l186 270h189l-244 -341z" />
    <glyph glyph-name="L" unicode="L" horiz-adv-x="461" 
d="M221 690v-544h218v-146h-373v690h155z" />
    <glyph glyph-name="M" unicode="M" horiz-adv-x="942" 
d="M66 690h811v-690h-155v544h-173v-544h-155v544h-173v-544h-155v690z" />
    <glyph glyph-name="N" unicode="N" horiz-adv-x="729" 
d="M509 268v422h155v-690h-157l-286 422v-422h-155v690h156z" />
    <glyph glyph-name="O" unicode="O" horiz-adv-x="794" 
d="M657 90q-103 -102 -260 -102q-156 0 -261 102q-104 104 -104 255q0 152 104 254q104 103 261 103t260 -103q105 -102 105 -254q0 -151 -105 -255zM250 196q59 -59 147 -59t147 59q59 61 59 149q0 89 -59 148q-58 60 -147 60t-147 -60q-59 -59 -59 -148q0 -88 59 -149z
" />
    <glyph glyph-name="P" unicode="P" horiz-adv-x="581" 
d="M66 690h255q104 0 172 -67q70 -67 70 -168t-70 -168q-68 -67 -172 -67h-100v-220h-155v690zM221 366h96q37 0 62 25.5t25 63.5t-25 63.5t-62 25.5h-96v-178z" />
    <glyph glyph-name="Q" unicode="Q" horiz-adv-x="794" 
d="M474 -5v-47h200v-138h-355v186q-128 26 -207 121q-80 97 -80 228q0 152 104 254q104 103 261 103t260 -103q105 -102 105 -254q0 -131 -80 -229q-79 -95 -208 -121zM250 493q-59 -59 -59 -148q0 -88 59 -149q59 -59 147 -59t147 59q59 61 59 149q0 89 -59 148
q-58 60 -147 60t-147 -60z" />
    <glyph glyph-name="R" unicode="R" horiz-adv-x="585" 
d="M572 0h-186l-118 236h-47v-236h-155v690h247q103 0 171 -66q69 -66 69 -165q0 -66 -33.5 -118.5t-90.5 -79.5zM310 544h-89v-173h89q36 0 60 24.5t24 61.5t-24 62t-60 25z" />
    <glyph glyph-name="S" unicode="S" horiz-adv-x="549" 
d="M31 207h159q0 -34 25 -57.5t62 -23.5q35 0 58.5 19t23.5 47q0 57 -122 89q-86 23 -141 73q-55 52 -55 143q0 87 66 146q68 59 166 59q101 0 168 -60t67 -150h-159q0 31 -21.5 51.5t-54.5 20.5q-31 0 -52 -17.5t-21 -43.5q0 -56 113 -86q87 -24 141 -67q64 -50 64 -148
q0 -92 -70 -153q-68 -61 -173 -61q-103 0 -174 62q-70 63 -70 157z" />
    <glyph glyph-name="T" unicode="T" horiz-adv-x="547" 
d="M25 690h497v-146h-171v-544h-155v544h-171v146z" />
    <glyph glyph-name="U" unicode="U" horiz-adv-x="707" 
d="M487 146v544h155v-690h-576v690h155v-544h266z" />
    <glyph glyph-name="V" unicode="V" horiz-adv-x="712" 
d="M358 207l178 483h170l-270 -690h-160l-270 690h173z" />
    <glyph glyph-name="W" unicode="W" horiz-adv-x="1112" 
d="M783 211l152 479h168l-245 -690h-155l-146 454l-147 -454h-156l-244 690h171l153 -479l154 479h140z" />
    <glyph glyph-name="X" unicode="X" horiz-adv-x="721" 
d="M468 347l244 -347h-190l-162 239l-162 -239h-190l245 347l-241 343h191l159 -234l157 234h189z" />
    <glyph glyph-name="Y" unicode="Y" horiz-adv-x="677" 
d="M340 396l167 294h173l-264 -453v-237h-155v237l-264 453h176z" />
    <glyph glyph-name="Z" unicode="Z" horiz-adv-x="614" 
d="M573 579l-326 -433h333v-146h-546v111l326 433h-322v146h535v-111z" />
    <glyph glyph-name="bracketleft" unicode="[" horiz-adv-x="356" 
d="M335 750v-138h-110v-664h110v-138h-260v940h260z" />
    <glyph glyph-name="backslash" unicode="\" horiz-adv-x="539" 
d="M543 -150h-147l-400 900h147z" />
    <glyph glyph-name="bracketright" unicode="]" horiz-adv-x="356" 
d="M22 612v138h260v-940h-260v138h109v664h-109z" />
    <glyph glyph-name="asciicircum" unicode="^" horiz-adv-x="435" 
d="M284 690l128 -256h-131l-63 135l-64 -135h-131l128 256h133z" />
    <glyph glyph-name="underscore" unicode="_" horiz-adv-x="487" 
d="M472 -179h-456v124h456v-124z" />
    <glyph glyph-name="grave" unicode="`" horiz-adv-x="283" 
d="M283 562h-153l-130 148h183z" />
    <glyph glyph-name="a" unicode="a" horiz-adv-x="537" 
d="M471 510v-377h57v-133h-185v48q-53 -60 -142 -60q-75 0 -128 47q-51 48 -51 119q0 72 51 118q51 48 128 48h124v56h-266v134h412zM240 100q38 0 61.5 17t23.5 44v53h-85q-29 0 -48.5 -16t-19.5 -41q0 -24 19.5 -40.5t48.5 -16.5z" />
    <glyph glyph-name="b" unicode="b" 
d="M358 522q105 0 176 -77q70 -76 70 -190q0 -115 -70 -191t-176 -76q-92 0 -154 69v-57h-146v720h146v-267q62 69 154 69zM239 165q36 -36 90 -36q55 0 89 36q36 36 36 90t-36 90q-34 36 -89 36q-54 0 -90 -36q-35 -37 -35 -90t35 -90z" />
    <glyph glyph-name="c" unicode="c" horiz-adv-x="597" 
d="M303 -12q-118 0 -197 76q-78 76 -78 191q0 113 78 190q80 77 197 77q104 0 177 -61q76 -61 92 -154h-155q-14 34 -45 54t-69 20q-54 0 -89.5 -36t-35.5 -90t35.5 -90t89.5 -36q38 0 69 20t45 54h155q-16 -93 -92 -155q-74 -60 -177 -60z" />
    <glyph glyph-name="d" unicode="d" 
d="M430 454v266h146v-720h-146v56q-62 -68 -154 -68q-106 0 -176 76t-70 191q0 114 70 190q71 77 176 77q92 0 154 -68zM305 129q54 0 89.5 36t35.5 90t-35.5 90t-89.5 36q-53 0 -88.5 -36t-35.5 -90t35.5 -90t88.5 -36z" />
    <glyph glyph-name="e" unicode="e" horiz-adv-x="604" 
d="M578 253q0 -30 -4 -45h-390q12 -43 44.5 -68t77.5 -25q35 0 64.5 14.5t42.5 36.5h155q-29 -80 -100 -129q-70 -49 -165 -49q-118 0 -197 76q-78 76 -78 191q0 113 78 190q80 77 197 77q116 0 196 -77q79 -76 79 -192zM303 396q-43 0 -74 -24.5t-44 -66.5h236
q-11 42 -43.5 66.5t-74.5 24.5z" />
    <glyph glyph-name="f" unicode="f" horiz-adv-x="382" 
d="M369 720v-133h-121v-77h121v-133h-121v-377h-146v377h-77v133h77v210h267z" />
    <glyph glyph-name="g" unicode="g" 
d="M430 455v55h146v-700h-496v133h350v129q-61 -67 -154 -67q-105 0 -176 74q-70 73 -70 185q0 111 70 184q71 74 176 74q93 0 154 -67zM215 174q36 -36 90 -36q55 0 89 36q36 36 36 90t-36 90q-34 36 -89 36q-54 0 -90 -36q-35 -37 -35 -90t35 -90z" />
    <glyph glyph-name="h" unicode="h" horiz-adv-x="612" 
d="M204 720v-210h350v-510h-146v369h-204v-369h-146v720h146z" />
    <glyph glyph-name="i" unicode="i" horiz-adv-x="262" 
d="M131 575q-38 0 -64 25.5t-26 64.5q0 38 26 63.5t64 25.5q39 0 65 -25.5t26 -63.5q0 -39 -26 -64.5t-65 -25.5zM204 0h-146v510h146v-510z" />
    <glyph glyph-name="j" unicode="j" horiz-adv-x="267" 
d="M136 575q-39 0 -65 25.5t-26 64.5q0 38 26 63.5t65 25.5q38 0 64 -25.5t26 -63.5q0 -39 -26 -64.5t-64 -25.5zM-18 -69h81v579h146v-712h-227v133z" />
    <glyph glyph-name="k" unicode="k" horiz-adv-x="548" 
d="M551 0h-178l-120 190h-49v-190h-146v720h146v-396h51l114 186h175l-169 -253z" />
    <glyph glyph-name="l" unicode="l" horiz-adv-x="298" 
d="M204 720v-587h82v-133h-228v720h146z" />
    <glyph glyph-name="m" unicode="m" horiz-adv-x="922" 
d="M58 510h806v-510h-146v369h-184v-369h-146v369h-184v-369h-146v510z" />
    <glyph glyph-name="n" unicode="n" horiz-adv-x="612" 
d="M58 510h496v-510h-146v369h-204v-369h-146v510z" />
    <glyph glyph-name="o" unicode="o" horiz-adv-x="606" 
d="M499 64q-77 -76 -196 -76q-118 0 -197 76q-78 76 -78 191q0 113 78 190q80 77 197 77t196 -77q79 -76 79 -190q0 -115 -79 -191zM213 165q36 -36 90 -36q55 0 89 36q36 36 36 90t-36 90q-35 36 -89 36t-90 -36q-35 -37 -35 -90t35 -90z" />
    <glyph glyph-name="p" unicode="p" 
d="M358 522q105 0 176 -77q70 -76 70 -190q0 -115 -70 -191t-176 -76q-92 0 -154 69v-247h-146v700h146v-57q62 69 154 69zM239 165q36 -36 90 -36q55 0 89 36q36 36 36 90t-36 90q-34 36 -89 36q-54 0 -90 -36q-35 -37 -35 -90t35 -90z" />
    <glyph glyph-name="q" unicode="q" 
d="M430 454v56h146v-700h-146v246q-62 -68 -154 -68q-106 0 -176 76t-70 191q0 114 70 190q71 77 176 77q92 0 154 -68zM305 129q54 0 89.5 36t35.5 90t-35.5 90t-89.5 36q-53 0 -88.5 -36t-35.5 -90t35.5 -90t88.5 -36z" />
    <glyph glyph-name="r" unicode="r" horiz-adv-x="364" 
d="M58 510h288v-144h-142v-366h-146v510z" />
    <glyph glyph-name="s" unicode="s" horiz-adv-x="451" 
d="M226 -12q-85 0 -142 48q-57 50 -57 119h146q0 -21 16 -36t38 -15q21 0 35.5 11.5t14.5 27.5q0 38 -82 56q-161 38 -161 162q0 75 55 118t135 43q81 0 137 -47q55 -46 55 -113h-146q0 18 -13.5 31t-33.5 13q-18 0 -30.5 -10.5t-12.5 -24.5q0 -38 85 -57q67 -17 107 -47
q51 -37 51 -111q0 -78 -57 -123q-56 -45 -140 -45z" />
    <glyph glyph-name="t" unicode="t" horiz-adv-x="409" 
d="M378 510v-133h-121v-244h121v-133h-267v377h-89v133h89v150h146v-150h121z" />
    <glyph glyph-name="u" unicode="u" horiz-adv-x="599" 
d="M394 141v369h146v-510h-482v510h146v-369h190z" />
    <glyph glyph-name="v" unicode="v" horiz-adv-x="569" 
d="M287 185l117 325h163l-207 -510h-150l-208 510h167z" />
    <glyph glyph-name="w" unicode="w" horiz-adv-x="874" 
d="M613 189l94 321h163l-182 -510h-150l-100 333l-101 -333h-150l-182 510h166l94 -323l100 323h149z" />
    <glyph glyph-name="x" unicode="x" horiz-adv-x="566" 
d="M381 256l179 -256h-177l-101 154l-101 -154h-175l179 256l-176 254h177l98 -151l98 151h175z" />
    <glyph glyph-name="y" unicode="y" horiz-adv-x="569" 
d="M287 186l117 324h163l-285 -700h-201v133h99l26 64l-204 503h167z" />
    <glyph glyph-name="z" unicode="z" horiz-adv-x="496" 
d="M454 404l-213 -263h220v-141h-426v106l213 263h-209v141h415v-106z" />
    <glyph glyph-name="braceleft" unicode="{" horiz-adv-x="427" 
d="M298 558v-191q0 -29 -16 -52t-44 -34q60 -25 60 -87v-192q0 -24 14.5 -39t37.5 -15h55v-138h-112q-65 0 -105 40.5t-40 106.5v199q0 25 -15 40.5t-39 15.5h-39v138h39q24 0 39 15.5t15 40.5v197q0 66 40 106.5t105 40.5h112v-138h-55q-23 0 -37.5 -15t-14.5 -39z" />
    <glyph glyph-name="bar" unicode="|" horiz-adv-x="305" 
d="M219 -190h-133v940h133v-940z" />
    <glyph glyph-name="braceright" unicode="}" horiz-adv-x="427" 
d="M333 350h39v-138h-39q-24 0 -39 -15.5t-15 -40.5v-199q0 -66 -40.5 -106.5t-105.5 -40.5h-111v138h54q23 0 37.5 15t14.5 39v192q0 62 61 87q-61 25 -61 86v191q0 24 -14.5 39t-37.5 15h-54v138h111q65 0 105.5 -40.5t40.5 -106.5v-197q0 -25 15 -40.5t39 -15.5z" />
    <glyph glyph-name="asciitilde" unicode="~" horiz-adv-x="590" 
d="M383 204q-45 0 -90 22q-48 23 -61 23q-19 0 -31 -11.5t-12 -29.5h-133q0 88 37.5 137t113.5 49q41 0 89 -23q47 -22 62 -22q19 0 30.5 11.5t11.5 29.5h133q0 -88 -37 -137t-113 -49z" />
    <glyph glyph-name="exclamdown" unicode="&#xa1;" horiz-adv-x="279" 
d="M140 327q-42 0 -70 28t-28 69t28 68.5t70 27.5q41 0 69 -27.5t28 -68.5t-28 -69t-69 -28zM217 -180h-154v170l9 290h136l9 -290v-170z" />
    <glyph glyph-name="cent" unicode="&#xa2;" horiz-adv-x="627" 
d="M360 462v-236q58 19 75 82h153q-11 -90 -74 -152q-63 -63 -154 -76v-80h-85v80q-104 14 -169 86q-66 73 -66 178q0 104 66 177q66 74 169 87v82h85v-82q91 -14 154 -76t74 -152h-153q-17 63 -75 82zM275 224v240q-39 -12 -62 -44.5t-23 -75.5t23.5 -75.5t61.5 -44.5z" />
    <glyph glyph-name="sterling" unicode="&#xa3;" horiz-adv-x="586" 
d="M254 266v-120h303v-146h-509v146h51v120h-51v134h51v86q0 93 64 154q65 62 160 62q94 0 159 -62t65 -154h-155q0 28 -20 47.5t-49 19.5t-49 -19.5t-20 -47.5v-86h184v-134h-184z" />
    <glyph glyph-name="currency" unicode="&#xa4;" horiz-adv-x="552" 
d="M455 258l61 -61l-89 -89l-66 65q-86 -32 -168 0l-67 -65l-90 89l61 61q-21 42 -21 88q0 48 22 88l-62 62l89 88l66 -65q42 17 85 17q45 0 85 -17l66 66l89 -90l-61 -61q46 -88 0 -176zM276 269q33 0 55 22t22 55t-22 55t-55 22q-32 0 -54 -22.5t-22 -54.5q0 -33 22 -55
t54 -22z" />
    <glyph glyph-name="yen" unicode="&#xa5;" horiz-adv-x="651" 
d="M474 690h169l-202 -381h80v-86h-118v-42h118v-85h-118v-96h-155v96h-117v85h117v42h-117v86h79l-202 381h173l147 -293z" />
    <glyph glyph-name="brokenbar" unicode="&#xa6;" horiz-adv-x="305" 
d="M219 340h-133v410h133v-410zM219 -190h-133v410h133v-410z" />
    <glyph glyph-name="section" unicode="&#xa7;" horiz-adv-x="525" 
d="M410 189q57 -44 57 -116q0 -78 -59 -123q-58 -45 -144 -45q-89 0 -148 49q-59 48 -59 119h145q0 -25 18 -41.5t44 -16.5q25 0 42 14t17 34q0 46 -99 68q-72 18 -115 49q-55 39 -55 117q0 77 61 123q-55 43 -55 115q0 79 58 122q58 45 143 45q87 0 145 -49q59 -48 59 -118
h-144q0 24 -18 40.5t-43 16.5q-24 0 -40.5 -13.5t-16.5 -33.5q0 -46 100 -68q169 -37 169 -166q0 -75 -62 -122zM267 248q27 2 44.5 16.5t17.5 34.5q0 45 -71 62q-26 -2 -43 -16.5t-17 -34.5q0 -44 69 -62z" />
    <glyph glyph-name="dieresis" unicode="&#xa8;" horiz-adv-x="381" 
d="M0 639q0 34 23 57t58 23t58 -23t23 -57q0 -35 -23 -58t-58 -23t-58 23t-23 58zM219 639q0 34 23 57t58 23t58 -23t23 -57q0 -35 -23.5 -58t-57.5 -23t-57.5 23t-23.5 58z" />
    <glyph glyph-name="copyright" unicode="&#xa9;" horiz-adv-x="798" 
d="M653 90q-102 -102 -254 -102q-151 0 -255 102q-102 104 -102 255q0 152 102 254q103 103 255 103t254 -103q103 -102 103 -254t-103 -255zM216 159q74 -74 183 -74q108 0 182 74q74 76 74 186q0 111 -74 185q-73 75 -182 75t-183 -75q-73 -73 -73 -185t73 -186zM400 161
q-80 0 -132 52q-53 53 -53 132q0 78 53 131t132 53q70 0 122 -44q52 -43 60 -113h-117q-15 46 -65 46q-30 0 -50.5 -21.5t-20.5 -51.5t20.5 -51.5t50.5 -21.5q50 0 65 46h117q-8 -70 -60 -113q-52 -44 -122 -44z" />
    <glyph glyph-name="ordfeminine" unicode="&#xaa;" horiz-adv-x="357" 
d="M227 667v25h108v-274h-108v25q-32 -32 -74 -32q-55 0 -93 41q-37 41 -37 103t37 102q38 42 93 42q42 0 74 -32zM180 505q20 0 33.5 14t13.5 36t-13.5 36t-33.5 14q-21 0 -35 -14t-14 -36t14 -36t35 -14z" />
    <glyph glyph-name="guillemotleft" unicode="&#xab;" horiz-adv-x="646" 
d="M176 469h171l-148 -205l148 -205h-171l-148 205zM450 469h171l-148 -205l148 -205h-171l-147 205z" />
    <glyph glyph-name="registered" unicode="&#xae;" horiz-adv-x="416" 
d="M209 331q-80 0 -133 53t-53 132q0 80 53 133q55 53 133 53q79 0 132 -54q53 -53 53 -132t-53 -132t-132 -53zM209 383q55 0 93 38t38 95q0 58 -38 96q-38 39 -93 39q-57 0 -94.5 -38.5t-37.5 -96.5q0 -57 37.5 -95t94.5 -38zM283 552q0 -34 -27 -53l32 -68h-55l-23 57
h-11v-57h-49v185h68q28 0 46.5 -18.5t18.5 -45.5zM214 571h-15v-39h15q8 0 14 5.5t6 14.5q0 8 -6 13.5t-14 5.5z" />
    <glyph glyph-name="overscore" unicode="&#xaf;" horiz-adv-x="274" 
d="M274 571h-274v123h274v-123z" />
    <glyph glyph-name="degree" unicode="&#xb0;" horiz-adv-x="386" 
d="M28 541q0 67 47 114q49 47 118 47t118 -47q48 -47 48 -114q0 -71 -48 -117q-46 -46 -118 -46t-118 46q-47 47 -47 117zM242 541q0 20 -14 34t-35 14t-34.5 -14t-13.5 -34q0 -21 13.5 -35.5t34.5 -14.5t35 14.5t14 35.5z" />
    <glyph glyph-name="plusminus" unicode="&#xb1;" horiz-adv-x="534" 
d="M334 554v-111h144v-132h-144v-111h-134v111h-144v132h144v111h134zM478 20h-422v132h422v-132z" />
    <glyph glyph-name="uni00B2" unicode="&#xb2;" horiz-adv-x="357" 
d="M271 536l-76 -72h131v-98h-296v82l144 138q40 37 40 63q0 16 -10.5 27t-25.5 11q-16 0 -27 -11t-11 -27h-109q0 59 43 98q43 40 108 40q61 0 101 -40q41 -39 41 -98q0 -60 -53 -113z" />
    <glyph glyph-name="uni00B3" unicode="&#xb3;" horiz-adv-x="345" 
d="M275 581q47 -32 47 -87t-43 -95t-107 -40t-107 39q-43 40 -43 100h110q-2 -24 19.5 -34t43.5 0t20 34q0 19 -14 31t-36 12h-61v78h61q18 0 29.5 11t11.5 27q0 14 -9.5 23.5t-23.5 9.5q-15 0 -25 -9.5t-10 -23.5h-110q0 55 41 93q41 37 103 37t103 -38q42 -37 42 -87
t-42 -81z" />
    <glyph glyph-name="acute" unicode="&#xb4;" horiz-adv-x="283" 
d="M153 562h-153l100 148h183z" />
    <glyph glyph-name="paragraph" unicode="&#xb6;" horiz-adv-x="654" 
d="M237 690h353v-880h-125v756h-65v-756h-125v458h-38q-89 0 -150 60q-61 61 -61 151t61 150q61 61 150 61z" />
    <glyph glyph-name="middot" unicode="&#xb7;" horiz-adv-x="313" 
d="M228 202q-28 -28 -71 -28q-44 0 -72 28q-29 29 -29 72q0 42 29 71t72 29q42 0 71 -29t29 -71q0 -43 -29 -72z" />
    <glyph glyph-name="cedilla" unicode="&#xb8;" horiz-adv-x="248" 
d="M178 0l-24 -28q41 -4 67.5 -34.5t26.5 -73.5q0 -48 -35.5 -81t-88.5 -33t-88.5 33t-35.5 81h87q0 -24 23 -32.5t40 7.5q18 17 8 38.5t-34 21.5q-19 0 -29 -13l-81 36l63 78v2h101v-2z" />
    <glyph glyph-name="uni00B9" unicode="&#xb9;" horiz-adv-x="312" 
d="M218 780v-316h65v-98h-247v98h74v188l-74 -33v113l105 48h77z" />
    <glyph glyph-name="ordmasculine" unicode="&#xba;" horiz-adv-x="359" 
d="M180 411q-66 0 -112 41q-45 42 -45 103t45 102q45 42 112 42q66 0 111 -42q45 -41 45 -102t-45 -103q-46 -41 -111 -41zM145 519q15 -14 35 -14t34 14q14 15 14 36t-14 35q-14 15 -34 15t-35 -15q-14 -14 -14 -35t14 -36z" />
    <glyph glyph-name="guillemotright" unicode="&#xbb;" horiz-adv-x="646" 
d="M31 469h171l147 -205l-147 -205h-171l148 205zM305 469h171l148 -205l-148 -205h-171l148 205z" />
    <glyph glyph-name="onequarter" unicode="&#xbc;" horiz-adv-x="878" 
d="M218 374h65v-98h-247v98h74v188l-74 -33v113l105 48h77v-316zM161 0l470 690h133l-469 -690h-134zM817 166h39v-97h-39v-69h-108v69h-186v79l159 266h135v-248zM709 300l-75 -134h75v134z" />
    <glyph glyph-name="onehalf" unicode="&#xbd;" horiz-adv-x="925" 
d="M218 374h65v-98h-247v98h74v188l-74 -33v113l105 48h77v-316zM161 0l470 690h133l-469 -690h-134zM840 170l-76 -72h131v-98h-296v82l144 138q40 37 40 63q0 16 -10.5 27t-25.5 11q-16 0 -27 -11t-11 -27h-109q0 59 43 98q43 40 108 40q61 0 101 -40q41 -39 41 -98
q0 -60 -53 -113z" />
    <glyph glyph-name="threequarters" unicode="&#xbe;" horiz-adv-x="871" 
d="M172 269q-64 0 -107 39q-43 40 -43 100h110q-2 -24 19.5 -34t43.5 0t20 34q0 19 -14 31t-36 12h-61v78h61q18 0 29.5 11t11.5 27q0 14 -9.5 23.5t-23.5 9.5q-15 0 -25 -9.5t-10 -23.5h-110q0 55 41 93q41 37 103 37t103 -38q42 -37 42 -87t-42 -81q47 -32 47 -87t-43 -95
t-107 -40zM154 0l470 690h133l-469 -690h-134zM810 166h39v-97h-39v-69h-108v69h-186v79l159 266h135v-248zM702 300l-75 -134h75v134z" />
    <glyph glyph-name="questiondown" unicode="&#xbf;" horiz-adv-x="455" 
d="M236 327q-42 0 -70 28t-28 69t28 68.5t70 27.5q41 0 69 -27.5t28 -68.5t-28 -69t-69 -28zM236 -192q-93 0 -155 59t-62 148q0 60 28 100q15 20 56 58q30 25 43 43.5t13 41.5v21h154v-21q0 -40 -15 -74q-12 -30 -28 -49q-7 -8 -40 -37q-28 -25 -40 -42.5t-12 -40.5
q0 -25 16.5 -41.5t41.5 -16.5q24 0 40.5 16.5t16.5 41.5h159q0 -88 -62 -147q-62 -60 -154 -60z" />
    <glyph glyph-name="Agrave" unicode="&#xc0;" horiz-adv-x="718" 
d="M342 890l100 -148h-153l-130 148h183zM710 0h-170l-43 121h-280l-43 -121h-166l259 690h183zM357 519l-90 -255h180z" />
    <glyph glyph-name="Aacute" unicode="&#xc1;" horiz-adv-x="718" 
d="M375 890h183l-130 -148h-153zM710 0h-170l-43 121h-280l-43 -121h-166l259 690h183zM357 519l-90 -255h180z" />
    <glyph glyph-name="Acircumflex" unicode="&#xc2;" horiz-adv-x="718" 
d="M409 742l-50 69l-50 -69h-137l99 148h176l98 -148h-136zM710 0h-170l-43 121h-280l-43 -121h-166l259 690h183zM357 519l-90 -255h180z" />
    <glyph glyph-name="Atilde" unicode="&#xc3;" horiz-adv-x="718" 
d="M312 785q-15 0 -25 -10t-10 -25h-102q0 67 31.5 108.5t86.5 41.5q31 0 65 -19q35 -18 46 -18q15 0 24.5 10t9.5 25h103q0 -68 -31.5 -109t-87.5 -41q-30 0 -65 18q-32 19 -45 19zM710 0h-170l-43 121h-280l-43 -121h-166l259 690h183zM357 519l-90 -255h180z" />
    <glyph glyph-name="Adieresis" unicode="&#xc4;" horiz-adv-x="718" 
d="M168 819q0 34 23 57t58 23t58 -23t23 -57q0 -35 -23 -58t-58 -23t-58 23t-23 58zM387 819q0 34 23 57t58 23t58 -23t23 -57q0 -35 -23.5 -58t-57.5 -23t-57.5 23t-23.5 58zM710 0h-170l-43 121h-280l-43 -121h-166l259 690h183zM357 519l-90 -255h180z" />
    <glyph glyph-name="Aring" unicode="&#xc5;" horiz-adv-x="718" 
d="M435 761q-31 -30 -77 -30t-77 30t-31 75t31 75t77 30t77 -30t31 -75t-31 -75zM381 859q-9 10 -23 10t-23 -10q-9 -9 -9 -23t9 -24q9 -9 23 -9t23 9q9 10 9 24t-9 23zM710 0h-170l-43 121h-280l-43 -121h-166l259 690h183zM357 519l-90 -255h180z" />
    <glyph glyph-name="AE" unicode="&#xc6;" horiz-adv-x="876" 
d="M594 274v-128h248v-146h-403v118h-230l-67 -118h-176l395 690h476v-146h-243v-124h211v-146h-211zM439 523l-149 -262h149v262z" />
    <glyph glyph-name="Ccedilla" unicode="&#xc7;" horiz-adv-x="783" 
d="M397 137q66 0 118 35.5t75 95.5h164q-22 -110 -107 -187q-82 -75 -199 -90l-17 -20q41 -4 67.5 -34.5t26.5 -73.5q0 -48 -35.5 -81t-88.5 -33t-88.5 33t-35.5 81h87q0 -24 23 -32.5t40 7.5q18 16 8 38t-34 22q-19 0 -29 -13l-81 36l57 70q-138 16 -227 115
q-89 100 -89 239q0 152 104 254q104 103 261 103q135 0 232 -79q100 -78 125 -201h-164q-23 60 -75 95.5t-118 35.5q-89 0 -147 -60q-59 -59 -59 -148q0 -88 59 -149q59 -59 147 -59z" />
    <glyph glyph-name="Egrave" unicode="&#xc8;" horiz-adv-x="503" 
d="M248 890l100 -148h-153l-130 148h183zM221 274v-128h248v-146h-403v690h398v-146h-243v-124h210v-146h-210z" />
    <glyph glyph-name="Eacute" unicode="&#xc9;" horiz-adv-x="503" 
d="M281 890h183l-130 -148h-153zM221 274v-128h248v-146h-403v690h398v-146h-243v-124h210v-146h-210z" />
    <glyph glyph-name="Ecircumflex" unicode="&#xca;" horiz-adv-x="503" 
d="M315 742l-50 69l-50 -69h-137l99 148h176l98 -148h-136zM221 274v-128h248v-146h-403v690h398v-146h-243v-124h210v-146h-210z" />
    <glyph glyph-name="Edieresis" unicode="&#xcb;" horiz-adv-x="503" 
d="M74 819q0 34 23 57t58 23t58 -23t23 -57q0 -35 -23 -58t-58 -23t-58 23t-23 58zM293 819q0 34 23 57t58 23t58 -23t23 -57q0 -35 -23.5 -58t-57.5 -23t-57.5 23t-23.5 58zM221 274v-128h248v-146h-403v690h398v-146h-243v-124h210v-146h-210z" />
    <glyph glyph-name="Igrave" unicode="&#xcc;" horiz-adv-x="391" 
d="M180 890l100 -148h-153l-130 148h183zM358 690v-146h-85v-398h85v-146h-325v146h85v398h-85v146h325z" />
    <glyph glyph-name="Iacute" unicode="&#xcd;" horiz-adv-x="391" 
d="M213 890h183l-130 -148h-153zM118 544h-85v146h325v-146h-85v-398h85v-146h-325v146h85v398z" />
    <glyph glyph-name="Icircumflex" unicode="&#xce;" horiz-adv-x="391" 
d="M246 742l-50 69l-50 -69h-137l99 148h176l98 -148h-136zM118 544h-85v146h325v-146h-85v-398h85v-146h-325v146h85v398z" />
    <glyph glyph-name="Idieresis" unicode="&#xcf;" horiz-adv-x="391" 
d="M167 819q0 -35 -23.5 -58t-57.5 -23t-57.5 23t-23.5 58q0 34 23 57t58 23t58 -23t23 -57zM386 819q0 -35 -23 -58t-58 -23t-58 23t-23 58q0 34 23 57t58 23t58 -23t23 -57zM118 544h-85v146h325v-146h-85v-398h85v-146h-325v146h85v398z" />
    <glyph glyph-name="Eth" unicode="&#xd0;" horiz-adv-x="723" 
d="M66 690h272q150 0 251 -99q101 -98 101 -246t-101 -247q-101 -98 -251 -98h-272v292h-62v105h62v293zM221 146h113q86 0 141 57q56 58 56 142t-56 142q-55 57 -141 57h-113v-147h95v-105h-95v-146z" />
    <glyph glyph-name="Ntilde" unicode="&#xd1;" horiz-adv-x="729" 
d="M322 785q-15 0 -25 -10t-10 -25h-102q0 67 31.5 108.5t86.5 41.5q31 0 65 -19q34 -18 46 -18q15 0 24.5 10t9.5 25h103q0 -68 -31.5 -109t-87.5 -41q-30 0 -65 18q-32 19 -45 19zM509 268v422h155v-690h-157l-286 422v-422h-155v690h156z" />
    <glyph glyph-name="Ograve" unicode="&#xd2;" horiz-adv-x="794" 
d="M481 742h-153l-130 148h183zM657 90q-103 -102 -260 -102q-156 0 -261 102q-104 104 -104 255q0 152 104 254q104 103 261 103t260 -103q105 -102 105 -254q0 -151 -105 -255zM250 196q59 -59 147 -59t147 59q59 61 59 149q0 89 -59 148q-58 60 -147 60t-147 -60
q-59 -59 -59 -148q0 -88 59 -149z" />
    <glyph glyph-name="Oacute" unicode="&#xd3;" horiz-adv-x="794" 
d="M467 742h-153l100 148h183zM657 90q-103 -102 -260 -102q-156 0 -261 102q-104 104 -104 255q0 152 104 254q104 103 261 103t260 -103q105 -102 105 -254q0 -151 -105 -255zM250 196q59 -59 147 -59t147 59q59 61 59 149q0 89 -59 148q-58 60 -147 60t-147 -60
q-59 -59 -59 -148q0 -88 59 -149z" />
    <glyph glyph-name="Ocircumflex" unicode="&#xd4;" horiz-adv-x="794" 
d="M447 742l-50 69l-50 -69h-137l99 148h176l98 -148h-136zM136 599q104 103 261 103t260 -103q105 -102 105 -254q0 -151 -105 -255q-103 -102 -260 -102q-156 0 -261 102q-104 104 -104 255q0 152 104 254zM250 196q59 -59 147 -59t147 59q59 61 59 149q0 89 -59 148
q-58 60 -147 60t-147 -60q-59 -59 -59 -148q0 -88 59 -149z" />
    <glyph glyph-name="Otilde" unicode="&#xd5;" horiz-adv-x="794" 
d="M461 748q-31 0 -65 18q-32 19 -45 19q-15 0 -25 -10t-10 -25h-102q0 67 31.5 108.5t86.5 41.5q31 0 65 -19q35 -18 46 -18q15 0 24.5 10t9.5 25h103q0 -68 -31.5 -109t-87.5 -41zM657 90q-103 -102 -260 -102q-156 0 -261 102q-104 104 -104 255q0 152 104 254
q104 103 261 103t260 -103q105 -102 105 -254q0 -151 -105 -255zM250 196q59 -59 147 -59t147 59q59 61 59 149q0 89 -59 148q-58 60 -147 60t-147 -60q-59 -59 -59 -148q0 -88 59 -149z" />
    <glyph glyph-name="Odieresis" unicode="&#xd6;" horiz-adv-x="794" 
d="M206 819q0 34 23 57t58 23t58 -23t23 -57q0 -35 -23 -58t-58 -23t-58 23t-23 58zM425 819q0 34 23 57t58 23t58 -23t23 -57q0 -35 -23.5 -58t-57.5 -23t-57.5 23t-23.5 58zM657 90q-103 -102 -260 -102q-156 0 -261 102q-104 104 -104 255q0 152 104 254q104 103 261 103
t260 -103q105 -102 105 -254q0 -151 -105 -255zM250 196q59 -59 147 -59t147 59q59 61 59 149q0 89 -59 148q-58 60 -147 60t-147 -60q-59 -59 -59 -148q0 -88 59 -149z" />
    <glyph glyph-name="multiply" unicode="&#xd7;" horiz-adv-x="506" 
d="M354 492l96 -96l-101 -101l101 -101l-96 -96l-101 101l-101 -101l-96 96l101 101l-101 101l96 96l101 -101z" />
    <glyph glyph-name="Oslash" unicode="&#xd8;" horiz-adv-x="794" 
d="M756 690l-87 -102q93 -100 93 -243q0 -151 -105 -255q-103 -102 -260 -102q-108 0 -196 53l-35 -41h-128l87 102q-93 100 -93 243q0 152 104 254q104 103 261 103q108 0 196 -53l35 41h128zM191 345q0 -70 37 -122l264 308q-43 22 -95 22q-89 0 -147 -60
q-59 -59 -59 -148zM397 137q88 0 147 59q59 61 59 149q0 70 -37 122l-264 -308q43 -22 95 -22z" />
    <glyph glyph-name="Ugrave" unicode="&#xd9;" horiz-adv-x="707" 
d="M337 890l100 -148h-153l-130 148h183zM487 146v544h155v-690h-576v690h155v-544h266z" />
    <glyph glyph-name="Uacute" unicode="&#xda;" horiz-adv-x="707" 
d="M370 890h183l-130 -148h-153zM487 146v544h155v-690h-576v690h155v-544h266z" />
    <glyph glyph-name="Ucircumflex" unicode="&#xdb;" horiz-adv-x="707" 
d="M404 742l-50 69l-50 -69h-137l99 148h176l98 -148h-136zM487 146v544h155v-690h-576v690h155v-544h266z" />
    <glyph glyph-name="Udieresis" unicode="&#xdc;" horiz-adv-x="707" 
d="M163 819q0 34 23 57t58 23t58 -23t23 -57q0 -35 -23.5 -58t-57.5 -23t-57.5 23t-23.5 58zM382 819q0 34 23 57t58 23t58 -23t23 -57q0 -35 -23 -58t-58 -23t-58 23t-23 58zM487 146v544h155v-690h-576v690h155v-544h266z" />
    <glyph glyph-name="Yacute" unicode="&#xdd;" horiz-adv-x="677" 
d="M355 890h183l-130 -148h-153zM340 396l167 294h173l-264 -453v-237h-155v237l-264 453h176z" />
    <glyph glyph-name="Thorn" unicode="&#xde;" horiz-adv-x="578" 
d="M221 580h100q104 0 172 -67q70 -67 70 -168q0 -99 -69 -167q-68 -67 -173 -67h-100v-111h-155v690h155v-110zM221 257h96q37 0 62 25t25 63t-25 63.5t-62 25.5h-96v-177z" />
    <glyph glyph-name="germandbls" unicode="&#xdf;" horiz-adv-x="541" 
d="M417 371q48 -20 77.5 -67.5t29.5 -107.5q0 -88 -63 -148t-157 -60q-34 0 -60 9v141q18 -9 43 -9q38 0 62.5 24t24.5 61t-24 62t-60 25h-31v139h20q32 0 53 22t21 54t-21.5 53.5t-54.5 21.5q-32 0 -54 -21.5t-22 -53.5v-516h-146v528q0 86 63 145q65 59 159 59
q96 0 161 -59t65 -144q0 -50 -23.5 -92.5t-62.5 -65.5z" />
    <glyph glyph-name="agrave" unicode="&#xe0;" horiz-adv-x="537" 
d="M248 710l100 -148h-153l-130 148h183zM471 510v-377h57v-133h-185v48q-53 -60 -142 -60q-75 0 -128 47q-51 48 -51 119q0 72 51 118q51 48 128 48h124v56h-266v134h412zM240 100q38 0 61.5 17t23.5 44v53h-85q-29 0 -48.5 -16t-19.5 -41q0 -24 19.5 -40.5t48.5 -16.5z
" />
    <glyph glyph-name="aacute" unicode="&#xe1;" horiz-adv-x="537" 
d="M280 710h183l-130 -148h-153zM471 510v-377h57v-133h-185v48q-53 -60 -142 -60q-75 0 -128 47q-51 48 -51 119q0 72 51 118q51 48 128 48h124v56h-266v134h412zM240 100q38 0 61.5 17t23.5 44v53h-85q-29 0 -48.5 -16t-19.5 -41q0 -24 19.5 -40.5t48.5 -16.5z" />
    <glyph glyph-name="acircumflex" unicode="&#xe2;" horiz-adv-x="537" 
d="M314 562l-50 69l-50 -69h-137l99 148h176l98 -148h-136zM471 510v-377h57v-133h-185v48q-53 -60 -142 -60q-75 0 -128 47q-51 48 -51 119q0 72 51 118q51 48 128 48h124v56h-266v134h412zM240 100q38 0 61.5 17t23.5 44v53h-85q-29 0 -48.5 -16t-19.5 -41
q0 -24 19.5 -40.5t48.5 -16.5z" />
    <glyph glyph-name="atilde" unicode="&#xe3;" horiz-adv-x="537" 
d="M218 605q-15 0 -25 -10t-10 -25h-102q0 67 31.5 108.5t86.5 41.5q31 0 65 -19q35 -18 46 -18q15 0 24.5 10t9.5 25h103q0 -68 -31.5 -109t-87.5 -41q-30 0 -65 18q-32 19 -45 19zM471 510v-377h57v-133h-185v48q-53 -60 -142 -60q-75 0 -128 47q-51 48 -51 119
q0 72 51 118q51 48 128 48h124v56h-266v134h412zM240 100q38 0 61.5 17t23.5 44v53h-85q-29 0 -48.5 -16t-19.5 -41q0 -24 19.5 -40.5t48.5 -16.5z" />
    <glyph glyph-name="adieresis" unicode="&#xe4;" horiz-adv-x="537" 
d="M73 639q0 34 23 57t58 23t58 -23t23 -57q0 -35 -23.5 -58t-57.5 -23t-57.5 23t-23.5 58zM292 639q0 34 23 57t58 23t58 -23t23 -57q0 -35 -23 -58t-58 -23t-58 23t-23 58zM471 510v-377h57v-133h-185v48q-53 -60 -142 -60q-75 0 -128 47q-51 48 -51 119q0 72 51 118
q51 48 128 48h124v56h-266v134h412zM240 100q38 0 61.5 17t23.5 44v53h-85q-29 0 -48.5 -16t-19.5 -41q0 -24 19.5 -40.5t48.5 -16.5z" />
    <glyph glyph-name="aring" unicode="&#xe5;" horiz-adv-x="537" 
d="M341 581q-31 -30 -77 -30t-77 30t-31 75t31 75t77 30t77 -30t31 -75t-31 -75zM287 679q-9 10 -23 10t-23 -10q-9 -9 -9 -23t9 -24q9 -9 23 -9t23 9q9 10 9 24t-9 23zM471 510v-377h57v-133h-185v48q-53 -60 -142 -60q-75 0 -128 47q-51 48 -51 119q0 72 51 118
q51 48 128 48h124v56h-266v134h412zM240 100q38 0 61.5 17t23.5 44v53h-85q-29 0 -48.5 -16t-19.5 -41q0 -24 19.5 -40.5t48.5 -16.5z" />
    <glyph glyph-name="ae" unicode="&#xe6;" horiz-adv-x="894" 
d="M868 254q0 -28 -3 -46h-391q12 -43 44.5 -68t77.5 -25q35 0 65 14.5t42 36.5h156q-29 -80 -100 -129q-70 -49 -164 -49q-110 0 -187 71q-68 -71 -191 -71q-91 0 -143 44t-52 117q0 68 49 111q50 45 122 45h133v71h-267v134h381v-34q67 46 155 46q115 0 194 -77
q79 -76 79 -191zM475 305h237q-12 42 -44.5 66.5t-74.5 24.5t-73.5 -24.5t-44.5 -66.5zM248 100q69 0 101 44q-12 26 -19 64h-98q-26 0 -43 -15.5t-17 -38.5q0 -25 20 -39.5t56 -14.5z" />
    <glyph glyph-name="ccedilla" unicode="&#xe7;" horiz-adv-x="597" 
d="M303 129q38 0 69 20t45 54h155q-14 -82 -73 -139t-144 -72l-18 -21q41 -4 67.5 -34.5t26.5 -73.5q0 -48 -35.5 -81t-88.5 -33t-88.5 33t-35.5 81h87q0 -24 23 -32.5t40 7.5q18 16 8 38t-34 22q-19 0 -29 -13l-81 36l57 71q-101 17 -163 89q-63 73 -63 174q0 113 78 190
q80 77 197 77q104 0 177 -61q76 -61 92 -154h-155q-14 34 -45 54t-69 20q-54 0 -89.5 -36t-35.5 -90t35.5 -90t89.5 -36z" />
    <glyph glyph-name="egrave" unicode="&#xe8;" horiz-adv-x="604" 
d="M286 710l100 -148h-153l-130 148h183zM578 253q0 -30 -4 -45h-390q12 -43 44.5 -68t77.5 -25q35 0 64.5 14.5t42.5 36.5h155q-29 -80 -100 -129q-70 -49 -165 -49q-118 0 -197 76q-78 76 -78 191q0 113 78 190q80 77 197 77q116 0 196 -77q79 -76 79 -192zM303 396
q-43 0 -74 -24.5t-44 -66.5h236q-11 42 -43.5 66.5t-74.5 24.5z" />
    <glyph glyph-name="eacute" unicode="&#xe9;" horiz-adv-x="604" 
d="M319 710h183l-130 -148h-153zM578 253q0 -30 -4 -45h-390q12 -43 44.5 -68t77.5 -25q35 0 64.5 14.5t42.5 36.5h155q-29 -80 -100 -129q-70 -49 -165 -49q-118 0 -197 76q-78 76 -78 191q0 113 78 190q80 77 197 77q116 0 196 -77q79 -76 79 -192zM303 396
q-43 0 -74 -24.5t-44 -66.5h236q-11 42 -43.5 66.5t-74.5 24.5z" />
    <glyph glyph-name="ecircumflex" unicode="&#xea;" horiz-adv-x="604" 
d="M353 562l-50 69l-50 -69h-137l99 148h176l98 -148h-136zM578 253q0 -30 -4 -45h-390q12 -43 44.5 -68t77.5 -25q35 0 64.5 14.5t42.5 36.5h155q-29 -80 -100 -129q-70 -49 -165 -49q-118 0 -197 76q-78 76 -78 191q0 113 78 190q80 77 197 77q116 0 196 -77
q79 -76 79 -192zM303 396q-43 0 -74 -24.5t-44 -66.5h236q-11 42 -43.5 66.5t-74.5 24.5z" />
    <glyph glyph-name="edieresis" unicode="&#xeb;" horiz-adv-x="604" 
d="M112 639q0 34 23 57t58 23t58 -23t23 -57q0 -35 -23 -58t-58 -23t-58 23t-23 58zM331 639q0 34 23 57t58 23t58 -23t23 -57q0 -35 -23.5 -58t-57.5 -23t-57.5 23t-23.5 58zM578 253q0 -30 -4 -45h-390q12 -43 44.5 -68t77.5 -25q35 0 64.5 14.5t42.5 36.5h155
q-29 -80 -100 -129q-70 -49 -165 -49q-118 0 -197 76q-78 76 -78 191q0 113 78 190q80 77 197 77q116 0 196 -77q79 -76 79 -192zM303 396q-43 0 -74 -24.5t-44 -66.5h236q-11 42 -43.5 66.5t-74.5 24.5z" />
    <glyph glyph-name="igrave" unicode="&#xec;" horiz-adv-x="262" 
d="M215 562h-153l-130 148h183zM204 0h-146v510h146v-510z" />
    <glyph glyph-name="iacute" unicode="&#xed;" horiz-adv-x="262" 
d="M201 562h-153l100 148h183zM204 0h-146v510h146v-510z" />
    <glyph glyph-name="icircumflex" unicode="&#xee;" horiz-adv-x="262" 
d="M181 562l-50 69l-50 -69h-137l99 148h176l98 -148h-136zM204 0h-146v510h146v-510z" />
    <glyph glyph-name="idieresis" unicode="&#xef;" horiz-adv-x="262" 
d="M-60 639q0 34 23 57t58 23t58 -23t23 -57q0 -35 -23 -58t-58 -23t-58 23t-23 58zM159 639q0 34 23 57t58 23t58 -23t23 -57q0 -35 -23.5 -58t-57.5 -23t-57.5 23t-23.5 58zM204 0h-146v510h146v-510z" />
    <glyph glyph-name="eth" unicode="&#xf0;" horiz-adv-x="572" 
d="M397 730l-64 -76q99 -66 154 -171q57 -105 57 -221q0 -128 -73 -201q-72 -73 -184 -73q-113 0 -187 72t-74 180q0 106 69 178t167 72q49 0 86 -19q-41 47 -102 80l-30 -36h-105l55 66q-35 8 -66 10v139q85 -5 160 -37l31 37h106zM285 129q46 0 77 31.5t31 78.5t-31 78.5
t-77 31.5q-47 0 -78 -31.5t-31 -78.5t31 -78.5t78 -31.5z" />
    <glyph glyph-name="ntilde" unicode="&#xf1;" horiz-adv-x="612" 
d="M261 605q-15 0 -25 -10t-10 -25h-102q0 67 31.5 108.5t86.5 41.5q31 0 65 -19q35 -18 46 -18q15 0 24.5 10t9.5 25h103q0 -68 -31.5 -109t-87.5 -41q-31 0 -65 18q-32 19 -45 19zM58 510h496v-510h-146v369h-204v-369h-146v510z" />
    <glyph glyph-name="ograve" unicode="&#xf2;" horiz-adv-x="606" 
d="M386 562h-153l-130 148h183zM499 64q-77 -76 -196 -76q-118 0 -197 76q-78 76 -78 191q0 113 78 190q80 77 197 77t196 -77q79 -76 79 -190q0 -115 -79 -191zM213 165q36 -36 90 -36q55 0 89 36q36 36 36 90t-36 90q-35 36 -89 36t-90 -36q-35 -37 -35 -90t35 -90z" />
    <glyph glyph-name="oacute" unicode="&#xf3;" horiz-adv-x="606" 
d="M372 562h-153l100 148h183zM499 64q-77 -76 -196 -76q-118 0 -197 76q-78 76 -78 191q0 113 78 190q80 77 197 77t196 -77q79 -76 79 -190q0 -115 -79 -191zM213 165q36 -36 90 -36q55 0 89 36q36 36 36 90t-36 90q-35 36 -89 36t-90 -36q-35 -37 -35 -90t35 -90z" />
    <glyph glyph-name="ocircumflex" unicode="&#xf4;" horiz-adv-x="606" 
d="M353 562l-50 69l-50 -69h-137l99 148h176l98 -148h-136zM106 445q80 77 197 77t196 -77q79 -76 79 -190q0 -115 -79 -191q-77 -76 -196 -76q-118 0 -197 76q-78 76 -78 191q0 113 78 190zM213 165q36 -36 90 -36q55 0 89 36q36 36 36 90t-36 90q-35 36 -89 36t-90 -36
q-35 -37 -35 -90t35 -90z" />
    <glyph glyph-name="otilde" unicode="&#xf5;" horiz-adv-x="606" 
d="M367 568q-31 0 -65 18q-32 19 -45 19q-15 0 -25 -10t-10 -25h-102q0 67 31.5 108.5t86.5 41.5q31 0 65 -19q35 -18 46 -18q15 0 24.5 10t9.5 25h103q0 -68 -31.5 -109t-87.5 -41zM499 64q-77 -76 -196 -76q-118 0 -197 76q-78 76 -78 191q0 113 78 190q80 77 197 77
t196 -77q79 -76 79 -190q0 -115 -79 -191zM213 165q36 -36 90 -36q55 0 89 36q36 36 36 90t-36 90q-35 36 -89 36t-90 -36q-35 -37 -35 -90t35 -90z" />
    <glyph glyph-name="odieresis" unicode="&#xf6;" horiz-adv-x="606" 
d="M112 639q0 34 23 57t58 23t58 -23t23 -57q0 -35 -23 -58t-58 -23t-58 23t-23 58zM331 639q0 34 23 57t58 23t58 -23t23 -57q0 -35 -23.5 -58t-57.5 -23t-57.5 23t-23.5 58zM499 64q-77 -76 -196 -76q-118 0 -197 76q-78 76 -78 191q0 113 78 190q80 77 197 77t196 -77
q79 -76 79 -190q0 -115 -79 -191zM213 165q36 -36 90 -36q55 0 89 36q36 36 36 90t-36 90q-35 36 -89 36t-90 -36q-35 -37 -35 -90t35 -90z" />
    <glyph glyph-name="divide" unicode="&#xf7;" horiz-adv-x="534" 
d="M322 423q-22 -22 -55 -22t-55 22t-22 54t22 54t55 22t55 -22t22 -54t-22 -54zM478 236h-422v120h422v-120zM322 60q-22 -22 -55 -22t-55 22t-22 54t22 54t55 22t55 -22t22 -54t-22 -54z" />
    <glyph glyph-name="oslash" unicode="&#xf8;" horiz-adv-x="606" 
d="M477 510h103l-68 -77q66 -77 66 -178q0 -115 -79 -191q-77 -76 -196 -76q-82 0 -150 40l-25 -28h-103l69 78q-66 72 -66 177q0 113 78 190q80 77 197 77q82 0 149 -40zM178 255q0 -36 16 -64l160 180q-24 10 -51 10q-54 0 -89.5 -36t-35.5 -90zM428 255q0 36 -17 65
l-160 -181q26 -10 52 -10q54 0 89.5 36t35.5 90z" />
    <glyph glyph-name="ugrave" unicode="&#xf9;" horiz-adv-x="599" 
d="M283 710l100 -148h-153l-130 148h183zM394 141v369h146v-510h-482v510h146v-369h190z" />
    <glyph glyph-name="uacute" unicode="&#xfa;" horiz-adv-x="599" 
d="M316 710h183l-130 -148h-153zM394 141v369h146v-510h-482v510h146v-369h190z" />
    <glyph glyph-name="ucircumflex" unicode="&#xfb;" horiz-adv-x="599" 
d="M350 562l-50 69l-50 -69h-137l99 148h176l98 -148h-136zM394 141v369h146v-510h-482v510h146v-369h190z" />
    <glyph glyph-name="udieresis" unicode="&#xfc;" horiz-adv-x="599" 
d="M109 639q0 34 23 57t58 23t58 -23t23 -57q0 -35 -23.5 -58t-57.5 -23t-57.5 23t-23.5 58zM328 639q0 34 23 57t58 23t58 -23t23 -57q0 -35 -23 -58t-58 -23t-58 23t-23 58zM394 141v369h146v-510h-482v510h146v-369h190z" />
    <glyph glyph-name="yacute" unicode="&#xfd;" horiz-adv-x="569" 
d="M304 710h183l-130 -148h-153zM287 186l117 324h163l-285 -700h-201v133h99l26 64l-204 503h167z" />
    <glyph glyph-name="thorn" unicode="&#xfe;" 
d="M358 522q105 0 176 -77q70 -76 70 -190q0 -115 -70 -191t-176 -76q-92 0 -154 69v-247h-146v910h146v-267q62 69 154 69zM239 165q36 -36 90 -36q55 0 89 36q36 36 36 90t-36 90q-34 36 -89 36q-54 0 -90 -36q-35 -37 -35 -90t35 -90z" />
    <glyph glyph-name="ydieresis" unicode="&#xff;" horiz-adv-x="569" 
d="M96 639q0 34 23 57t58 23t58 -23t23 -57q0 -35 -23 -58t-58 -23t-58 23t-23 58zM315 639q0 34 23 57t58 23t58 -23t23 -57q0 -35 -23.5 -58t-57.5 -23t-57.5 23t-23.5 58zM287 186l117 324h163l-285 -700h-201v133h99l26 64l-204 503h167z" />
    <glyph glyph-name="Amacron" unicode="&#x100;" horiz-adv-x="718" 
d="M222 874h274v-123h-274v123zM710 0h-170l-43 121h-280l-43 -121h-166l259 690h183zM357 519l-90 -255h180z" />
    <glyph glyph-name="amacron" unicode="&#x101;" horiz-adv-x="537" 
d="M127 694h274v-123h-274v123zM471 510v-377h57v-133h-185v48q-53 -60 -142 -60q-75 0 -128 47q-51 48 -51 119q0 72 51 118q51 48 128 48h124v56h-266v134h412zM240 100q38 0 61.5 17t23.5 44v53h-85q-29 0 -48.5 -16t-19.5 -41q0 -24 19.5 -40.5t48.5 -16.5z" />
    <glyph glyph-name="Abreve" unicode="&#x102;" horiz-adv-x="718" 
d="M194 889h113q0 -23 14.5 -38t37.5 -15t37.5 15t14.5 38h113q0 -67 -48 -112q-46 -45 -117 -45q-70 0 -118 45q-47 45 -47 112zM710 0h-170l-43 121h-280l-43 -121h-166l259 690h183zM357 519l-90 -255h180z" />
    <glyph glyph-name="abreve" unicode="&#x103;" horiz-adv-x="537" 
d="M99 709h113q0 -23 14.5 -38t37.5 -15t37.5 15t14.5 38h113q0 -67 -48 -112q-47 -45 -117 -45t-118 45q-47 45 -47 112zM471 510v-377h57v-133h-185v48q-53 -60 -142 -60q-75 0 -128 47q-51 48 -51 119q0 72 51 118q51 48 128 48h124v56h-266v134h412zM240 100
q38 0 61.5 17t23.5 44v53h-85q-29 0 -48.5 -16t-19.5 -41q0 -24 19.5 -40.5t48.5 -16.5z" />
    <glyph glyph-name="Aogonek" unicode="&#x104;" horiz-adv-x="718" 
d="M650 -140q34 0 63 24v-103q-37 -26 -94 -26q-56 0 -93 32.5t-37 81.5q0 42 27.5 77.5t72.5 53.5h-49l-43 121h-280l-43 -121h-166l259 690h183l260 -690h-1q-105 -46 -105 -98q0 -20 13 -31t33 -11zM357 519l-90 -255h180z" />
    <glyph glyph-name="aogonek" unicode="&#x105;" horiz-adv-x="537" 
d="M467 -140q35 0 63 24v-103q-37 -26 -94 -26q-56 0 -93 32.5t-37 81.5q0 42 27.5 77.5t72.5 53.5h-63v48q-53 -60 -142 -60q-75 0 -128 47q-51 48 -51 119q0 72 51 118q51 48 128 48h124v56h-266v134h412v-377h57v-133h-2q-105 -46 -105 -98q0 -20 13 -31t33 -11zM240 100
q38 0 61.5 17t23.5 44v53h-85q-29 0 -48.5 -16t-19.5 -41q0 -24 19.5 -40.5t48.5 -16.5z" />
    <glyph glyph-name="Cacute" unicode="&#x106;" horiz-adv-x="783" 
d="M467 742h-153l100 148h183zM397 -12q-156 0 -261 102q-104 104 -104 255q0 152 104 254q104 103 261 103q135 0 232 -79q100 -78 125 -201h-164q-23 60 -75 95.5t-118 35.5q-89 0 -147 -60q-59 -59 -59 -148q0 -88 59 -149q59 -59 147 -59q66 0 118 35.5t75 95.5h164
q-25 -122 -125 -202q-97 -78 -232 -78z" />
    <glyph glyph-name="cacute" unicode="&#x107;" horiz-adv-x="597" 
d="M372 562h-153l100 148h183zM303 -12q-118 0 -197 76q-78 76 -78 191q0 113 78 190q80 77 197 77q104 0 177 -61q76 -61 92 -154h-155q-14 34 -45 54t-69 20q-54 0 -89.5 -36t-35.5 -90t35.5 -90t89.5 -36q38 0 69 20t45 54h155q-16 -93 -92 -155q-74 -60 -177 -60z" />
    <glyph glyph-name="Ccircumflex" unicode="&#x108;" horiz-adv-x="783" 
d="M447 742l-50 69l-50 -69h-137l99 148h176l98 -148h-136zM397 137q66 0 118 35.5t75 95.5h164q-25 -122 -125 -202q-97 -78 -232 -78q-156 0 -261 102q-104 104 -104 255q0 152 104 254q104 103 261 103q135 0 232 -79q100 -78 125 -201h-164q-23 60 -75 95.5t-118 35.5
q-89 0 -147 -60q-59 -59 -59 -148q0 -88 59 -149q59 -59 147 -59z" />
    <glyph glyph-name="ccircumflex" unicode="&#x109;" horiz-adv-x="597" 
d="M353 562l-50 69l-50 -69h-137l99 148h176l98 -148h-136zM303 129q38 0 69 20t45 54h155q-16 -93 -92 -155q-74 -60 -177 -60q-118 0 -197 76q-78 76 -78 191q0 113 78 190q80 77 197 77q104 0 177 -61q76 -61 92 -154h-155q-14 34 -45 54t-69 20q-54 0 -89.5 -36
t-35.5 -90t35.5 -90t89.5 -36z" />
    <glyph glyph-name="Cdotaccent" unicode="&#x10a;" horiz-adv-x="783" 
d="M397 738q-36 0 -60.5 24t-24.5 61q0 36 24.5 60t60.5 24q37 0 61 -24t24 -60q0 -37 -24 -61t-61 -24zM397 -12q-156 0 -261 102q-104 104 -104 255q0 152 104 254q104 103 261 103q135 0 232 -79q100 -78 125 -201h-164q-23 60 -75 95.5t-118 35.5q-89 0 -147 -60
q-59 -59 -59 -148q0 -88 59 -149q59 -59 147 -59q66 0 118 35.5t75 95.5h164q-25 -122 -125 -202q-97 -78 -232 -78z" />
    <glyph glyph-name="cdotaccent" unicode="&#x10b;" horiz-adv-x="597" 
d="M303 558q-36 0 -60.5 24t-24.5 61q0 36 24.5 60t60.5 24q37 0 61 -24t24 -60q0 -37 -24 -61t-61 -24zM303 -12q-118 0 -197 76q-78 76 -78 191q0 113 78 190q80 77 197 77q104 0 177 -61q76 -61 92 -154h-155q-14 34 -45 54t-69 20q-54 0 -89.5 -36t-35.5 -90t35.5 -90
t89.5 -36q38 0 69 20t45 54h155q-16 -93 -92 -155q-74 -60 -177 -60z" />
    <glyph glyph-name="Ccaron" unicode="&#x10c;" horiz-adv-x="783" 
d="M583 890l-98 -148h-176l-99 148h137l50 -69l50 69h136zM397 137q66 0 118 35.5t75 95.5h164q-25 -122 -125 -202q-97 -78 -232 -78q-156 0 -261 102q-104 104 -104 255q0 152 104 254q104 103 261 103q135 0 232 -79q100 -78 125 -201h-164q-23 60 -75 95.5t-118 35.5
q-89 0 -147 -60q-59 -59 -59 -148q0 -88 59 -149q59 -59 147 -59z" />
    <glyph glyph-name="ccaron" unicode="&#x10d;" horiz-adv-x="597" 
d="M489 710l-98 -148h-176l-99 148h137l50 -69l50 69h136zM303 129q38 0 69 20t45 54h155q-16 -93 -92 -155q-74 -60 -177 -60q-118 0 -197 76q-78 76 -78 191q0 113 78 190q80 77 197 77q104 0 177 -61q76 -61 92 -154h-155q-14 34 -45 54t-69 20q-54 0 -89.5 -36
t-35.5 -90t35.5 -90t89.5 -36z" />
    <glyph glyph-name="Dcaron" unicode="&#x10e;" horiz-adv-x="723" 
d="M540 890l-98 -148h-176l-99 148h137l50 -69l50 69h136zM66 690h272q150 0 251 -99q101 -98 101 -246t-101 -247q-101 -98 -251 -98h-272v690zM221 146h113q86 0 141 57q56 58 56 142t-56 142q-55 57 -141 57h-113v-398z" />
    <glyph glyph-name="dcaron" unicode="&#x10f;" horiz-adv-x="757" 
d="M430 454v266h146v-720h-146v56q-62 -68 -154 -68q-106 0 -176 76t-70 191q0 114 70 190q71 77 176 77q92 0 154 -68zM626 490l21 230h132l-43 -230h-110zM305 129q54 0 89.5 36t35.5 90t-35.5 90t-89.5 36q-53 0 -88.5 -36t-35.5 -90t35.5 -90t88.5 -36z" />
    <glyph glyph-name="Dcroat" unicode="&#x110;" horiz-adv-x="723" 
d="M66 690h272q150 0 251 -99q101 -98 101 -246t-101 -247q-101 -98 -251 -98h-272v292h-62v105h62v293zM221 146h113q86 0 141 57q56 58 56 142t-56 142q-55 57 -141 57h-113v-147h95v-105h-95v-146z" />
    <glyph glyph-name="dslash" unicode="&#x111;" 
d="M576 660h60v-105h-60v-555h-146v56q-62 -68 -154 -68q-106 0 -176 76t-70 191q0 114 70 190q71 77 176 77q92 0 154 -68v101h-106v105h106v60h146v-60zM305 129q54 0 89.5 36t35.5 90t-35.5 90t-89.5 36q-53 0 -88.5 -36t-35.5 -90t35.5 -90t88.5 -36z" />
    <glyph glyph-name="Emacron" unicode="&#x112;" horiz-adv-x="503" 
d="M128 874h274v-123h-274v123zM221 274v-128h248v-146h-403v690h398v-146h-243v-124h210v-146h-210z" />
    <glyph glyph-name="emacron" unicode="&#x113;" horiz-adv-x="604" 
d="M166 694h274v-123h-274v123zM578 253q0 -30 -4 -45h-390q12 -43 44.5 -68t77.5 -25q35 0 64.5 14.5t42.5 36.5h155q-29 -80 -100 -129q-70 -49 -165 -49q-118 0 -197 76q-78 76 -78 191q0 113 78 190q80 77 197 77q116 0 196 -77q79 -76 79 -192zM303 396
q-43 0 -74 -24.5t-44 -66.5h236q-11 42 -43.5 66.5t-74.5 24.5z" />
    <glyph glyph-name="Ebreve" unicode="&#x114;" horiz-adv-x="503" 
d="M99 889h113q0 -23 14.5 -38t37.5 -15t37.5 15t14.5 38h113q0 -67 -48 -112q-47 -45 -117 -45t-118 45q-47 45 -47 112zM221 274v-128h248v-146h-403v690h398v-146h-243v-124h210v-146h-210z" />
    <glyph glyph-name="ebreve" unicode="&#x115;" horiz-adv-x="604" 
d="M138 709h113q0 -23 14.5 -38t37.5 -15t37.5 15t14.5 38h113q0 -67 -48 -112q-46 -45 -117 -45q-70 0 -118 45q-47 45 -47 112zM578 253q0 -30 -4 -45h-390q12 -43 44.5 -68t77.5 -25q35 0 64.5 14.5t42.5 36.5h155q-29 -80 -100 -129q-70 -49 -165 -49q-118 0 -197 76
q-78 76 -78 191q0 113 78 190q80 77 197 77q116 0 196 -77q79 -76 79 -192zM303 396q-43 0 -74 -24.5t-44 -66.5h236q-11 42 -43.5 66.5t-74.5 24.5z" />
    <glyph glyph-name="Edotaccent" unicode="&#x116;" horiz-adv-x="503" 
d="M264 738q-36 0 -60.5 24t-24.5 61q0 36 24.5 60t60.5 24q37 0 61 -24t24 -60q0 -37 -24 -61t-61 -24zM221 274v-128h248v-146h-403v690h398v-146h-243v-124h210v-146h-210z" />
    <glyph glyph-name="edotaccent" unicode="&#x117;" horiz-adv-x="604" 
d="M302 558q-36 0 -60.5 24t-24.5 61q0 36 24.5 60t60.5 24q37 0 61 -24t24 -60q0 -37 -24 -61t-61 -24zM578 253q0 -30 -4 -45h-390q12 -43 44.5 -68t77.5 -25q35 0 64.5 14.5t42.5 36.5h155q-29 -80 -100 -129q-70 -49 -165 -49q-118 0 -197 76q-78 76 -78 191
q0 113 78 190q80 77 197 77q116 0 196 -77q79 -76 79 -192zM303 396q-43 0 -74 -24.5t-44 -66.5h236q-11 42 -43.5 66.5t-74.5 24.5z" />
    <glyph glyph-name="Eogonek" unicode="&#x118;" horiz-adv-x="503" 
d="M469 0h-6q-105 -46 -105 -98q0 -20 13 -31t33 -11q34 0 63 24v-103q-37 -26 -94 -26q-56 0 -93 32.5t-37 81.5q0 42 27.5 77.5t72.5 53.5h-277v690h398v-146h-243v-124h210v-146h-210v-128h248v-146z" />
    <glyph glyph-name="eogonek" unicode="&#x119;" horiz-adv-x="604" 
d="M578 253q0 -30 -4 -45h-390q12 -43 44.5 -68t77.5 -25q35 0 64.5 14.5t42.5 36.5h155q-39 -110 -147 -155q-70 -49 -70 -103q0 -22 14 -35.5t35 -13.5q36 0 62 26v-103q-34 -27 -96 -27q-58 0 -96 34.5t-38 87.5q0 61 48 112q-108 7 -181 83q-71 76 -71 183q0 113 78 190
q80 77 197 77q116 0 196 -77q79 -76 79 -192zM303 396q-43 0 -74 -24.5t-44 -66.5h236q-11 42 -43.5 66.5t-74.5 24.5z" />
    <glyph glyph-name="Ecaron" unicode="&#x11a;" horiz-adv-x="503" 
d="M451 890l-98 -148h-176l-99 148h137l50 -69l50 69h136zM221 274v-128h248v-146h-403v690h398v-146h-243v-124h210v-146h-210z" />
    <glyph glyph-name="ecaron" unicode="&#x11b;" horiz-adv-x="604" 
d="M489 710l-98 -148h-176l-99 148h137l50 -69l50 69h136zM578 253q0 -30 -4 -45h-390q12 -43 44.5 -68t77.5 -25q35 0 64.5 14.5t42.5 36.5h155q-29 -80 -100 -129q-70 -49 -165 -49q-118 0 -197 76q-78 76 -78 191q0 113 78 190q80 77 197 77q116 0 196 -77
q79 -76 79 -192zM303 396q-43 0 -74 -24.5t-44 -66.5h236q-11 42 -43.5 66.5t-74.5 24.5z" />
    <glyph glyph-name="Gcircumflex" unicode="&#x11c;" horiz-adv-x="805" 
d="M447 742l-50 69l-50 -69h-137l99 148h176l98 -148h-136zM404 255v140h350v-395h-135v72q-75 -84 -222 -84q-156 0 -261 102q-104 104 -104 255q0 152 104 254q104 103 261 103q125 0 220 -68q97 -68 122 -172h-173q-24 42 -69 66.5t-100 24.5q-89 0 -147 -60
q-59 -59 -59 -148q0 -88 59 -149q59 -59 147 -59q65 0 115.5 32t71.5 86h-180z" />
    <glyph glyph-name="gcircumflex" unicode="&#x11d;" 
d="M371 562l-50 69l-50 -69h-137l99 148h176l98 -148h-136zM430 455v55h146v-700h-496v133h350v129q-61 -67 -154 -67q-105 0 -176 74q-70 73 -70 185q0 111 70 184q71 74 176 74q93 0 154 -67zM215 174q36 -36 90 -36q55 0 89 36q36 36 36 90t-36 90q-34 36 -89 36
q-54 0 -90 -36q-35 -37 -35 -90t35 -90z" />
    <glyph glyph-name="Gbreve" unicode="&#x11e;" horiz-adv-x="805" 
d="M232 889h113q0 -23 14.5 -38t37.5 -15t37.5 15t14.5 38h113q0 -67 -48 -112q-46 -45 -117 -45q-70 0 -118 45q-47 45 -47 112zM404 255v140h350v-395h-135v72q-75 -84 -222 -84q-156 0 -261 102q-104 104 -104 255q0 152 104 254q104 103 261 103q125 0 220 -68
q97 -68 122 -172h-173q-24 42 -69 66.5t-100 24.5q-89 0 -147 -60q-59 -59 -59 -148q0 -88 59 -149q59 -59 147 -59q65 0 115.5 32t71.5 86h-180z" />
    <glyph glyph-name="gbreve" unicode="&#x11f;" 
d="M155 709h113q0 -23 14.5 -38t37.5 -15t37.5 15t14.5 38h113q0 -67 -48 -112q-47 -45 -117 -45t-118 45q-47 45 -47 112zM430 455v55h146v-700h-496v133h350v129q-61 -67 -154 -67q-105 0 -176 74q-70 73 -70 185q0 111 70 184q71 74 176 74q93 0 154 -67zM215 174
q36 -36 90 -36q55 0 89 36q36 36 36 90t-36 90q-34 36 -89 36q-54 0 -90 -36q-35 -37 -35 -90t35 -90z" />
    <glyph glyph-name="Gdotaccent" unicode="&#x120;" horiz-adv-x="805" 
d="M397 738q-36 0 -60.5 24t-24.5 61q0 36 24.5 60t60.5 24q37 0 61 -24t24 -60q0 -37 -24 -61t-61 -24zM404 255v140h350v-395h-135v72q-75 -84 -222 -84q-156 0 -261 102q-104 104 -104 255q0 152 104 254q104 103 261 103q125 0 220 -68q97 -68 122 -172h-173
q-24 42 -69 66.5t-100 24.5q-89 0 -147 -60q-59 -59 -59 -148q0 -88 59 -149q59 -59 147 -59q65 0 115.5 32t71.5 86h-180z" />
    <glyph glyph-name="gdotaccent" unicode="&#x121;" 
d="M320 558q-36 0 -60.5 24t-24.5 61q0 36 24.5 60t60.5 24q37 0 61 -24t24 -60q0 -37 -24 -61t-61 -24zM430 455v55h146v-700h-496v133h350v129q-61 -67 -154 -67q-105 0 -176 74q-70 73 -70 185q0 111 70 184q71 74 176 74q93 0 154 -67zM215 174q36 -36 90 -36
q55 0 89 36q36 36 36 90t-36 90q-34 36 -89 36q-54 0 -90 -36q-35 -37 -35 -90t35 -90z" />
    <glyph glyph-name="uni0122" unicode="&#x122;" horiz-adv-x="805" 
d="M404 255v140h350v-395h-135v72q-75 -84 -222 -84q-156 0 -261 102q-104 104 -104 255q0 152 104 254q104 103 261 103q125 0 220 -68q97 -68 122 -172h-173q-24 42 -69 66.5t-100 24.5q-89 0 -147 -60q-59 -59 -59 -148q0 -88 59 -149q59 -59 147 -59q65 0 115.5 32
t71.5 86h-180zM414 -227h-120l43 175h150z" />
    <glyph glyph-name="uni0123" unicode="&#x123;" 
d="M297 736h120l-43 -176h-150zM430 455v55h146v-700h-496v133h350v129q-61 -67 -154 -67q-105 0 -176 74q-70 73 -70 185q0 111 70 184q71 74 176 74q93 0 154 -67zM215 174q36 -36 90 -36q55 0 89 36q36 36 36 90t-36 90q-34 36 -89 36q-54 0 -90 -36q-35 -37 -35 -90
t35 -90z" />
    <glyph glyph-name="Hcircumflex" unicode="&#x124;" horiz-adv-x="719" 
d="M411 742l-50 69l-50 -69h-137l99 148h176l98 -148h-136zM498 420v270h155v-690h-155v274h-277v-274h-155v690h155v-270h277z" />
    <glyph glyph-name="hcircumflex" unicode="&#x125;" horiz-adv-x="612" 
d="M181 758l-50 69l-50 -69h-137l99 148h176l98 -148h-136zM204 720v-210h350v-510h-146v369h-204v-369h-146v720h146z" />
    <glyph glyph-name="Hbar" unicode="&#x126;" horiz-adv-x="719" 
d="M653 599h55v-106h-55v-493h-155v274h-277v-274h-155v493h-54v106h54v91h155v-91h277v91h155v-91zM221 420h277v73h-277v-73z" />
    <glyph glyph-name="hbar" unicode="&#x127;" horiz-adv-x="612" 
d="M204 555v-45h350v-510h-146v369h-204v-369h-146v555h-59v105h59v60h146v-60h107v-105h-107z" />
    <glyph glyph-name="Itilde" unicode="&#x128;" horiz-adv-x="391" 
d="M150 785q-15 0 -25 -10t-10 -25h-102q0 67 31.5 108.5t86.5 41.5q31 0 65 -19q34 -18 46 -18q15 0 24.5 10t9.5 25h103q0 -68 -31.5 -109t-87.5 -41q-30 0 -65 18q-32 19 -45 19zM118 544h-85v146h325v-146h-85v-398h85v-146h-325v146h85v398z" />
    <glyph glyph-name="itilde" unicode="&#x129;" horiz-adv-x="262" 
d="M195 568q-31 0 -65 18q-32 19 -45 19q-15 0 -25 -10t-10 -25h-102q0 67 31.5 108.5t86.5 41.5q31 0 65 -19q34 -18 46 -18q15 0 24.5 10t9.5 25h103q0 -68 -31.5 -109t-87.5 -41zM204 0h-146v510h146v-510z" />
    <glyph glyph-name="Imacron" unicode="&#x12a;" horiz-adv-x="391" 
d="M59 874h274v-123h-274v123zM358 690v-146h-85v-398h85v-146h-325v146h85v398h-85v146h325z" />
    <glyph glyph-name="imacron" unicode="&#x12b;" horiz-adv-x="262" 
d="M268 571h-274v123h274v-123zM204 0h-146v510h146v-510z" />
    <glyph glyph-name="Ibreve" unicode="&#x12c;" horiz-adv-x="391" 
d="M31 889h113q0 -23 14.5 -38t37.5 -15t37.5 15t14.5 38h113q0 -67 -48 -112q-47 -45 -117 -45t-118 45q-47 45 -47 112zM118 544h-85v146h325v-146h-85v-398h85v-146h-325v146h85v398z" />
    <glyph glyph-name="ibreve" unicode="&#x12d;" horiz-adv-x="262" 
d="M-34 709h113q0 -23 14.5 -38t37.5 -15t37.5 15t14.5 38h113q0 -67 -48 -112q-46 -45 -117 -45q-70 0 -118 45q-47 45 -47 112zM204 0h-146v510h146v-510z" />
    <glyph glyph-name="Iogonek" unicode="&#x12e;" horiz-adv-x="391" 
d="M298 -140q34 0 63 24v-103q-37 -26 -94 -26q-56 0 -93 32.5t-37 81.5q0 42 27.5 77.5t72.5 53.5h-204v146h85v398h-85v146h325v-146h-85v-398h85v-146h-1q-105 -46 -105 -98q0 -20 13 -31t33 -11z" />
    <glyph glyph-name="iogonek" unicode="&#x12f;" horiz-adv-x="262" 
d="M131 558q-36 0 -60.5 24t-24.5 61q0 36 24.5 60t60.5 24q37 0 61 -24t24 -60q0 -37 -24 -61t-61 -24zM98 -98q0 -20 13 -31t33 -11q34 0 63 24v-103q-37 -26 -94 -26q-56 0 -93 32.5t-37 81.5q0 42 27.5 77.5t72.5 53.5h-25v510h146v-510h-1q-105 -46 -105 -98z" />
    <glyph glyph-name="Idot" unicode="&#x130;" horiz-adv-x="391" 
d="M196 738q-36 0 -60.5 24t-24.5 61q0 36 24.5 60t60.5 24q37 0 61 -24t24 -60q0 -37 -24 -61t-61 -24zM358 690v-146h-85v-398h85v-146h-325v146h85v398h-85v146h325z" />
    <glyph glyph-name="dotlessi" unicode="&#x131;" horiz-adv-x="262" 
d="M204 0h-146v510h146v-510z" />
    <glyph glyph-name="IJ" unicode="&#x132;" horiz-adv-x="862" 
d="M118 544h-85v146h325v-146h-85v-398h85v-146h-325v146h85v398zM641 146v544h155v-690h-373v146h218z" />
    <glyph glyph-name="ij" unicode="&#x133;" horiz-adv-x="529" 
d="M131 754q39 0 65 -25.5t26 -63.5q0 -39 -26 -64.5t-65 -25.5q-38 0 -64 25.5t-26 64.5q0 38 26 63.5t64 25.5zM398 575q-39 0 -65 25.5t-26 64.5q0 38 26 63.5t65 25.5q38 0 64 -25.5t26 -63.5q0 -39 -26 -64.5t-64 -25.5zM204 0h-146v510h146v-510zM244 -69h81v579h146
v-712h-227v133z" />
    <glyph glyph-name="Jcircumflex" unicode="&#x134;" horiz-adv-x="461" 
d="M367 742l-50 69l-50 -69h-137l99 148h176l98 -148h-136zM22 146h218v544h155v-690h-373v146z" />
    <glyph glyph-name="jcircumflex" unicode="&#x135;" horiz-adv-x="267" 
d="M186 562l-50 69l-50 -69h-137l99 148h176l98 -148h-136zM-18 -69h81v579h146v-712h-227v133z" />
    <glyph glyph-name="uni0136" unicode="&#x136;" horiz-adv-x="650" 
d="M649 690l-244 -341l250 -349h-193l-189 274h-52v-274h-155v690h155v-270h53l186 270h189zM344 -227h-120l43 175h150z" />
    <glyph glyph-name="uni0137" unicode="&#x137;" horiz-adv-x="548" 
d="M253 190h-49v-190h-146v720h146v-396h51l114 186h175l-169 -253l176 -257h-178zM306 -227h-120l43 175h150z" />
    <glyph glyph-name="Lacute" unicode="&#x139;" horiz-adv-x="461" 
d="M160 890h183l-130 -148h-153zM221 690v-544h218v-146h-373v690h155z" />
    <glyph glyph-name="lacute" unicode="&#x13a;" horiz-adv-x="298" 
d="M148 906h183l-130 -148h-153zM58 720h146v-587h82v-133h-228v720z" />
    <glyph glyph-name="uni013B" unicode="&#x13b;" horiz-adv-x="461" 
d="M221 690v-544h218v-146h-373v690h155zM266 -227h-120l43 175h150z" />
    <glyph glyph-name="uni013C" unicode="&#x13c;" horiz-adv-x="298" 
d="M204 720v-587h82v-133h-228v720h146zM172 -227h-120l43 175h150z" />
    <glyph glyph-name="Lcaron" unicode="&#x13d;" horiz-adv-x="483" 
d="M66 690h155v-544h218v-146h-373v690zM307 690h132l-43 -230h-110z" />
    <glyph glyph-name="lcaron" unicode="&#x13e;" horiz-adv-x="386" 
d="M58 720h146v-587h82v-133h-228v720zM255 490l21 230h131l-43 -230h-109z" />
    <glyph glyph-name="Ldot" unicode="&#x13f;" horiz-adv-x="495" 
d="M66 690h155v-544h218v-146h-373v690zM428 297q-25 -25 -63 -25q-39 0 -64 25t-25 64q0 38 25 63q26 26 64 26q37 0 63 -26t26 -63q0 -38 -26 -64z" />
    <glyph glyph-name="ldot" unicode="&#x140;" horiz-adv-x="438" 
d="M58 720h146v-587h82v-133h-228v720zM273 423q26 26 64 26q37 0 63 -26t26 -63q0 -38 -26 -64q-25 -25 -63 -25q-39 0 -64 25t-25 64q0 38 25 63z" />
    <glyph glyph-name="Lslash" unicode="&#x141;" horiz-adv-x="461" 
d="M221 310v-164h218v-146h-373v224l-57 -31v141l57 31v325h155v-240l102 56v-140z" />
    <glyph glyph-name="lslash" unicode="&#x142;" horiz-adv-x="358" 
d="M241 332v-199h83v-133h-229v251l-69 -38v132l69 38v337h146v-256l77 43v-132z" />
    <glyph glyph-name="Nacute" unicode="&#x143;" horiz-adv-x="729" 
d="M385 890h183l-130 -148h-153zM509 268v422h155v-690h-157l-286 422v-422h-155v690h156z" />
    <glyph glyph-name="nacute" unicode="&#x144;" horiz-adv-x="612" 
d="M324 710h183l-130 -148h-153zM58 510h496v-510h-146v369h-204v-369h-146v510z" />
    <glyph glyph-name="uni0145" unicode="&#x145;" horiz-adv-x="729" 
d="M509 268v422h155v-690h-157l-286 422v-422h-155v690h156zM382 -227h-120l43 175h150z" />
    <glyph glyph-name="uni0146" unicode="&#x146;" horiz-adv-x="612" 
d="M58 510h496v-510h-146v369h-204v-369h-146v510zM323 -227h-120l43 175h150z" />
    <glyph glyph-name="Ncaron" unicode="&#x147;" horiz-adv-x="729" 
d="M555 890l-98 -148h-176l-99 148h137l50 -69l50 69h136zM509 268v422h155v-690h-157l-286 422v-422h-155v690h156z" />
    <glyph glyph-name="ncaron" unicode="&#x148;" horiz-adv-x="612" 
d="M494 710l-98 -148h-176l-99 148h137l50 -69l50 69h136zM58 510h496v-510h-146v369h-204v-369h-146v510z" />
    <glyph glyph-name="Eng" unicode="&#x14a;" horiz-adv-x="729" 
d="M509 690h155v-690h-1v-20q0 -188 -213 -188v142q58 0 58 51v15h-1l-286 422v-422h-155v690h156l287 -422v422z" />
    <glyph glyph-name="eng" unicode="&#x14b;" horiz-adv-x="612" 
d="M58 510h496v-530q0 -188 -209 -188v141q63 0 63 52v384h-204v-369h-146v510z" />
    <glyph glyph-name="Omacron" unicode="&#x14c;" horiz-adv-x="794" 
d="M534 751h-274v123h274v-123zM657 90q-103 -102 -260 -102q-156 0 -261 102q-104 104 -104 255q0 152 104 254q104 103 261 103t260 -103q105 -102 105 -254q0 -151 -105 -255zM250 196q59 -59 147 -59t147 59q59 61 59 149q0 89 -59 148q-58 60 -147 60t-147 -60
q-59 -59 -59 -148q0 -88 59 -149z" />
    <glyph glyph-name="omacron" unicode="&#x14d;" horiz-adv-x="606" 
d="M440 571h-274v123h274v-123zM499 64q-77 -76 -196 -76q-118 0 -197 76q-78 76 -78 191q0 113 78 190q80 77 197 77t196 -77q79 -76 79 -190q0 -115 -79 -191zM213 165q36 -36 90 -36q55 0 89 36q36 36 36 90t-36 90q-35 36 -89 36t-90 -36q-35 -37 -35 -90t35 -90z" />
    <glyph glyph-name="Obreve" unicode="&#x14e;" horiz-adv-x="794" 
d="M232 889h113q0 -23 14.5 -38t37.5 -15t37.5 15t14.5 38h113q0 -67 -48 -112q-46 -45 -117 -45q-70 0 -118 45q-47 45 -47 112zM657 90q-103 -102 -260 -102q-156 0 -261 102q-104 104 -104 255q0 152 104 254q104 103 261 103t260 -103q105 -102 105 -254
q0 -151 -105 -255zM250 196q59 -59 147 -59t147 59q59 61 59 149q0 89 -59 148q-58 60 -147 60t-147 -60q-59 -59 -59 -148q0 -88 59 -149z" />
    <glyph glyph-name="obreve" unicode="&#x14f;" horiz-adv-x="606" 
d="M138 709h113q0 -23 14.5 -38t37.5 -15t37.5 15t14.5 38h113q0 -67 -48 -112q-46 -45 -117 -45q-70 0 -118 45q-47 45 -47 112zM499 64q-77 -76 -196 -76q-118 0 -197 76q-78 76 -78 191q0 113 78 190q80 77 197 77t196 -77q79 -76 79 -190q0 -115 -79 -191zM213 165
q36 -36 90 -36q55 0 89 36q36 36 36 90t-36 90q-35 36 -89 36t-90 -36q-35 -37 -35 -90t35 -90z" />
    <glyph glyph-name="Ohungarumlaut" unicode="&#x150;" horiz-adv-x="794" 
d="M352 742h-141l86 148h159zM575 742h-140l86 148h158zM657 90q-103 -102 -260 -102q-156 0 -261 102q-104 104 -104 255q0 152 104 254q104 103 261 103t260 -103q105 -102 105 -254q0 -151 -105 -255zM250 196q59 -59 147 -59t147 59q59 61 59 149q0 89 -59 148
q-58 60 -147 60t-147 -60q-59 -59 -59 -148q0 -88 59 -149z" />
    <glyph glyph-name="ohungarumlaut" unicode="&#x151;" horiz-adv-x="606" 
d="M258 562h-141l86 148h159zM481 562h-140l86 148h158zM499 64q-77 -76 -196 -76q-118 0 -197 76q-78 76 -78 191q0 113 78 190q80 77 197 77t196 -77q79 -76 79 -190q0 -115 -79 -191zM213 165q36 -36 90 -36q55 0 89 36q36 36 36 90t-36 90q-35 36 -89 36t-90 -36
q-35 -37 -35 -90t35 -90z" />
    <glyph glyph-name="OE" unicode="&#x152;" horiz-adv-x="867" 
d="M585 274v-128h248v-146h-448q-151 0 -252 98q-101 99 -101 247t101 246q101 99 252 99h443v-146h-243v-124h211v-146h-211zM388 146h42v398h-42q-84 0 -141 -57q-56 -58 -56 -142t56 -142q57 -57 141 -57z" />
    <glyph glyph-name="oe" unicode="&#x153;" horiz-adv-x="1004" 
d="M978 253q0 -30 -4 -45h-390q12 -43 44.5 -68t77.5 -25q35 0 65 14.5t42 36.5h155q-25 -78 -97 -128q-71 -50 -162 -50q-133 0 -206 102q-73 -102 -207 -102q-115 0 -191 76q-77 77 -77 191q0 113 77 190t191 77q134 0 207 -102q73 102 207 102q114 0 191 -77t77 -192z
M585 305h236q-11 41 -43.5 65.5t-74.5 24.5t-73.5 -24.5t-44.5 -65.5zM303 129q53 0 88.5 36t35.5 90t-35.5 90t-88.5 36q-54 0 -89.5 -36t-35.5 -90t35.5 -90t89.5 -36z" />
    <glyph glyph-name="Racute" unicode="&#x154;" horiz-adv-x="585" 
d="M305 890h183l-130 -148h-153zM572 0h-186l-118 236h-47v-236h-155v690h247q103 0 171 -66q69 -66 69 -165q0 -66 -33.5 -118.5t-90.5 -79.5zM310 544h-89v-173h89q36 0 60 24.5t24 61.5t-24 62t-60 25z" />
    <glyph glyph-name="racute" unicode="&#x155;" horiz-adv-x="364" 
d="M219 710h183l-130 -148h-153zM58 510h288v-144h-142v-366h-146v510z" />
    <glyph glyph-name="uni0156" unicode="&#x156;" horiz-adv-x="585" 
d="M268 236h-47v-236h-155v690h247q103 0 171 -66q69 -66 69 -165q0 -66 -33.5 -118.5t-90.5 -79.5l143 -261h-186zM310 544h-89v-173h89q36 0 60 24.5t24 61.5t-24 62t-60 25zM315 -227h-120l43 175h150z" />
    <glyph glyph-name="uni0157" unicode="&#x157;" horiz-adv-x="364" 
d="M58 510h288v-144h-142v-366h-146v510zM148 -227h-120l43 175h150z" />
    <glyph glyph-name="Rcaron" unicode="&#x158;" horiz-adv-x="585" 
d="M475 890l-98 -148h-176l-99 148h137l50 -69l50 69h136zM572 0h-186l-118 236h-47v-236h-155v690h247q103 0 171 -66q69 -66 69 -165q0 -66 -33.5 -118.5t-90.5 -79.5zM310 544h-89v-173h89q36 0 60 24.5t24 61.5t-24 62t-60 25z" />
    <glyph glyph-name="rcaron" unicode="&#x159;" horiz-adv-x="364" 
d="M389 710l-98 -148h-176l-99 148h137l50 -69l50 69h136zM58 510h288v-144h-142v-366h-146v510z" />
    <glyph glyph-name="Sacute" unicode="&#x15a;" horiz-adv-x="549" 
d="M344 742h-153l100 148h183zM31 207h159q0 -34 25 -57.5t62 -23.5q35 0 58.5 19t23.5 47q0 57 -122 89q-86 23 -141 73q-55 52 -55 143q0 87 66 146q68 59 166 59q101 0 168 -60t67 -150h-159q0 31 -21.5 51.5t-54.5 20.5q-31 0 -52 -17.5t-21 -43.5q0 -56 113 -86
q87 -24 141 -67q64 -50 64 -148q0 -92 -70 -153q-68 -61 -173 -61q-103 0 -174 62q-70 63 -70 157z" />
    <glyph glyph-name="sacute" unicode="&#x15b;" horiz-adv-x="451" 
d="M294 562h-153l100 148h183zM226 -12q-85 0 -142 48q-57 50 -57 119h146q0 -21 16 -36t38 -15q21 0 35.5 11.5t14.5 27.5q0 38 -82 56q-161 38 -161 162q0 75 55 118t135 43q81 0 137 -47q55 -46 55 -113h-146q0 18 -13.5 31t-33.5 13q-18 0 -30.5 -10.5t-12.5 -24.5
q0 -38 85 -57q67 -17 107 -47q51 -37 51 -111q0 -78 -57 -123q-56 -45 -140 -45z" />
    <glyph glyph-name="Scircumflex" unicode="&#x15c;" horiz-adv-x="549" 
d="M325 742l-50 69l-50 -69h-137l99 148h176l98 -148h-136zM313 417q87 -24 141 -67q64 -50 64 -148q0 -92 -70 -153q-68 -61 -173 -61q-103 0 -174 62q-70 63 -70 157h159q0 -34 25 -57.5t62 -23.5q35 0 58.5 19t23.5 47q0 57 -122 89q-86 23 -141 73q-55 52 -55 143
q0 87 66 146q68 59 166 59q101 0 168 -60t67 -150h-159q0 31 -21.5 51.5t-54.5 20.5q-31 0 -52 -17.5t-21 -43.5q0 -56 113 -86z" />
    <glyph glyph-name="scircumflex" unicode="&#x15d;" horiz-adv-x="451" 
d="M275 562l-50 69l-50 -69h-137l99 148h176l98 -148h-136zM265 314q67 -17 107 -47q51 -37 51 -111q0 -78 -57 -123q-56 -45 -140 -45q-85 0 -142 48q-57 50 -57 119h146q0 -21 16 -36t38 -15q21 0 35.5 11.5t14.5 27.5q0 38 -82 56q-161 38 -161 162q0 75 55 118t135 43
q81 0 137 -47q55 -46 55 -113h-146q0 18 -13.5 31t-33.5 13q-18 0 -30.5 -10.5t-12.5 -24.5q0 -38 85 -57z" />
    <glyph glyph-name="Scedilla" unicode="&#x15e;" horiz-adv-x="549" 
d="M518 202q0 -78 -53 -137q-53 -57 -138 -72l-18 -22q41 -4 67.5 -34.5t26.5 -73.5q0 -48 -35.5 -81t-88.5 -33t-88.5 33t-35.5 81h87q0 -24 23 -32.5t40 7.5q18 16 8 38t-34 22q-19 0 -29 -13l-81 36l57 71q-84 13 -141 73q-54 60 -54 142h159q0 -34 25 -57.5t62 -23.5
q35 0 58.5 19t23.5 47q0 57 -122 89q-86 23 -141 73q-55 52 -55 143q0 87 66 146q68 59 166 59q101 0 168 -60t67 -150h-159q0 31 -21.5 51.5t-54.5 20.5q-31 0 -52 -17.5t-21 -43.5q0 -56 113 -86q87 -24 141 -67q64 -50 64 -148z" />
    <glyph glyph-name="scedilla" unicode="&#x15f;" horiz-adv-x="451" 
d="M423 156q0 -64 -39.5 -107t-106.5 -56l-19 -22q41 -4 67.5 -34.5t26.5 -73.5q0 -48 -35.5 -81t-88.5 -33t-88.5 33t-35.5 81h87q0 -24 23 -32.5t40 7.5q18 16 8 38t-34 22q-19 0 -29 -13l-81 36l58 72q-65 13 -108 59q-41 46 -41 103h146q0 -21 16 -36t38 -15
q21 0 35.5 11.5t14.5 27.5q0 38 -82 56q-161 38 -161 162q0 75 55 118t135 43q81 0 137 -47q55 -46 55 -113h-146q0 18 -13.5 31t-33.5 13q-18 0 -30.5 -10.5t-12.5 -24.5q0 -38 85 -57q67 -17 107 -47q51 -37 51 -111z" />
    <glyph glyph-name="Scaron" unicode="&#x160;" horiz-adv-x="549" 
d="M461 890l-98 -148h-176l-99 148h137l50 -69l50 69h136zM313 417q87 -24 141 -67q64 -50 64 -148q0 -92 -70 -153q-68 -61 -173 -61q-103 0 -174 62q-70 63 -70 157h159q0 -34 25 -57.5t62 -23.5q35 0 58.5 19t23.5 47q0 57 -122 89q-86 23 -141 73q-55 52 -55 143
q0 87 66 146q68 59 166 59q101 0 168 -60t67 -150h-159q0 31 -21.5 51.5t-54.5 20.5q-31 0 -52 -17.5t-21 -43.5q0 -56 113 -86z" />
    <glyph glyph-name="scaron" unicode="&#x161;" horiz-adv-x="451" 
d="M411 710l-98 -148h-176l-99 148h137l50 -69l50 69h136zM265 314q67 -17 107 -47q51 -37 51 -111q0 -78 -57 -123q-56 -45 -140 -45q-85 0 -142 48q-57 50 -57 119h146q0 -21 16 -36t38 -15q21 0 35.5 11.5t14.5 27.5q0 38 -82 56q-161 38 -161 162q0 75 55 118t135 43
q81 0 137 -47q55 -46 55 -113h-146q0 18 -13.5 31t-33.5 13q-18 0 -30.5 -10.5t-12.5 -24.5q0 -38 85 -57z" />
    <glyph glyph-name="uni0162" unicode="&#x162;" horiz-adv-x="547" 
d="M351 544v-544h-26l-24 -28q41 -4 67.5 -34.5t26.5 -73.5q0 -48 -35.5 -81t-88.5 -33t-88.5 33t-35.5 81h87q0 -24 23 -32.5t40 7.5q18 17 8 38.5t-34 21.5q-19 0 -29 -13l-81 36l63 78h-28v544h-171v146h497v-146h-171z" />
    <glyph glyph-name="uni0163" unicode="&#x163;" horiz-adv-x="409" 
d="M378 510v-133h-121v-244h121v-133h-88l-24 -28q41 -4 67.5 -34.5t26.5 -73.5q0 -48 -35.5 -81t-88.5 -33t-88.5 33t-35.5 81h87q0 -24 23 -32.5t40 7.5q18 17 8 38.5t-34 21.5q-19 0 -29 -13l-81 36l63 78h-78v377h-89v133h89v150h146v-150h121z" />
    <glyph glyph-name="Tcaron" unicode="&#x164;" horiz-adv-x="547" 
d="M460 890l-98 -148h-176l-99 148h137l50 -69l50 69h136zM25 690h497v-146h-171v-544h-155v544h-171v146z" />
    <glyph glyph-name="tcaron" unicode="&#x165;" horiz-adv-x="409" 
d="M298 560l21 230h132l-43 -230h-110zM111 660h146v-150h121v-133h-121v-244h121v-133h-267v377h-89v133h89v150z" />
    <glyph glyph-name="Tbar" unicode="&#x166;" horiz-adv-x="547" 
d="M522 690v-146h-171v-179h79v-105h-79v-260h-155v260h-78v105h78v179h-171v146h497z" />
    <glyph glyph-name="tbar" unicode="&#x167;" horiz-adv-x="409" 
d="M378 510v-133h-121v-65h91v-105h-91v-74h121v-133h-267v207h-75v105h75v65h-89v133h89v150h146v-150h121z" />
    <glyph glyph-name="Utilde" unicode="&#x168;" horiz-adv-x="707" 
d="M307 785q-15 0 -25 -10t-10 -25h-102q0 67 31.5 108.5t86.5 41.5q31 0 65 -19q35 -18 46 -18q15 0 24.5 10t9.5 25h103q0 -68 -31.5 -109t-87.5 -41q-31 0 -65 18q-32 19 -45 19zM487 146v544h155v-690h-576v690h155v-544h266z" />
    <glyph glyph-name="utilde" unicode="&#x169;" horiz-adv-x="599" 
d="M253 605q-15 0 -25 -10t-10 -25h-102q0 67 31.5 108.5t86.5 41.5q31 0 65 -19q35 -18 46 -18q15 0 24.5 10t9.5 25h103q0 -68 -31.5 -109t-87.5 -41q-31 0 -65 18q-32 19 -45 19zM394 141v369h146v-510h-482v510h146v-369h190z" />
    <glyph glyph-name="Umacron" unicode="&#x16a;" horiz-adv-x="707" 
d="M217 874h274v-123h-274v123zM487 146v544h155v-690h-576v690h155v-544h266z" />
    <glyph glyph-name="umacron" unicode="&#x16b;" horiz-adv-x="599" 
d="M162 694h274v-123h-274v123zM394 141v369h146v-510h-482v510h146v-369h190z" />
    <glyph glyph-name="Ubreve" unicode="&#x16c;" horiz-adv-x="707" 
d="M189 889h113q0 -23 14.5 -38t37.5 -15t37.5 15t14.5 38h113q0 -67 -48 -112q-47 -45 -117 -45t-118 45q-47 45 -47 112zM487 146v544h155v-690h-576v690h155v-544h266z" />
    <glyph glyph-name="ubreve" unicode="&#x16d;" horiz-adv-x="599" 
d="M134 709h113q0 -23 14.5 -38t37.5 -15t37.5 15t14.5 38h113q0 -67 -48 -112q-46 -45 -117 -45q-70 0 -118 45q-47 45 -47 112zM394 141v369h146v-510h-482v510h146v-369h190z" />
    <glyph glyph-name="Uring" unicode="&#x16e;" horiz-adv-x="707" 
d="M431 761q-31 -30 -77 -30t-77 30t-31 75t31 75q32 30 77 30q46 0 77 -30t31 -75t-31 -75zM377 859q-9 10 -23 10t-23 -10q-9 -9 -9 -23t9 -24q9 -9 23 -9t23 9q9 10 9 24t-9 23zM487 146v544h155v-690h-576v690h155v-544h266z" />
    <glyph glyph-name="uring" unicode="&#x16f;" horiz-adv-x="599" 
d="M376 581q-32 -30 -77 -30t-77 30q-31 30 -31 75t31 75q32 30 77 30t77 -30q31 -30 31 -75t-31 -75zM322 679q-9 10 -23 10t-23 -10q-9 -9 -9 -23t9 -24q9 -9 23 -9t23 9q9 10 9 24t-9 23zM394 141v369h146v-510h-482v510h146v-369h190z" />
    <glyph glyph-name="Uhungarumlaut" unicode="&#x170;" horiz-adv-x="707" 
d="M253 890h159l-104 -148h-141zM635 890l-104 -148h-140l86 148h158zM487 146v544h155v-690h-576v690h155v-544h266z" />
    <glyph glyph-name="uhungarumlaut" unicode="&#x171;" horiz-adv-x="599" 
d="M199 710h159l-104 -148h-141zM581 710l-104 -148h-140l86 148h158zM204 141h190v369h146v-510h-482v510h146v-369z" />
    <glyph glyph-name="Uogonek" unicode="&#x172;" horiz-adv-x="707" 
d="M642 0h-196q-72 -39 -72 -82q0 -20 13 -31t33 -11q34 0 63 24v-103q-37 -26 -94 -26q-56 0 -93 32.5t-37 81.5q0 70 70 115h-263v690h155v-544h266v544h155v-690z" />
    <glyph glyph-name="uogonek" unicode="&#x173;" horiz-adv-x="599" 
d="M480 -140q34 0 63 24v-103q-37 -26 -94 -26q-56 0 -93 32.5t-37 81.5q0 42 27.5 77.5t72.5 53.5h-361v510h146v-369h190v369h146v-510h-1q-105 -46 -105 -98q0 -20 13 -31t33 -11z" />
    <glyph glyph-name="Wcircumflex" unicode="&#x174;" horiz-adv-x="1112" 
d="M607 742l-50 69l-50 -69h-137l99 148h176l98 -148h-136zM783 211l152 479h168l-245 -690h-155l-146 454l-147 -454h-156l-244 690h171l153 -479l154 479h140z" />
    <glyph glyph-name="wcircumflex" unicode="&#x175;" horiz-adv-x="874" 
d="M489 562l-50 69l-50 -69h-137l99 148h176l98 -148h-136zM613 189l94 321h163l-182 -510h-150l-100 333l-101 -333h-150l-182 510h166l94 -323l100 323h149z" />
    <glyph glyph-name="Ycircumflex" unicode="&#x176;" horiz-adv-x="677" 
d="M389 742l-50 69l-50 -69h-137l99 148h176l98 -148h-136zM340 396l167 294h173l-264 -453v-237h-155v237l-264 453h176z" />
    <glyph glyph-name="ycircumflex" unicode="&#x177;" horiz-adv-x="569" 
d="M337 562l-50 69l-50 -69h-137l99 148h176l98 -148h-136zM287 186l117 324h163l-285 -700h-201v133h99l26 64l-204 503h167z" />
    <glyph glyph-name="Ydieresis" unicode="&#x178;" horiz-adv-x="677" 
d="M148 819q0 34 23 57t58 23t58 -23t23 -57q0 -35 -23 -58t-58 -23t-58 23t-23 58zM367 819q0 34 23 57t58 23t58 -23t23 -57q0 -35 -23.5 -58t-57.5 -23t-57.5 23t-23.5 58zM340 396l167 294h173l-264 -453v-237h-155v237l-264 453h176z" />
    <glyph glyph-name="Zacute" unicode="&#x179;" horiz-adv-x="614" 
d="M322 890h183l-130 -148h-153zM573 579l-326 -433h333v-146h-546v111l326 433h-322v146h535v-111z" />
    <glyph glyph-name="zacute" unicode="&#x17a;" horiz-adv-x="496" 
d="M264 710h183l-130 -148h-153zM454 404l-213 -263h220v-141h-426v106l213 263h-209v141h415v-106z" />
    <glyph glyph-name="Zdotaccent" unicode="&#x17b;" horiz-adv-x="614" 
d="M306 738q-36 0 -60.5 24t-24.5 61q0 36 24.5 60t60.5 24q37 0 61 -24t24 -60q0 -37 -24 -61t-61 -24zM573 579l-326 -433h333v-146h-546v111l326 433h-322v146h535v-111z" />
    <glyph glyph-name="zdotaccent" unicode="&#x17c;" horiz-adv-x="496" 
d="M248 558q-36 0 -60.5 24t-24.5 61q0 36 24.5 60t60.5 24q37 0 61 -24t24 -60q0 -37 -24 -61t-61 -24zM454 404l-213 -263h220v-141h-426v106l213 263h-209v141h415v-106z" />
    <glyph glyph-name="Zcaron" unicode="&#x17d;" horiz-adv-x="614" 
d="M492 890l-98 -148h-176l-99 148h137l50 -69l50 69h136zM573 579l-326 -433h333v-146h-546v111l326 433h-322v146h535v-111z" />
    <glyph glyph-name="zcaron" unicode="&#x17e;" horiz-adv-x="496" 
d="M434 710l-98 -148h-176l-99 148h137l50 -69l50 69h136zM454 404l-213 -263h220v-141h-426v106l213 263h-209v141h415v-106z" />
    <glyph glyph-name="florin" unicode="&#x192;" horiz-adv-x="464" 
d="M442 690v-149q-91 0 -106 -84l-7 -43h89v-134h-113l-49 -286q-31 -184 -258 -184v149q91 0 106 84l41 237h-83v134h106l16 92q31 184 258 184z" />
    <glyph glyph-name="uni01C4" unicode="&#x1c4;" horiz-adv-x="1304" 
d="M1183 890l-99 -148h-176l-99 148h137l50 -69l50 69h137zM66 690h272q150 0 251 -99q101 -98 101 -246t-101 -247q-101 -98 -251 -98h-272v690zM1263 579l-326 -433h333v-146h-546v111l326 433h-322v146h535v-111zM221 146h113q86 0 141 57q56 58 56 142t-56 142
q-55 57 -141 57h-113v-398z" />
    <glyph glyph-name="uni01C5" unicode="&#x1c5;" horiz-adv-x="1219" 
d="M1158 710l-99 -148h-176l-99 148h137l50 -69l50 69h137zM66 690h272q150 0 251 -99q101 -98 101 -246t-101 -247q-101 -98 -251 -98h-272v690zM221 146h113q86 0 141 57q56 58 56 142t-56 142q-55 57 -141 57h-113v-398zM1177 404l-213 -263h220v-141h-426v106l213 263
h-209v141h415v-106z" />
    <glyph glyph-name="uni01C6" unicode="&#x1c6;" horiz-adv-x="1130" 
d="M430 454v266h146v-720h-146v56q-62 -68 -154 -68q-106 0 -176 76t-70 191q0 114 70 190q71 77 176 77q92 0 154 -68zM1069 710l-99 -148h-176l-99 148h137l50 -69l50 69h137zM1088 404l-213 -263h220v-141h-426v106l213 263h-209v141h415v-106zM305 129q54 0 89.5 36
t35.5 90t-35.5 90t-89.5 36q-53 0 -88.5 -36t-35.5 -90t35.5 -90t88.5 -36z" />
    <glyph glyph-name="uni01C7" unicode="&#x1c7;" horiz-adv-x="948" 
d="M66 690h155v-544h218v-146h-373v690zM728 146v544h155v-690h-373v146h218z" />
    <glyph glyph-name="uni01C8" unicode="&#x1c8;" horiz-adv-x="728" 
d="M597 575q-39 0 -65 25.5t-26 64.5q0 38 26 63.5t65 25.5q38 0 64 -25.5t26 -63.5q0 -39 -26 -64.5t-64 -25.5zM66 690h155v-544h218v-146h-373v690zM443 -69h81v579h146v-712h-227v133z" />
    <glyph glyph-name="uni01C9" unicode="&#x1c9;" horiz-adv-x="565" 
d="M434 575q-39 0 -65 25.5t-26 64.5q0 38 26 63.5t65 25.5q38 0 64 -25.5t26 -63.5q0 -39 -26 -64.5t-64 -25.5zM204 133h82v-133h-228v720h146v-587zM280 -69h81v579h146v-712h-227v133z" />
    <glyph glyph-name="uni01CA" unicode="&#x1ca;" horiz-adv-x="1190" 
d="M222 690l287 -422v422h155v-690h-157l-286 422v-422h-155v690h156zM969 146v544h155v-690h-373v146h218z" />
    <glyph glyph-name="uni01CB" unicode="&#x1cb;" horiz-adv-x="996" 
d="M865 575q-39 0 -65 25.5t-26 64.5q0 38 26 63.5t65 25.5q38 0 64 -25.5t26 -63.5q0 -39 -26 -64.5t-64 -25.5zM222 690l287 -422v422h155v-690h-157l-286 422v-422h-155v690h156zM711 -69h81v579h146v-712h-227v133z" />
    <glyph glyph-name="uni01CC" unicode="&#x1cc;" horiz-adv-x="879" 
d="M748 575q-39 0 -65 25.5t-26 64.5q0 38 26 63.5t65 25.5q38 0 64 -25.5t26 -63.5q0 -39 -26 -64.5t-64 -25.5zM58 510h496v-510h-146v369h-204v-369h-146v510zM594 -69h81v579h146v-712h-227v133z" />
    <glyph glyph-name="uni01CD" unicode="&#x1cd;" horiz-adv-x="718" 
d="M545 890l-98 -148h-176l-99 148h137l50 -69l50 69h136zM710 0h-170l-43 121h-280l-43 -121h-166l259 690h183zM357 519l-90 -255h180z" />
    <glyph glyph-name="uni01CE" unicode="&#x1ce;" horiz-adv-x="537" 
d="M450 710l-98 -148h-176l-99 148h137l50 -69l50 69h136zM471 510v-377h57v-133h-185v48q-53 -60 -142 -60q-75 0 -128 47q-51 48 -51 119q0 72 51 118q51 48 128 48h124v56h-266v134h412zM240 100q38 0 61.5 17t23.5 44v53h-85q-29 0 -48.5 -16t-19.5 -41
q0 -24 19.5 -40.5t48.5 -16.5z" />
    <glyph glyph-name="Gcaron" unicode="&#x1e6;" horiz-adv-x="805" 
d="M583 890l-98 -148h-176l-99 148h137l50 -69l50 69h136zM404 255v140h350v-395h-135v72q-75 -84 -222 -84q-156 0 -261 102q-104 104 -104 255q0 152 104 254q104 103 261 103q125 0 220 -68q97 -68 122 -172h-173q-24 42 -69 66.5t-100 24.5q-89 0 -147 -60
q-59 -59 -59 -148q0 -88 59 -149q59 -59 147 -59q65 0 115.5 32t71.5 86h-180z" />
    <glyph glyph-name="gcaron" unicode="&#x1e7;" 
d="M507 710l-98 -148h-176l-99 148h137l50 -69l50 69h136zM430 455v55h146v-700h-496v133h350v129q-61 -67 -154 -67q-105 0 -176 74q-70 73 -70 185q0 111 70 184q71 74 176 74q93 0 154 -67zM215 174q36 -36 90 -36q55 0 89 36q36 36 36 90t-36 90q-34 36 -89 36
q-54 0 -90 -36q-35 -37 -35 -90t35 -90z" />
    <glyph glyph-name="uni01EA" unicode="&#x1ea;" horiz-adv-x="794" 
d="M520 7q-86 -42 -86 -89q0 -20 13 -31t33 -11q34 0 63 24v-103q-37 -26 -94 -26q-56 0 -93 32.5t-37 81.5q0 60 54 104q-145 7 -244 109q-97 100 -97 247q0 152 104 254q104 103 261 103t260 -103q105 -102 105 -254q0 -120 -67 -211q-66 -91 -175 -127zM250 493
q-59 -59 -59 -148q0 -88 59 -149q59 -59 147 -59t147 59q59 61 59 149q0 89 -59 148q-58 60 -147 60t-147 -60z" />
    <glyph glyph-name="uni01EB" unicode="&#x1eb;" horiz-adv-x="606" 
d="M401 4q-80 -41 -80 -86q0 -20 13 -31t33 -11q35 0 63 24v-103q-37 -26 -94 -26q-56 0 -93 32.5t-37 81.5q0 63 57 106q-104 14 -169 86q-66 73 -66 178q0 113 78 190q80 77 197 77t196 -77q79 -76 79 -190q0 -87 -48.5 -155t-128.5 -96zM213 345q-35 -37 -35 -90t35 -90
q36 -36 90 -36q55 0 89 36q36 36 36 90t-36 90q-35 36 -89 36t-90 -36z" />
    <glyph glyph-name="uni01F1" unicode="&#x1f1;" horiz-adv-x="1304" 
d="M66 690h272q150 0 251 -99q101 -98 101 -246t-101 -247q-101 -98 -251 -98h-272v690zM1263 579l-326 -433h333v-146h-546v111l326 433h-322v146h535v-111zM221 146h113q86 0 141 57q56 58 56 142t-56 142q-55 57 -141 57h-113v-398z" />
    <glyph glyph-name="uni01F2" unicode="&#x1f2;" horiz-adv-x="1219" 
d="M66 690h272q150 0 251 -99q101 -98 101 -246t-101 -247q-101 -98 -251 -98h-272v690zM221 146h113q86 0 141 57q56 58 56 142t-56 142q-55 57 -141 57h-113v-398zM1177 404l-213 -263h220v-141h-426v106l213 263h-209v141h415v-106z" />
    <glyph glyph-name="uni01F3" unicode="&#x1f3;" horiz-adv-x="1130" 
d="M430 454v266h146v-720h-146v56q-62 -68 -154 -68q-106 0 -176 76t-70 191q0 114 70 190q71 77 176 77q92 0 154 -68zM1088 404l-213 -263h220v-141h-426v106l213 263h-209v141h415v-106zM305 129q54 0 89.5 36t35.5 90t-35.5 90t-89.5 36q-53 0 -88.5 -36t-35.5 -90
t35.5 -90t88.5 -36z" />
    <glyph glyph-name="uni01F4" unicode="&#x1f4;" horiz-adv-x="805" 
d="M414 890h183l-130 -148h-153zM404 255v140h350v-395h-135v72q-75 -84 -222 -84q-156 0 -261 102q-104 104 -104 255q0 152 104 254q104 103 261 103q125 0 220 -68q97 -68 122 -172h-173q-24 42 -69 66.5t-100 24.5q-89 0 -147 -60q-59 -59 -59 -148q0 -88 59 -149
q59 -59 147 -59q65 0 115.5 32t71.5 86h-180z" />
    <glyph glyph-name="uni01F5" unicode="&#x1f5;" 
d="M337 710h183l-130 -148h-153zM430 455v55h146v-700h-496v133h350v129q-61 -67 -154 -67q-105 0 -176 74q-70 73 -70 185q0 111 70 184q71 74 176 74q93 0 154 -67zM215 174q36 -36 90 -36q55 0 89 36q36 36 36 90t-36 90q-34 36 -89 36q-54 0 -90 -36q-35 -37 -35 -90
t35 -90z" />
    <glyph glyph-name="AEacute" unicode="&#x1fc;" horiz-adv-x="876" 
d="M537 890h183l-130 -148h-153zM594 274v-128h248v-146h-403v118h-230l-67 -118h-176l395 690h476v-146h-243v-124h211v-146h-211zM439 523l-149 -262h149v262z" />
    <glyph glyph-name="aeacute" unicode="&#x1fd;" horiz-adv-x="894" 
d="M450 710h183l-130 -148h-153zM868 254q0 -28 -3 -46h-391q12 -43 44.5 -68t77.5 -25q35 0 65 14.5t42 36.5h156q-29 -80 -100 -129q-70 -49 -164 -49q-110 0 -187 71q-68 -71 -191 -71q-91 0 -143 44t-52 117q0 68 49 111q50 45 122 45h133v71h-267v134h381v-34
q67 46 155 46q115 0 194 -77q79 -76 79 -191zM475 305h237q-12 42 -44.5 66.5t-74.5 24.5t-73.5 -24.5t-44.5 -66.5zM248 100q69 0 101 44q-12 26 -19 64h-98q-26 0 -43 -15.5t-17 -38.5q0 -25 20 -39.5t56 -14.5z" />
    <glyph glyph-name="Oslashacute" unicode="&#x1fe;" horiz-adv-x="794" 
d="M433 890h183l-130 -148h-153zM756 690l-87 -102q93 -100 93 -243q0 -151 -105 -255q-103 -102 -260 -102q-108 0 -196 53l-35 -41h-128l87 102q-93 100 -93 243q0 152 104 254q104 103 261 103q108 0 196 -53l35 41h128zM191 345q0 -70 37 -122l264 308q-43 22 -95 22
q-89 0 -147 -60q-59 -59 -59 -148zM397 137q88 0 147 59q59 61 59 149q0 70 -37 122l-264 -308q43 -22 95 -22z" />
    <glyph glyph-name="oslashacute" unicode="&#x1ff;" horiz-adv-x="606" 
d="M330 710h183l-130 -148h-153zM477 510h103l-68 -77q66 -77 66 -178q0 -115 -79 -191q-77 -76 -196 -76q-82 0 -150 40l-25 -28h-103l69 78q-66 72 -66 177q0 113 78 190q80 77 197 77q82 0 149 -40zM178 255q0 -36 16 -64l160 180q-24 10 -51 10q-54 0 -89.5 -36
t-35.5 -90zM428 255q0 36 -17 65l-160 -181q26 -10 52 -10q54 0 89.5 36t35.5 90z" />
    <glyph glyph-name="uni0200" unicode="&#x200;" horiz-adv-x="718" 
d="M235 890l86 -148h-141l-104 148h159zM458 890l86 -148h-141l-103 148h158zM710 0h-170l-43 121h-280l-43 -121h-166l259 690h183zM357 519l-90 -255h180z" />
    <glyph glyph-name="uni0201" unicode="&#x201;" horiz-adv-x="537" 
d="M141 710l86 -148h-141l-104 148h159zM364 710l86 -148h-141l-103 148h158zM471 510v-377h57v-133h-185v48q-53 -60 -142 -60q-75 0 -128 47q-51 48 -51 119q0 72 51 118q51 48 128 48h124v56h-266v134h412zM240 100q38 0 61.5 17t23.5 44v53h-85q-29 0 -48.5 -16
t-19.5 -41q0 -24 19.5 -40.5t48.5 -16.5z" />
    <glyph glyph-name="uni0202" unicode="&#x202;" horiz-adv-x="718" 
d="M307 740h-113q0 67 47 112t118 45t118 -45t47 -112h-113q0 23 -14.5 38t-37.5 15t-37.5 -15t-14.5 -38zM710 0h-170l-43 121h-280l-43 -121h-166l259 690h183zM357 519l-90 -255h180z" />
    <glyph glyph-name="uni0203" unicode="&#x203;" horiz-adv-x="537" 
d="M212 560h-113q0 67 47 112q46 45 118 45t118 -45q47 -45 47 -112h-113q0 23 -14.5 38t-37.5 15t-37.5 -15t-14.5 -38zM471 510v-377h57v-133h-185v48q-53 -60 -142 -60q-75 0 -128 47q-51 48 -51 119q0 72 51 118q51 48 128 48h124v56h-266v134h412zM240 100
q38 0 61.5 17t23.5 44v53h-85q-29 0 -48.5 -16t-19.5 -41q0 -24 19.5 -40.5t48.5 -16.5z" />
    <glyph glyph-name="uni0204" unicode="&#x204;" horiz-adv-x="503" 
d="M141 890l86 -148h-141l-104 148h159zM364 890l86 -148h-141l-103 148h158zM221 274v-128h248v-146h-403v690h398v-146h-243v-124h210v-146h-210z" />
    <glyph glyph-name="uni0205" unicode="&#x205;" horiz-adv-x="604" 
d="M180 710l86 -148h-141l-104 148h159zM403 710l86 -148h-141l-103 148h158zM578 253q0 -30 -4 -45h-390q12 -43 44.5 -68t77.5 -25q35 0 64.5 14.5t42.5 36.5h155q-29 -80 -100 -129q-70 -49 -165 -49q-118 0 -197 76q-78 76 -78 191q0 113 78 190q80 77 197 77
q116 0 196 -77q79 -76 79 -192zM303 396q-43 0 -74 -24.5t-44 -66.5h236q-11 42 -43.5 66.5t-74.5 24.5z" />
    <glyph glyph-name="uni0206" unicode="&#x206;" horiz-adv-x="503" 
d="M212 740h-113q0 67 47 112q46 45 118 45t118 -45q47 -45 47 -112h-113q0 23 -14.5 38t-37.5 15t-37.5 -15t-14.5 -38zM221 274v-128h248v-146h-403v690h398v-146h-243v-124h210v-146h-210z" />
    <glyph glyph-name="uni0207" unicode="&#x207;" horiz-adv-x="604" 
d="M251 560h-113q0 67 47 112q46 45 118 45q71 0 118 -45t47 -112h-113q0 23 -14.5 38t-37.5 15t-37.5 -15t-14.5 -38zM578 253q0 -30 -4 -45h-390q12 -43 44.5 -68t77.5 -25q35 0 64.5 14.5t42.5 36.5h155q-29 -80 -100 -129q-70 -49 -165 -49q-118 0 -197 76
q-78 76 -78 191q0 113 78 190q80 77 197 77q116 0 196 -77q79 -76 79 -192zM303 396q-43 0 -74 -24.5t-44 -66.5h236q-11 42 -43.5 66.5t-74.5 24.5z" />
    <glyph glyph-name="uni0208" unicode="&#x208;" horiz-adv-x="391" 
d="M-86 890h159l86 -148h-141zM296 890l86 -148h-141l-103 148h158zM118 544h-85v146h325v-146h-85v-398h85v-146h-325v146h85v398z" />
    <glyph glyph-name="uni0209" unicode="&#x209;" horiz-adv-x="262" 
d="M94 562h-141l-104 148h159zM317 562h-141l-103 148h158zM204 0h-146v510h146v-510z" />
    <glyph glyph-name="uni020A" unicode="&#x20a;" horiz-adv-x="391" 
d="M144 740h-113q0 67 47 112t118 45q72 0 118 -45q47 -45 47 -112h-113q0 23 -14.5 38t-37.5 15t-37.5 -15t-14.5 -38zM118 544h-85v146h325v-146h-85v-398h85v-146h-325v146h85v398z" />
    <glyph glyph-name="uni020B" unicode="&#x20b;" horiz-adv-x="262" 
d="M79 560h-113q0 67 47 112t118 45t118 -45t47 -112h-113q0 23 -14.5 38t-37.5 15t-37.5 -15t-14.5 -38zM204 0h-146v510h146v-510z" />
    <glyph glyph-name="uni020C" unicode="&#x20c;" horiz-adv-x="794" 
d="M360 742h-141l-104 148h159zM583 742h-141l-103 148h158zM657 90q-103 -102 -260 -102q-156 0 -261 102q-104 104 -104 255q0 152 104 254q104 103 261 103t260 -103q105 -102 105 -254q0 -151 -105 -255zM250 196q59 -59 147 -59t147 59q59 61 59 149q0 89 -59 148
q-58 60 -147 60t-147 -60q-59 -59 -59 -148q0 -88 59 -149z" />
    <glyph glyph-name="uni020D" unicode="&#x20d;" horiz-adv-x="606" 
d="M266 562h-141l-104 148h159zM489 562h-141l-103 148h158zM499 64q-77 -76 -196 -76q-118 0 -197 76q-78 76 -78 191q0 113 78 190q80 77 197 77t196 -77q79 -76 79 -190q0 -115 -79 -191zM213 165q36 -36 90 -36q55 0 89 36q36 36 36 90t-36 90q-35 36 -89 36t-90 -36
q-35 -37 -35 -90t35 -90z" />
    <glyph glyph-name="uni020E" unicode="&#x20e;" horiz-adv-x="794" 
d="M345 740h-113q0 67 47 112t118 45t118 -45t47 -112h-113q0 23 -14.5 38t-37.5 15t-37.5 -15t-14.5 -38zM657 90q-103 -102 -260 -102q-156 0 -261 102q-104 104 -104 255q0 152 104 254q104 103 261 103t260 -103q105 -102 105 -254q0 -151 -105 -255zM250 196
q59 -59 147 -59t147 59q59 61 59 149q0 89 -59 148q-58 60 -147 60t-147 -60q-59 -59 -59 -148q0 -88 59 -149z" />
    <glyph glyph-name="uni020F" unicode="&#x20f;" horiz-adv-x="606" 
d="M251 560h-113q0 67 47 112q46 45 118 45q71 0 118 -45t47 -112h-113q0 23 -14.5 38t-37.5 15t-37.5 -15t-14.5 -38zM499 64q-77 -76 -196 -76q-118 0 -197 76q-78 76 -78 191q0 113 78 190q80 77 197 77t196 -77q79 -76 79 -190q0 -115 -79 -191zM213 165q36 -36 90 -36
q55 0 89 36q36 36 36 90t-36 90q-35 36 -89 36t-90 -36q-35 -37 -35 -90t35 -90z" />
    <glyph glyph-name="uni0210" unicode="&#x210;" horiz-adv-x="585" 
d="M165 890l86 -148h-141l-104 148h159zM388 890l86 -148h-141l-103 148h158zM572 0h-186l-118 236h-47v-236h-155v690h247q103 0 171 -66q69 -66 69 -165q0 -66 -33.5 -118.5t-90.5 -79.5zM310 544h-89v-173h89q36 0 60 24.5t24 61.5t-24 62t-60 25z" />
    <glyph glyph-name="uni0211" unicode="&#x211;" horiz-adv-x="364" 
d="M-80 710h159l86 -148h-141zM302 710l86 -148h-141l-103 148h158zM58 510h288v-144h-142v-366h-146v510z" />
    <glyph glyph-name="uni0212" unicode="&#x212;" horiz-adv-x="585" 
d="M237 740h-113q0 67 47 112t118 45t118 -45t47 -112h-113q0 23 -14.5 38t-37.5 15t-37.5 -15t-14.5 -38zM572 0h-186l-118 236h-47v-236h-155v690h247q103 0 171 -66q69 -66 69 -165q0 -66 -33.5 -118.5t-90.5 -79.5zM310 544h-89v-173h89q36 0 60 24.5t24 61.5t-24 62
t-60 25z" />
    <glyph glyph-name="uni0213" unicode="&#x213;" horiz-adv-x="364" 
d="M150 560h-113q0 67 47 112q46 45 118 45t118 -45q47 -45 47 -112h-113q0 23 -14.5 38t-37.5 15t-37.5 -15t-14.5 -38zM58 510h288v-144h-142v-366h-146v510z" />
    <glyph glyph-name="uni0214" unicode="&#x214;" horiz-adv-x="707" 
d="M231 890l86 -148h-141l-104 148h159zM454 890l86 -148h-141l-103 148h158zM487 146v544h155v-690h-576v690h155v-544h266z" />
    <glyph glyph-name="uni0215" unicode="&#x215;" horiz-adv-x="599" 
d="M176 710l86 -148h-141l-104 148h159zM399 710l86 -148h-141l-103 148h158zM394 141v369h146v-510h-482v510h146v-369h190z" />
    <glyph glyph-name="uni0216" unicode="&#x216;" horiz-adv-x="707" 
d="M302 740h-113q0 67 47 112q46 45 118 45t118 -45q47 -45 47 -112h-113q0 23 -14.5 38t-37.5 15t-37.5 -15t-14.5 -38zM487 146v544h155v-690h-576v690h155v-544h266z" />
    <glyph glyph-name="uni0217" unicode="&#x217;" horiz-adv-x="599" 
d="M247 560h-113q0 67 47 112q46 45 118 45q71 0 118 -45t47 -112h-113q0 23 -14.5 38t-37.5 15t-37.5 -15t-14.5 -38zM394 141v369h146v-510h-482v510h146v-369h190z" />
    <glyph glyph-name="uni0218" unicode="&#x218;" horiz-adv-x="549" 
d="M31 207h159q0 -34 25 -57.5t62 -23.5q35 0 58.5 19t23.5 47q0 57 -122 89q-86 23 -141 73q-55 52 -55 143q0 87 66 146q68 59 166 59q101 0 168 -60t67 -150h-159q0 31 -21.5 51.5t-54.5 20.5q-31 0 -52 -17.5t-21 -43.5q0 -56 113 -86q87 -24 141 -67q64 -50 64 -148
q0 -92 -70 -153q-68 -61 -173 -61q-103 0 -174 62q-70 63 -70 157zM292 -227h-120l43 175h150z" />
    <glyph glyph-name="uni0219" unicode="&#x219;" horiz-adv-x="451" 
d="M226 -12q-85 0 -142 48q-57 50 -57 119h146q0 -21 16 -36t38 -15q21 0 35.5 11.5t14.5 27.5q0 38 -82 56q-161 38 -161 162q0 75 55 118t135 43q81 0 137 -47q55 -46 55 -113h-146q0 18 -13.5 31t-33.5 13q-18 0 -30.5 -10.5t-12.5 -24.5q0 -38 85 -57q67 -17 107 -47
q51 -37 51 -111q0 -78 -57 -123q-56 -45 -140 -45zM242 -227h-120l43 175h150z" />
    <glyph glyph-name="uni021A" unicode="&#x21a;" horiz-adv-x="547" 
d="M25 544v146h497v-146h-171v-544h-155v544h-171zM291 -227h-120l43 175h150z" />
    <glyph glyph-name="uni021B" unicode="&#x21b;" horiz-adv-x="409" 
d="M378 510v-133h-121v-244h121v-133h-267v377h-89v133h89v150h146v-150h121zM254 -227h-120l43 175h150z" />
    <glyph glyph-name="uni0232" unicode="&#x232;" horiz-adv-x="677" 
d="M202 874h274v-123h-274v123zM340 396l167 294h173l-264 -453v-237h-155v237l-264 453h176z" />
    <glyph glyph-name="uni0233" unicode="&#x233;" horiz-adv-x="569" 
d="M150 694h274v-123h-274v123zM287 186l117 324h163l-285 -700h-201v133h99l26 64l-204 503h167z" />
    <glyph glyph-name="uni0237" unicode="&#x237;" horiz-adv-x="267" 
d="M63 -69v579h146v-712h-227v133h81z" />
    <glyph glyph-name="uni02BC" unicode="&#x2bc;" horiz-adv-x="153" 
d="M110 490h-110l21 230h132z" />
    <glyph glyph-name="circumflex" unicode="&#x2c6;" horiz-adv-x="373" 
d="M275 710l98 -148h-136l-50 69l-50 -69h-137l99 148h176z" />
    <glyph glyph-name="caron" unicode="&#x2c7;" horiz-adv-x="373" 
d="M187 641l50 69h136l-98 -148h-176l-99 148h137z" />
    <glyph glyph-name="breve" unicode="&#x2d8;" horiz-adv-x="330" 
d="M0 709h113q0 -23 14.5 -38t37.5 -15t37.5 15t14.5 38h113q0 -67 -48 -112q-46 -45 -117 -45q-70 0 -118 45q-47 45 -47 112z" />
    <glyph glyph-name="dotaccent" unicode="&#x2d9;" horiz-adv-x="170" 
d="M85 558q-36 0 -60.5 24t-24.5 61q0 36 24.5 60t60.5 24q37 0 61 -24t24 -60q0 -37 -24 -61t-61 -24z" />
    <glyph glyph-name="ring" unicode="&#x2da;" horiz-adv-x="216" 
d="M185 581q-32 -30 -77 -30q-46 0 -77 30t-31 75t31 75t77 30t77 -30t31 -75t-31 -75zM85 632q9 -9 23 -9t23 9q9 10 9 24t-9 23q-9 10 -23 10t-23 -10q-9 -9 -9 -23t9 -24z" />
    <glyph glyph-name="ogonek" unicode="&#x2db;" horiz-adv-x="228" 
d="M130 -245q-56 0 -93 32.5t-37 81.5q0 42 30 79t78 55h110l2 -3q-105 -46 -105 -98q0 -20 13 -31t33 -11q35 0 63 24v-103q-37 -26 -94 -26z" />
    <glyph glyph-name="tilde" unicode="&#x2dc;" horiz-adv-x="366" 
d="M247 568q-31 0 -65 18q-32 19 -45 19q-15 0 -25 -10t-10 -25h-102q0 67 31.5 108.5t86.5 41.5q31 0 65 -19q35 -18 46 -18q15 0 24.5 10t9.5 25h103q0 -68 -31.5 -109t-87.5 -41z" />
    <glyph glyph-name="hungarumlaut" unicode="&#x2dd;" horiz-adv-x="468" 
d="M141 562h-141l86 148h159zM364 562h-140l86 148h158z" />
    <glyph glyph-name="gravecomb" unicode="&#x300;" horiz-adv-x="0" 
d="M0 562h-153l-130 148h183z" />
    <glyph glyph-name="acutecomb" unicode="&#x301;" horiz-adv-x="0" 
d="M-130 562h-153l100 148h183z" />
    <glyph glyph-name="uni0302" unicode="&#x302;" horiz-adv-x="0" 
d="M-98 710l98 -148h-136l-50 69l-50 -69h-137l99 148h176z" />
    <glyph glyph-name="tildecomb" unicode="&#x303;" horiz-adv-x="0" 
d="M-119 568q-31 0 -64 18q-34 19 -46 19q-15 0 -25 -10t-10 -25h-102q0 67 31.5 108.5t86.5 41.5q31 0 65 -19q34 -18 46 -18q15 0 24.5 10t9.5 25h103q0 -68 -31.5 -109t-87.5 -41z" />
    <glyph glyph-name="uni0304" unicode="&#x304;" horiz-adv-x="0" 
d="M0 571h-274v123h274v-123z" />
    <glyph glyph-name="uni0306" unicode="&#x306;" horiz-adv-x="0" 
d="M-330 709h113q0 -23 14.5 -38t37.5 -15t37.5 15t14.5 38h113q0 -67 -47 -112q-48 -45 -118 -45q-71 0 -117 45q-48 45 -48 112z" />
    <glyph glyph-name="uni0307" unicode="&#x307;" horiz-adv-x="0" 
d="M-85 558q-36 0 -60.5 24t-24.5 61q0 36 24.5 60t60.5 24q37 0 61 -24t24 -60q0 -37 -24 -61t-61 -24z" />
    <glyph glyph-name="uni0308" unicode="&#x308;" horiz-adv-x="0" 
d="M-381 639q0 34 23 57t58 23t58 -23t23 -57q0 -35 -23.5 -58t-57.5 -23t-57.5 23t-23.5 58zM-162 639q0 34 23 57t58 23t58 -23t23 -57q0 -35 -23 -58t-58 -23t-58 23t-23 58z" />
    <glyph glyph-name="uni030A" unicode="&#x30a;" horiz-adv-x="0" 
d="M-31 581q-31 -30 -77 -30t-77 30t-31 75t31 75q32 30 77 30q46 0 77 -30t31 -75t-31 -75zM-131 632q9 -9 23 -9t23 9q9 10 9 24t-9 23q-9 10 -23 10t-23 -10q-9 -9 -9 -23t9 -24z" />
    <glyph glyph-name="uni030B" unicode="&#x30b;" horiz-adv-x="0" 
d="M-327 562h-141l86 148h159zM-104 562h-140l86 148h158z" />
    <glyph glyph-name="uni030C" unicode="&#x30c;" horiz-adv-x="0" 
d="M-186 641l50 69h136l-98 -148h-176l-99 148h137z" />
    <glyph glyph-name="uni030F" unicode="&#x30f;" horiz-adv-x="0" 
d="M-223 562h-141l-104 148h159zM0 562h-141l-103 148h158z" />
    <glyph glyph-name="uni0311" unicode="&#x311;" horiz-adv-x="0" 
d="M-217 560h-113q0 67 47 112t118 45t118 -45t47 -112h-113q0 23 -14.5 38t-37.5 15t-37.5 -15t-14.5 -38z" />
    <glyph glyph-name="uni0312" unicode="&#x312;" horiz-adv-x="0" 
d="M-43 560h-150l73 176h120z" />
    <glyph glyph-name="dotbelowcomb" unicode="&#x323;" horiz-adv-x="0" 
d="M-85 -217q-36 0 -60.5 24t-24.5 60q0 37 24.5 61t60.5 24q37 0 61 -24t24 -61q0 -36 -24 -60t-61 -24z" />
    <glyph glyph-name="uni0326" unicode="&#x326;" horiz-adv-x="0" 
d="M-73 -227h-120l43 175h150z" />
    <glyph glyph-name="uni0327" unicode="&#x327;" horiz-adv-x="0" 
d="M-70 0l-24 -28q41 -4 67.5 -34.5t26.5 -73.5q0 -48 -35.5 -81t-88.5 -33t-88.5 33t-35.5 81h87q0 -24 23 -32.5t40 7.5q18 17 8 38.5t-34 21.5q-19 0 -29 -13l-81 36l63 78v2h101v-2z" />
    <glyph glyph-name="uni0328" unicode="&#x328;" horiz-adv-x="0" 
d="M-94 -245q-56 0 -93 32.5t-37 81.5q0 42 30 79t78 55h110l2 -3q-105 -46 -105 -98q0 -20 13 -31t33 -11q35 0 63 24v-103q-37 -26 -94 -26z" />
    <glyph glyph-name="uni0335" unicode="&#x335;" horiz-adv-x="0" 
d="M0 222h-312v105h312v-105z" />
    <glyph glyph-name="uni0336" unicode="&#x336;" horiz-adv-x="0" 
d="M0 221h-696v106h696v-106z" />
    <glyph glyph-name="uni0337" unicode="&#x337;" horiz-adv-x="0" 
d="M-452 0h-103l452 510h103z" />
    <glyph glyph-name="uni0338" unicode="&#x338;" horiz-adv-x="0" 
d="M-590 0h-128l590 690h128z" />
    <glyph glyph-name="uni1E0C" unicode="&#x1e0c;" horiz-adv-x="723" 
d="M66 690h272q150 0 251 -99q101 -98 101 -246t-101 -247q-101 -98 -251 -98h-272v690zM221 146h113q86 0 141 57q56 58 56 142t-56 142q-55 57 -141 57h-113v-398zM354 -48q37 0 61 -24t24 -61q0 -36 -24 -60t-61 -24q-36 0 -60.5 24t-24.5 60q0 37 24.5 61t60.5 24z" />
    <glyph glyph-name="uni1E0D" unicode="&#x1e0d;" 
d="M430 454v266h146v-720h-146v56q-62 -68 -154 -68q-106 0 -176 76t-70 191q0 114 70 190q71 77 176 77q92 0 154 -68zM305 129q54 0 89.5 36t35.5 90t-35.5 90t-89.5 36q-53 0 -88.5 -36t-35.5 -90t35.5 -90t88.5 -36zM314 -48q37 0 61 -24t24 -61q0 -36 -24 -60t-61 -24
q-36 0 -60.5 24t-24.5 60q0 37 24.5 61t60.5 24z" />
    <glyph glyph-name="uni1E24" unicode="&#x1e24;" horiz-adv-x="719" 
d="M498 420v270h155v-690h-155v274h-277v-274h-155v690h155v-270h277zM359 -48q37 0 61 -24t24 -61q0 -36 -24 -60t-61 -24q-36 0 -60.5 24t-24.5 60q0 37 24.5 61t60.5 24z" />
    <glyph glyph-name="uni1E25" unicode="&#x1e25;" horiz-adv-x="612" 
d="M204 720v-210h350v-510h-146v369h-204v-369h-146v720h146zM306 -48q37 0 61 -24t24 -61q0 -36 -24 -60t-61 -24q-36 0 -60.5 24t-24.5 60q0 37 24.5 61t60.5 24z" />
    <glyph glyph-name="uni1E44" unicode="&#x1e44;" horiz-adv-x="729" 
d="M368 738q-36 0 -60.5 24t-24.5 61q0 36 24.5 60t60.5 24q37 0 61 -24t24 -60q0 -37 -24 -61t-61 -24zM509 268v422h155v-690h-157l-286 422v-422h-155v690h156z" />
    <glyph glyph-name="uni1E45" unicode="&#x1e45;" horiz-adv-x="612" 
d="M307 558q-36 0 -60.5 24t-24.5 61q0 36 24.5 60t60.5 24q37 0 61 -24t24 -60q0 -37 -24 -61t-61 -24zM58 510h496v-510h-146v369h-204v-369h-146v510z" />
    <glyph glyph-name="uni1E5A" unicode="&#x1e5a;" horiz-adv-x="585" 
d="M429 261l143 -261h-186l-118 236h-47v-236h-155v690h247q103 0 171 -66q69 -66 69 -165q0 -66 -33.5 -118.5t-90.5 -79.5zM310 544h-89v-173h89q36 0 60 24.5t24 61.5t-24 62t-60 25zM298 -48q37 0 61 -24t24 -61q0 -36 -24 -60t-61 -24q-36 0 -60.5 24t-24.5 60
q0 37 24.5 61t60.5 24z" />
    <glyph glyph-name="uni1E5B" unicode="&#x1e5b;" horiz-adv-x="364" 
d="M58 510h288v-144h-142v-366h-146v510zM131 -48q37 0 61 -24t24 -61q0 -36 -24 -60t-61 -24q-36 0 -60.5 24t-24.5 60q0 37 24.5 61t60.5 24z" />
    <glyph glyph-name="uni1E62" unicode="&#x1e62;" horiz-adv-x="549" 
d="M31 207h159q0 -34 25 -57.5t62 -23.5q35 0 58.5 19t23.5 47q0 57 -122 89q-86 23 -141 73q-55 52 -55 143q0 87 66 146q68 59 166 59q101 0 168 -60t67 -150h-159q0 31 -21.5 51.5t-54.5 20.5q-31 0 -52 -17.5t-21 -43.5q0 -56 113 -86q87 -24 141 -67q64 -50 64 -148
q0 -92 -70 -153q-68 -61 -173 -61q-103 0 -174 62q-70 63 -70 157zM275 -217q-36 0 -60.5 24t-24.5 60q0 37 24.5 61t60.5 24q37 0 61 -24t24 -61q0 -36 -24 -60t-61 -24z" />
    <glyph glyph-name="uni1E63" unicode="&#x1e63;" horiz-adv-x="451" 
d="M226 -12q-85 0 -142 48q-57 50 -57 119h146q0 -21 16 -36t38 -15q21 0 35.5 11.5t14.5 27.5q0 38 -82 56q-161 38 -161 162q0 75 55 118t135 43q81 0 137 -47q55 -46 55 -113h-146q0 18 -13.5 31t-33.5 13q-18 0 -30.5 -10.5t-12.5 -24.5q0 -38 85 -57q67 -17 107 -47
q51 -37 51 -111q0 -78 -57 -123q-56 -45 -140 -45zM225 -217q-36 0 -60.5 24t-24.5 60q0 37 24.5 61t60.5 24q37 0 61 -24t24 -61q0 -36 -24 -60t-61 -24z" />
    <glyph glyph-name="uni1E6C" unicode="&#x1e6c;" horiz-adv-x="547" 
d="M25 544v146h497v-146h-171v-544h-155v544h-171zM274 -48q37 0 61 -24t24 -61q0 -36 -24 -60t-61 -24q-36 0 -60.5 24t-24.5 60q0 37 24.5 61t60.5 24z" />
    <glyph glyph-name="uni1E6D" unicode="&#x1e6d;" horiz-adv-x="409" 
d="M378 510v-133h-121v-244h121v-133h-267v377h-89v133h89v150h146v-150h121zM237 -48q37 0 61 -24t24 -61q0 -36 -24 -60t-61 -24q-36 0 -60.5 24t-24.5 60q0 37 24.5 61t60.5 24z" />
    <glyph glyph-name="Wgrave" unicode="&#x1e80;" horiz-adv-x="1112" 
d="M540 890l100 -148h-153l-130 148h183zM783 211l152 479h168l-245 -690h-155l-146 454l-147 -454h-156l-244 690h171l153 -479l154 479h140z" />
    <glyph glyph-name="wgrave" unicode="&#x1e81;" horiz-adv-x="874" 
d="M423 710l100 -148h-153l-130 148h183zM613 189l94 321h163l-182 -510h-150l-100 333l-101 -333h-150l-182 510h166l94 -323l100 323h149z" />
    <glyph glyph-name="Wacute" unicode="&#x1e82;" horiz-adv-x="1112" 
d="M573 890h183l-130 -148h-153zM783 211l152 479h168l-245 -690h-155l-146 454l-147 -454h-156l-244 690h171l153 -479l154 479h140z" />
    <glyph glyph-name="wacute" unicode="&#x1e83;" horiz-adv-x="874" 
d="M455 710h183l-130 -148h-153zM613 189l94 321h163l-182 -510h-150l-100 333l-101 -333h-150l-182 510h166l94 -323l100 323h149z" />
    <glyph glyph-name="Wdieresis" unicode="&#x1e84;" horiz-adv-x="1112" 
d="M366 819q0 34 23 57t58 23t58 -23t23 -57q0 -35 -23 -58t-58 -23t-58 23t-23 58zM585 819q0 34 23 57t58 23t58 -23t23 -57q0 -35 -23.5 -58t-57.5 -23t-57.5 23t-23.5 58zM783 211l152 479h168l-245 -690h-155l-146 454l-147 -454h-156l-244 690h171l153 -479l154 479
h140z" />
    <glyph glyph-name="wdieresis" unicode="&#x1e85;" horiz-adv-x="874" 
d="M248 639q0 34 23 57t58 23t58 -23t23 -57q0 -35 -23 -58t-58 -23t-58 23t-23 58zM467 639q0 34 23 57t58 23t58 -23t23 -57q0 -35 -23.5 -58t-57.5 -23t-57.5 23t-23.5 58zM613 189l94 321h163l-182 -510h-150l-100 333l-101 -333h-150l-182 510h166l94 -323l100 323h149
z" />
    <glyph glyph-name="uni1E92" unicode="&#x1e92;" horiz-adv-x="614" 
d="M573 579l-326 -433h333v-146h-546v111l326 433h-322v146h535v-111zM306 -48q37 0 61 -24t24 -61q0 -36 -24 -60t-61 -24q-36 0 -60.5 24t-24.5 60q0 37 24.5 61t60.5 24z" />
    <glyph glyph-name="uni1E93" unicode="&#x1e93;" horiz-adv-x="496" 
d="M454 404l-213 -263h220v-141h-426v106l213 263h-209v141h415v-106zM248 -48q37 0 61 -24t24 -61q0 -36 -24 -60t-61 -24q-36 0 -60.5 24t-24.5 60q0 37 24.5 61t60.5 24z" />
    <glyph glyph-name="uni1E9E" unicode="&#x1e9e;" horiz-adv-x="636" 
d="M575 562l-107 -144q71 -23 112 -80q42 -57 42 -131q0 -94 -65 -157q-65 -62 -161 -62q-70 0 -117 26v153q35 -30 90 -30q41 0 67.5 21.5t26.5 55.5q0 32 -21.5 53t-53.5 21h-79v113l97 143h-185v-544h-155v690h509v-128z" />
    <glyph glyph-name="uni1EA0" unicode="&#x1ea0;" horiz-adv-x="718" 
d="M450 690l260 -690h-170l-43 121h-280l-43 -121h-166l259 690h183zM357 519l-90 -255h180zM358 -48q37 0 61 -24t24 -61q0 -36 -24 -60t-61 -24q-36 0 -60.5 24t-24.5 60q0 37 24.5 61t60.5 24z" />
    <glyph glyph-name="uni1EA1" unicode="&#x1ea1;" horiz-adv-x="537" 
d="M471 510v-377h57v-133h-185v48q-53 -60 -142 -60q-75 0 -128 47q-51 48 -51 119q0 72 51 118q51 48 128 48h124v56h-266v134h412zM240 100q38 0 61.5 17t23.5 44v53h-85q-29 0 -48.5 -16t-19.5 -41q0 -24 19.5 -40.5t48.5 -16.5zM264 -48q37 0 61 -24t24 -61
q0 -36 -24 -60t-61 -24q-36 0 -60.5 24t-24.5 60q0 37 24.5 61t60.5 24z" />
    <glyph glyph-name="uni1EB8" unicode="&#x1eb8;" horiz-adv-x="503" 
d="M221 274v-128h248v-146h-403v690h398v-146h-243v-124h210v-146h-210zM264 -48q37 0 61 -24t24 -61q0 -36 -24 -60t-61 -24q-36 0 -60.5 24t-24.5 60q0 37 24.5 61t60.5 24z" />
    <glyph glyph-name="uni1EB9" unicode="&#x1eb9;" horiz-adv-x="604" 
d="M578 253q0 -30 -4 -45h-390q12 -43 44.5 -68t77.5 -25q35 0 64.5 14.5t42.5 36.5h155q-29 -80 -100 -129q-70 -49 -165 -49q-118 0 -197 76q-78 76 -78 191q0 113 78 190q80 77 197 77q116 0 196 -77q79 -76 79 -192zM303 396q-43 0 -74 -24.5t-44 -66.5h236
q-11 42 -43.5 66.5t-74.5 24.5zM302 -48q37 0 61 -24t24 -61q0 -36 -24 -60t-61 -24q-36 0 -60.5 24t-24.5 60q0 37 24.5 61t60.5 24z" />
    <glyph glyph-name="uni1EBC" unicode="&#x1ebc;" horiz-adv-x="503" 
d="M218 785q-15 0 -25 -10t-10 -25h-102q0 67 31.5 108.5t86.5 41.5q31 0 65 -19q35 -18 46 -18q15 0 24.5 10t9.5 25h103q0 -68 -31.5 -109t-87.5 -41q-30 0 -65 18q-32 19 -45 19zM221 274v-128h248v-146h-403v690h398v-146h-243v-124h210v-146h-210z" />
    <glyph glyph-name="uni1EBD" unicode="&#x1ebd;" horiz-adv-x="604" 
d="M256 605q-15 0 -25 -10t-10 -25h-102q0 67 31.5 108.5t86.5 41.5q31 0 65 -19q35 -18 46 -18q15 0 24.5 10t9.5 25h103q0 -68 -31.5 -109t-87.5 -41q-30 0 -65 18q-32 19 -45 19zM578 253q0 -30 -4 -45h-390q12 -43 44.5 -68t77.5 -25q35 0 64.5 14.5t42.5 36.5h155
q-29 -80 -100 -129q-70 -49 -165 -49q-118 0 -197 76q-78 76 -78 191q0 113 78 190q80 77 197 77q116 0 196 -77q79 -76 79 -192zM303 396q-43 0 -74 -24.5t-44 -66.5h236q-11 42 -43.5 66.5t-74.5 24.5z" />
    <glyph glyph-name="uni1ECA" unicode="&#x1eca;" horiz-adv-x="391" 
d="M358 690v-146h-85v-398h85v-146h-325v146h85v398h-85v146h325zM196 -48q37 0 61 -24t24 -61q0 -36 -24 -60t-61 -24q-36 0 -60.5 24t-24.5 60q0 37 24.5 61t60.5 24z" />
    <glyph glyph-name="uni1ECB" unicode="&#x1ecb;" horiz-adv-x="262" 
d="M131 575q-38 0 -64 25.5t-26 64.5q0 38 26 63.5t64 25.5q39 0 65 -25.5t26 -63.5q0 -39 -26 -64.5t-65 -25.5zM204 0h-146v510h146v-510zM131 -217q-36 0 -60.5 24t-24.5 60q0 37 24.5 61t60.5 24q37 0 61 -24t24 -61q0 -36 -24 -60t-61 -24z" />
    <glyph glyph-name="uni1ECC" unicode="&#x1ecc;" horiz-adv-x="794" 
d="M657 90q-103 -102 -260 -102q-156 0 -261 102q-104 104 -104 255q0 152 104 254q104 103 261 103t260 -103q105 -102 105 -254q0 -151 -105 -255zM250 196q59 -59 147 -59t147 59q59 61 59 149q0 89 -59 148q-58 60 -147 60t-147 -60q-59 -59 -59 -148q0 -88 59 -149z
M397 -217q-36 0 -60.5 24t-24.5 60q0 37 24.5 61t60.5 24q37 0 61 -24t24 -61q0 -36 -24 -60t-61 -24z" />
    <glyph glyph-name="uni1ECD" unicode="&#x1ecd;" horiz-adv-x="606" 
d="M499 64q-77 -76 -196 -76q-118 0 -197 76q-78 76 -78 191q0 113 78 190q80 77 197 77t196 -77q79 -76 79 -190q0 -115 -79 -191zM213 165q36 -36 90 -36q55 0 89 36q36 36 36 90t-36 90q-35 36 -89 36t-90 -36q-35 -37 -35 -90t35 -90zM303 -217q-36 0 -60.5 24t-24.5 60
q0 37 24.5 61t60.5 24q37 0 61 -24t24 -61q0 -36 -24 -60t-61 -24z" />
    <glyph glyph-name="uni1EE4" unicode="&#x1ee4;" horiz-adv-x="707" 
d="M487 146v544h155v-690h-576v690h155v-544h266zM354 -48q37 0 61 -24t24 -61q0 -36 -24 -60t-61 -24q-36 0 -60.5 24t-24.5 60q0 37 24.5 61t60.5 24z" />
    <glyph glyph-name="uni1EE5" unicode="&#x1ee5;" horiz-adv-x="599" 
d="M394 141v369h146v-510h-482v510h146v-369h190zM299 -48q37 0 61 -24t24 -61q0 -36 -24 -60t-61 -24q-36 0 -60.5 24t-24.5 60q0 37 24.5 61t60.5 24z" />
    <glyph glyph-name="Ygrave" unicode="&#x1ef2;" horiz-adv-x="677" 
d="M323 890l100 -148h-153l-130 148h183zM340 396l167 294h173l-264 -453v-237h-155v237l-264 453h176z" />
    <glyph glyph-name="ygrave" unicode="&#x1ef3;" horiz-adv-x="569" 
d="M271 710l100 -148h-153l-130 148h183zM287 186l117 324h163l-285 -700h-201v133h99l26 64l-204 503h167z" />
    <glyph glyph-name="uni1EF8" unicode="&#x1ef8;" horiz-adv-x="677" 
d="M293 785q-15 0 -25 -10t-10 -25h-102q0 67 31.5 108.5t86.5 41.5q31 0 65 -19q34 -18 46 -18q15 0 24.5 10t9.5 25h103q0 -68 -31.5 -109t-87.5 -41q-31 0 -65 18q-32 19 -45 19zM340 396l167 294h173l-264 -453v-237h-155v237l-264 453h176z" />
    <glyph glyph-name="uni1EF9" unicode="&#x1ef9;" horiz-adv-x="569" 
d="M241 605q-15 0 -25 -10t-10 -25h-102q0 67 31.5 108.5t86.5 41.5q31 0 65 -19q35 -18 46 -18q15 0 24.5 10t9.5 25h103q0 -68 -31.5 -109t-87.5 -41q-31 0 -65 18q-32 19 -45 19zM287 186l117 324h163l-285 -700h-201v133h99l26 64l-204 503h167z" />
    <glyph glyph-name="endash" unicode="&#x2013;" horiz-adv-x="608" 
d="M552 208h-496v132h496v-132z" />
    <glyph glyph-name="emdash" unicode="&#x2014;" horiz-adv-x="1068" 
d="M1012 208h-956v132h956v-132z" />
    <glyph glyph-name="quoteleft" unicode="&#x2018;" horiz-adv-x="285" 
d="M205 404h-171l116 286h125z" />
    <glyph glyph-name="quoteright" unicode="&#x2019;" horiz-adv-x="285" 
d="M160 404h-126l71 286h170z" />
    <glyph glyph-name="quotesinglbase" unicode="&#x201a;" horiz-adv-x="266" 
d="M125 -137h-125l70 286h170z" />
    <glyph glyph-name="quotedblleft" unicode="&#x201c;" horiz-adv-x="527" 
d="M205 404h-171l116 286h125zM446 404h-170l115 286h125z" />
    <glyph glyph-name="quotedblright" unicode="&#x201d;" horiz-adv-x="527" 
d="M160 404h-126l71 286h170zM401 404h-125l70 286h170z" />
    <glyph glyph-name="quotedblbase" unicode="&#x201e;" horiz-adv-x="508" 
d="M125 -137h-125l70 286h170zM367 -137h-126l71 286h170z" />
    <glyph glyph-name="dagger" unicode="&#x2020;" horiz-adv-x="494" 
d="M314 510h124v-131h-124v-569h-134v569h-124v131h124v180h134v-180z" />
    <glyph glyph-name="daggerdbl" unicode="&#x2021;" horiz-adv-x="494" 
d="M438 510v-131h-124v-238h124v-131h-124v-200h-134v200h-124v131h124v238h-124v131h124v180h134v-180h124z" />
    <glyph glyph-name="bullet" unicode="&#x2022;" horiz-adv-x="361" 
d="M269 185q-35 -35 -88 -35q-52 0 -89 35q-36 36 -36 89q0 54 36 88q36 36 89 36q54 0 88 -36q36 -34 36 -88q0 -53 -36 -89z" />
    <glyph glyph-name="ellipsis" unicode="&#x2026;" horiz-adv-x="821" 
d="M31 90q0 42 28.5 70.5t71.5 28.5t72 -28.5t29 -70.5q0 -43 -29 -71.5t-72 -28.5t-71.5 28.5t-28.5 71.5zM310 90q0 42 29 70.5t72 28.5t71.5 -28.5t28.5 -70.5q0 -43 -28.5 -71.5t-71.5 -28.5t-72 28.5t-29 71.5zM590 90q0 42 28.5 70.5t71.5 28.5t72 -28.5t29 -70.5
q0 -43 -29 -71.5t-72 -28.5t-71.5 28.5t-28.5 71.5z" />
    <glyph glyph-name="perthousand" unicode="&#x2030;" horiz-adv-x="1254" 
d="M336 409q-49 -49 -124 -49t-124 49q-50 50 -50 123t50 121q49 49 124 49t124 -49q50 -48 50 -121t-50 -123zM263 0h-155l500 690h155zM265 532q0 22 -15.5 37.5t-37.5 15.5q-36 3 -50 -32.5t11 -59.5q24 -25 59.5 -11t32.5 50zM659 -12q-76 0 -125 49t-49 123
q0 72 49 121t125 49q75 0 124 -49q50 -50 50 -121q0 -73 -50 -123q-49 -49 -124 -49zM1042 -12q-75 0 -124 49q-50 50 -50 123q0 71 50 121q49 49 124 49t124 -49q50 -50 50 -121q0 -73 -50 -123q-49 -49 -124 -49zM659 105q22 0 37.5 16t15.5 39q0 22 -15 37t-38 15
t-38.5 -15t-15.5 -37q0 -23 15.5 -39t38.5 -16zM1042 105q23 0 38.5 16t15.5 39q0 22 -15.5 37t-38.5 15t-38 -15t-15 -37q0 -23 15.5 -39t37.5 -16z" />
    <glyph glyph-name="guilsinglleft" unicode="&#x2039;" horiz-adv-x="372" 
d="M176 469h171l-148 -205l148 -205h-171l-148 205z" />
    <glyph glyph-name="guilsinglright" unicode="&#x203a;" horiz-adv-x="372" 
d="M31 469h171l147 -205l-147 -205h-171l148 205z" />
    <glyph glyph-name="fraction" unicode="&#x2044;" horiz-adv-x="202" 
d="M-67 0h-134l470 690h133z" />
    <glyph glyph-name="uni2070" unicode="&#x2070;" horiz-adv-x="395" 
d="M197 359q-72 0 -119 59q-46 59 -46 155t46 154q46 60 119 60t119 -60q47 -61 47 -154t-47 -154q-46 -60 -119 -60zM157 493q15 -30 40 -30t40 29q15 30 15 81t-15 80q-15 30 -40 30t-40 -31q-15 -30 -15 -79t15 -80z" />
    <glyph glyph-name="uni2074" unicode="&#x2074;" horiz-adv-x="374" 
d="M313 532h39v-97h-39v-69h-108v69h-186v79l159 266h135v-248zM205 666l-75 -134h75v134z" />
    <glyph glyph-name="uni2075" unicode="&#x2075;" horiz-adv-x="358" 
d="M197 636q62 0 102 -40q42 -39 42 -98q0 -58 -45 -99q-43 -40 -109 -40q-65 0 -110 39q-44 41 -44 99h110q0 -28 27.5 -39.5t47.5 8.5q21 21 9.5 49t-40.5 28q-25 0 -39 -18h-110l22 255h253v-97h-155l-5 -55q22 8 44 8z" />
    <glyph glyph-name="uni2076" unicode="&#x2076;" horiz-adv-x="351" 
d="M294 780l-87 -140q54 -6 89 -45t35 -93q0 -61 -44 -102t-109 -41q-64 0 -110 41q-44 41 -44 102q0 42 28 91l114 187h128zM147 472q13 -12 31 -12t30 12t12 30t-12 30q-12 13 -30 13t-31 -13q-12 -12 -12 -30t12 -30z" />
    <glyph glyph-name="uni2077" unicode="&#x2077;" horiz-adv-x="333" 
d="M31 679v101h282v-84l-144 -330h-121l138 313h-155z" />
    <glyph glyph-name="uni2078" unicode="&#x2078;" horiz-adv-x="348" 
d="M274 580q52 -36 52 -94q0 -53 -44 -91q-44 -36 -108 -36t-108 36q-43 37 -43 91q0 58 52 94q-46 33 -46 87q0 50 41 85q43 35 104 35t104 -35q42 -34 42 -85q0 -53 -46 -87zM174 683q-14 0 -24.5 -9.5t-10.5 -22.5t10.5 -23t24.5 -10q15 0 25.5 9.5t10.5 23.5
q0 13 -10.5 22.5t-25.5 9.5zM145 473q12 -10 29 -10t29 10q12 11 12 27t-12 26q-12 11 -29 11t-29 -11q-11 -10 -11 -26t11 -27z" />
    <glyph glyph-name="uni2079" unicode="&#x2079;" horiz-adv-x="351" 
d="M178 787q65 0 109 -41t44 -102q0 -44 -28 -91l-113 -187h-129l87 140q-54 6 -89 45t-35 93q0 61 44 102t110 41zM178 601q18 0 30.5 12t12.5 31q0 18 -12.5 30t-30.5 12q-26 2 -37 -20t0 -44t37 -21z" />
    <glyph glyph-name="franc" unicode="&#x20a3;" horiz-adv-x="506" 
d="M470 690v-146h-228v-114h189v-146h-189v-71h113v-133h-113v-80h-155v80h-52v133h52v477h383z" />
    <glyph glyph-name="lira" unicode="&#x20a4;" horiz-adv-x="586" 
d="M254 222v-76h303v-146h-510v146h52v76h-52v86h52v42h-52v85h52v51q0 93 64 154q65 62 160 62t160 -62q64 -61 64 -154h-155q0 29 -19.5 47.5t-49.5 18.5t-49.5 -18.5t-19.5 -47.5v-51h184v-85h-184v-42h184v-86h-184z" />
    <glyph glyph-name="peseta" unicode="&#x20a7;" horiz-adv-x="659" 
d="M587 487h43v-98h-43q-16 -89 -88 -149q-71 -57 -170 -57h-80v-181h-155v387h-52v98h52v205h235q99 0 170 -57q72 -58 88 -148zM326 546h-77v-59h172q-29 59 -95 59zM249 329h77q32 0 57 16.5t38 43.5h-172v-60z" />
    <glyph glyph-name="uni20A8" unicode="&#x20a8;" horiz-adv-x="1036" 
d="M553 459q0 -66 -33.5 -118.5t-90.5 -79.5l143 -261h-186l-118 236h-47v-236h-155v690h247q103 0 171 -66q69 -66 69 -165zM310 544h-89v-173h89q36 0 60 24.5t24 61.5t-24 62t-60 25zM850 314q66 -17 107 -47q51 -37 51 -111q0 -78 -57 -123q-55 -45 -140 -45t-142 48
q-57 50 -57 119h146q0 -21 16 -36t38 -15q21 0 35.5 11.5t14.5 27.5q0 38 -82 56q-161 38 -161 162q0 75 55 118t135 43q81 0 137 -47q55 -46 55 -113h-146q0 18 -13.5 31t-33.5 13q-18 0 -30.5 -10.5t-12.5 -24.5q0 -38 85 -57z" />
    <glyph glyph-name="Euro" unicode="&#x20ac;" horiz-adv-x="750" 
d="M478 552q-65 0 -116.5 -27t-79.5 -74h329l-21 -85h-336q-2 -21 0 -42h327l-21 -85h-278q28 -47 79.5 -74t116.5 -27q63 0 121.5 25t100.5 70v-165q-104 -80 -241 -80q-126 0 -222 69q-96 71 -128 182h-81l21 85h46q-2 21 0 42h-67l21 85h60q33 111 128 181t223 70
q136 0 240 -80v-165q-42 45 -100.5 70t-121.5 25z" />
    <glyph glyph-name="uni20B1" unicode="&#x20b1;" horiz-adv-x="659" 
d="M579 518h51v-68h-38v-15v-14h38v-68h-51q-25 -76 -94 -125q-68 -47 -156 -47h-80v-181h-155v353h-52v68h52v29h-52v68h52v172h235q89 0 156 -48q68 -47 94 -124zM311 554h-62v-36h150q-35 36 -88 36zM432 435q0 12 -1 15h-182v-29h182q1 3 1 14zM249 316h62q55 0 89 37
h-151v-37z" />
    <glyph glyph-name="uni20B5" unicode="&#x20b5;" horiz-adv-x="807" 
d="M482 537v-384q48 19 80 56.5t42 87.5h161q-13 -113 -92 -196q-77 -81 -191 -104v-67h-146v66q-129 23 -212 119q-82 97 -82 230q0 134 82 229q82 97 212 120v66h146v-67q115 -23 191 -105q79 -82 92 -195h-161q-10 50 -42 87.5t-80 56.5zM336 150v390q-61 -21 -98 -74
t-37 -121t37 -121t98 -74z" />
    <glyph glyph-name="uni20B9" unicode="&#x20b9;" horiz-adv-x="571" 
d="M518 598h-93q29 -38 40 -86h84l-31 -92h-48q-10 -78 -66 -134q-54 -54 -133 -66l214 -220h-206l-215 222v137h156q31 0 54 16.5t33 44.5h-243v92h232q-25 40 -76 40h-156v138h485z" />
    <glyph glyph-name="uni2116" unicode="&#x2116;" horiz-adv-x="1140" 
d="M1053 378q-55 -54 -137 -54t-137 54q-55 55 -55 135t55 134q55 55 137 55t137 -55q55 -54 55 -134t-55 -135zM222 690l287 -422v422h155v-690h-157l-286 422v-422h-155v690h156zM916 580q-29 0 -48 -19t-19 -48t19 -48t48 -19q28 0 47 19t19 48t-19 48t-47 19zM1093 141
h-354v132h354v-132z" />
    <glyph glyph-name="trademark" unicode="&#x2122;" horiz-adv-x="649" 
d="M83 616h-74v74h226v-74h-74v-224h-78v224zM443 512l64 178h99v-298h-77v164l-61 -164h-53l-60 164v-164h-78v298h102z" />
    <glyph glyph-name="uni2150" unicode="&#x2150;" horiz-adv-x="949" 
d="M218 374h65v-98h-247v98h74v188l-74 -33v113l105 48h77v-316zM161 0l470 690h133l-469 -690h-134zM647 313v101h282v-84l-144 -330h-121l138 313h-155z" />
    <glyph glyph-name="uni2151" unicode="&#x2151;" horiz-adv-x="915" 
d="M218 374h65v-98h-247v98h74v188l-74 -33v113l105 48h77v-316zM161 0l470 690h133l-469 -690h-134zM742 421q65 0 109 -41t44 -102q0 -44 -28 -91l-113 -187h-129l87 140q-54 6 -89 45t-35 93q0 61 44 102t110 41zM742 235q18 0 30.5 12t12.5 31q0 18 -12.5 30t-30.5 12
q-26 2 -37 -20t0 -44t37 -21z" />
    <glyph glyph-name="uni2152" unicode="&#x2152;" horiz-adv-x="1271" 
d="M218 374h65v-98h-247v98h74v188l-74 -33v113l105 48h77v-316zM161 0l470 690h133l-469 -690h-134zM1073 421q73 0 119 -60q47 -61 47 -154t-47 -154q-46 -60 -119 -60q-72 0 -119 59q-46 59 -46 155t46 154q46 60 119 60zM735 414h77v-316h65v-98h-247v98h74v188l-74 -33
v113zM1033 127q15 -30 40 -30t40 29q15 30 15 81t-15 80q-15 30 -40 30t-40 -31q-15 -30 -15 -79q0 -48 15 -80z" />
    <glyph glyph-name="uni2153" unicode="&#x2153;" horiz-adv-x="914" 
d="M218 374h65v-98h-247v98h74v188l-74 -33v113l105 48h77v-316zM161 0l470 690h133l-469 -690h-134zM844 215q47 -32 47 -87t-43 -95t-107 -40q-63 0 -107 39q-43 40 -43 100h110q-2 -24 19.5 -34t43.5 0t20 34q0 19 -14 31t-36 12h-61v78h61q18 0 29.5 11t11.5 27
q0 14 -9.5 23.5t-23.5 9.5q-15 0 -25 -9.5t-10 -23.5h-110q0 55 41 93q41 37 103 37t103 -38q42 -37 42 -87t-42 -81z" />
    <glyph glyph-name="uni2154" unicode="&#x2154;" horiz-adv-x="949" 
d="M195 374h131v-98h-296v82l144 138q40 37 40 63q0 16 -10.5 27t-25.5 11q-16 0 -27 -11t-11 -27h-109q0 59 43 98q43 40 108 40q61 0 101 -40q41 -39 41 -98q0 -60 -53 -113zM196 0l470 690h133l-469 -690h-134zM879 215q47 -32 47 -87t-43 -95t-107 -40q-63 0 -107 39
q-43 40 -43 100h110q-2 -24 19.5 -34t43.5 0t20 34q0 19 -14 31t-36 12h-61v78h61q18 0 29.5 11t11.5 27q0 14 -9.5 23.5t-23.5 9.5q-15 0 -25 -9.5t-10 -23.5h-110q0 55 41 93q41 37 103 37t103 -38q42 -37 42 -87t-42 -81z" />
    <glyph glyph-name="uni2155" unicode="&#x2155;" horiz-adv-x="936" 
d="M218 374h65v-98h-247v98h74v188l-74 -33v113l105 48h77v-316zM161 0l470 690h133l-469 -690h-134zM775 270q62 0 102 -40q42 -39 42 -98q0 -58 -45 -99q-43 -40 -109 -40q-65 0 -110 39q-44 41 -44 99h110q0 -28 27.5 -39.5t47.5 8.5q21 21 9.5 49t-40.5 28
q-25 0 -39 -18h-110l22 255h253v-97h-155l-5 -55q22 8 44 8z" />
    <glyph glyph-name="uni2156" unicode="&#x2156;" horiz-adv-x="971" 
d="M195 374h131v-98h-296v82l144 138q40 37 40 63q0 16 -10.5 27t-25.5 11q-16 0 -27 -11t-11 -27h-109q0 59 43 98q43 40 108 40q61 0 101 -40q41 -39 41 -98q0 -60 -53 -113zM196 0l470 690h133l-469 -690h-134zM810 270q62 0 102 -40q42 -39 42 -98q0 -58 -45 -99
q-43 -40 -109 -40q-65 0 -110 39q-44 41 -44 99h110q0 -28 27.5 -39.5t47.5 8.5q21 21 9.5 49t-40.5 28q-26 0 -39 -18h-110l22 255h253v-97h-155l-5 -55q22 8 44 8z" />
    <glyph glyph-name="uni2157" unicode="&#x2157;" horiz-adv-x="929" 
d="M172 269q-64 0 -107 39q-43 40 -43 100h110q-2 -24 19.5 -34t43.5 0t20 34q0 19 -14 31t-36 12h-61v78h61q18 0 29.5 11t11.5 27q0 14 -9.5 23.5t-23.5 9.5q-15 0 -25 -9.5t-10 -23.5h-110q0 55 41 93q41 37 103 37t103 -38q42 -37 42 -87t-42 -81q47 -32 47 -87t-43 -95
t-107 -40zM154 0l470 690h133l-469 -690h-134zM768 270q62 0 102 -40q42 -39 42 -98q0 -58 -45 -99q-43 -40 -109 -40q-65 0 -110 39q-44 41 -44 99h110q0 -28 27.5 -39.5t47.5 8.5q21 21 9.5 49t-40.5 28q-26 0 -39 -18h-110l22 255h253v-97h-155l-5 -55q22 8 44 8z" />
    <glyph glyph-name="uni2158" unicode="&#x2158;" horiz-adv-x="964" 
d="M313 276h-108v69h-186v79l159 266h135v-248h39v-97h-39v-69zM189 0l470 690h133l-469 -690h-134zM205 576l-75 -134h75v134zM803 270q62 0 102 -40q42 -39 42 -98q0 -58 -45 -99q-43 -40 -109 -40q-65 0 -110 39q-44 41 -44 99h110q0 -28 27.5 -39.5t47.5 8.5
q21 21 9.5 49t-40.5 28q-25 0 -39 -18h-110l22 255h253v-97h-155l-5 -55q22 8 44 8z" />
    <glyph glyph-name="uni2159" unicode="&#x2159;" horiz-adv-x="870" 
d="M218 374h65v-98h-247v98h74v188l-74 -33v113l105 48h77v-316zM161 0l470 690h133l-469 -690h-134zM813 414l-87 -140q54 -6 89 -45t35 -93q0 -61 -44 -102t-109 -41q-64 0 -110 41q-44 41 -44 102q0 42 28 91l114 187h128zM666 106q13 -12 31 -12t30 12t12 30t-12 30
q-12 13 -30 13t-31 -13q-12 -12 -12 -30t12 -30z" />
    <glyph glyph-name="uni215A" unicode="&#x215a;" horiz-adv-x="866" 
d="M33 407h110q0 -28 27.5 -39.5t47.5 8.5q21 21 9.5 49t-40.5 28q-25 0 -39 -18h-110l22 255h253v-97h-155l-5 -55q22 8 44 8q62 0 102 -40q42 -39 42 -98q0 -58 -45 -99q-43 -40 -109 -40q-65 0 -110 39q-44 41 -44 99zM157 0l470 690h133l-469 -690h-134zM809 414
l-87 -140q54 -6 89 -45t35 -93q0 -61 -44 -102t-109 -41q-64 0 -110 41q-44 41 -44 102q0 42 28 91l114 187h128zM662 106q13 -12 31 -12t30 12t12 30t-12 30q-12 13 -30 13t-31 -13q-12 -12 -12 -30t12 -30z" />
    <glyph glyph-name="oneeighth" unicode="&#x215b;" horiz-adv-x="917" 
d="M218 374h65v-98h-247v98h74v188l-74 -33v113l105 48h77v-316zM161 0l470 690h133l-469 -690h-134zM843 214q52 -36 52 -94q0 -53 -44 -91q-43 -36 -108 -36t-108 36q-43 37 -43 91q0 58 52 94q-46 33 -46 87q0 50 41 85q43 35 104 35t104 -35q42 -34 42 -85
q0 -53 -46 -87zM743 317q-14 0 -24.5 -9.5t-10.5 -22.5t10.5 -23t24.5 -10q15 0 25.5 9.5t10.5 23.5q0 13 -10.5 22.5t-25.5 9.5zM714 107q12 -10 29 -10t29 10q12 11 12 27t-12 26q-12 11 -29 11t-29 -11q-11 -10 -11 -26t11 -27z" />
    <glyph glyph-name="threeeighths" unicode="&#x215c;" horiz-adv-x="910" 
d="M172 269q-64 0 -107 39q-43 40 -43 100h110q-2 -24 19.5 -34t43.5 0t20 34q0 19 -14 31t-36 12h-61v78h61q18 0 29.5 11t11.5 27q0 14 -9.5 23.5t-23.5 9.5q-15 0 -25 -9.5t-10 -23.5h-110q0 55 41 93q41 37 103 37t103 -38q42 -37 42 -87t-42 -81q47 -32 47 -87t-43 -95
t-107 -40zM154 0l470 690h133l-469 -690h-134zM836 214q52 -36 52 -94q0 -53 -44 -91q-44 -36 -108 -36t-108 36q-43 37 -43 91q0 58 52 94q-46 33 -46 87q0 50 41 85q43 35 104 35t104 -35q42 -34 42 -85q0 -53 -46 -87zM736 317q-14 0 -24.5 -9.5t-10.5 -22.5t10.5 -23
t24.5 -10q15 0 25.5 9.5t10.5 23.5q0 13 -10.5 22.5t-25.5 9.5zM707 107q12 -10 29 -10t29 10q12 11 12 27t-12 26q-12 11 -29 11t-29 -11q-11 -10 -11 -26t11 -27z" />
    <glyph glyph-name="fiveeighths" unicode="&#x215d;" horiz-adv-x="913" 
d="M33 407h110q0 -28 27.5 -39.5t47.5 8.5q21 21 9.5 49t-40.5 28q-25 0 -39 -18h-110l22 255h253v-97h-155l-5 -55q22 8 44 8q62 0 102 -40q42 -39 42 -98q0 -58 -45 -99q-43 -40 -109 -40q-65 0 -110 39q-44 41 -44 99zM157 0l470 690h133l-469 -690h-134zM839 214
q52 -36 52 -94q0 -53 -44 -91q-43 -36 -108 -36t-108 36q-43 37 -43 91q0 58 52 94q-46 33 -46 87q0 50 41 85q43 35 104 35t104 -35q42 -34 42 -85q0 -53 -46 -87zM739 317q-14 0 -24.5 -9.5t-10.5 -22.5t10.5 -23t24.5 -10q15 0 25.5 9.5t10.5 23.5q0 13 -10.5 22.5
t-25.5 9.5zM710 107q12 -10 29 -10t29 10q12 11 12 27t-12 26q-12 11 -29 11t-29 -11q-11 -10 -11 -26t11 -27z" />
    <glyph glyph-name="seveneighths" unicode="&#x215e;" horiz-adv-x="838" 
d="M313 606l-144 -330h-121l138 313h-155v101h282v-84zM82 0l470 690h133l-469 -690h-134zM764 214q52 -36 52 -94q0 -53 -44 -91q-44 -36 -108 -36t-108 36q-43 37 -43 91q0 58 52 94q-46 33 -46 87q0 50 41 85q43 35 104 35t104 -35q42 -34 42 -85q0 -53 -46 -87zM664 317
q-14 0 -24.5 -9.5t-10.5 -22.5t10.5 -23t24.5 -10q15 0 25.5 9.5t10.5 23.5q0 13 -10.5 22.5t-25.5 9.5zM635 107q12 -10 29 -10t29 10q12 11 12 27t-12 26q-12 11 -29 11t-29 -11q-11 -10 -11 -26t11 -27z" />
    <glyph glyph-name="uni215F" unicode="&#x215f;" horiz-adv-x="564" 
d="M218 374h65v-98h-247v98h74v188l-74 -33v113l105 48h77v-316zM161 0l470 690h133l-469 -690h-134z" />
    <glyph glyph-name="uni2189" unicode="&#x2189;" horiz-adv-x="939" 
d="M197 269q-72 0 -119 59q-46 59 -46 155t46 154q46 60 119 60t119 -60q47 -61 47 -154t-47 -154q-46 -60 -119 -60zM186 0l470 690h133l-469 -690h-134zM157 562q-15 -30 -15 -79t15 -80q15 -30 40 -30t40 29q15 30 15 81t-15 80q-15 30 -40 30t-40 -31zM869 215
q47 -32 47 -87t-43 -95t-107 -40t-107 39q-43 40 -43 100h110q-2 -24 19.5 -34t43.5 0t20 34q0 19 -14 31t-36 12h-61v78h61q18 0 29.5 11t11.5 27q0 14 -9.5 23.5t-23.5 9.5q-15 0 -25 -9.5t-10 -23.5h-110q0 55 41 93q41 37 103 37t103 -38q42 -37 42 -87t-42 -81z" />
    <glyph glyph-name="arrowleft" unicode="&#x2190;" horiz-adv-x="650" 
d="M293 411h299v-132h-299l152 -150h-171l-216 216l216 216h171z" />
    <glyph glyph-name="arrowup" unicode="&#x2191;" horiz-adv-x="650" 
d="M326 612l200 -200v-171l-135 137v-300h-132v298l-134 -135v171z" />
    <glyph glyph-name="arrowright" unicode="&#x2192;" horiz-adv-x="650" 
d="M205 561h171l216 -216l-216 -216h-171l152 150h-299v132h299z" />
    <glyph glyph-name="arrowdown" unicode="&#x2193;" horiz-adv-x="650" 
d="M391 612v-299l151 152v-171l-217 -216l-216 216v171l150 -152v299h132z" />
    <glyph glyph-name="uni2196" unicode="&#x2196;" horiz-adv-x="650" 
d="M320 426l212 -212l-93 -93l-211 211l1 -203l-120 117v300h298l119 -121z" />
    <glyph glyph-name="uni2197" unicode="&#x2197;" horiz-adv-x="650" 
d="M136 425l118 121h283v-284l-121 -117l2 188l-211 -212l-94 93l212 212z" />
    <glyph glyph-name="uni2198" unicode="&#x2198;" horiz-adv-x="650" 
d="M423 351l-2 204l121 -117v-300h-299l-119 121l206 -1l-212 212l94 93z" />
    <glyph glyph-name="uni2199" unicode="&#x2199;" horiz-adv-x="650" 
d="M439 563l93 -93l-212 -212l206 1l-119 -121h-298v300l120 117l-1 -203z" />
    <glyph glyph-name="minus" unicode="&#x2212;" horiz-adv-x="534" 
d="M478 229h-422v132h422v-132z" />
    <glyph glyph-name="approxequal" unicode="&#x2248;" horiz-adv-x="590" 
d="M383 321q-42 0 -90 23t-61 23q-19 0 -31 -11.5t-12 -29.5h-133q0 87 37.5 136.5t113.5 49.5q41 0 89 -23q49 -23 62 -23q19 0 30.5 12t11.5 30h133q0 -88 -37 -137.5t-113 -49.5zM383 86q-42 0 -90 23t-61 23q-19 0 -31 -12t-12 -30h-133q0 88 37.5 137.5t113.5 49.5
q41 0 89 -23q49 -23 62 -23q18 0 30 11.5t12 29.5h133q0 -88 -37 -137t-113 -49z" />
    <glyph glyph-name="notequal" unicode="&#x2260;" horiz-adv-x="534" 
d="M478 463v-131h-131l-31 -72h162v-132h-218l-29 -68h-128l29 68h-76v132h132l31 72h-163v131h218l29 67h128l-29 -67h76z" />
    <glyph glyph-name="lessequal" unicode="&#x2264;" horiz-adv-x="464" 
d="M56 469l352 132v-146l-207 -60l207 -61v-145l-352 132v148zM408 22h-352v131h352v-131z" />
    <glyph glyph-name="greaterequal" unicode="&#x2265;" horiz-adv-x="464" 
d="M56 455v146l352 -132v-148l-352 -132v145l207 61zM408 22h-352v131h352v-131z" />
    <glyph glyph-name="uni2639" unicode="&#x2639;" horiz-adv-x="798" 
d="M653 90q-102 -102 -254 -102q-151 0 -255 102q-102 104 -102 255q0 152 102 254q103 103 255 103t254 -103q103 -102 103 -254t-103 -255zM201 145q80 -80 198 -80t198 80q80 82 80 200q0 119 -80 199q-79 81 -198 81t-198 -81q-79 -79 -79 -199t79 -200zM314 423
q-14 -14 -34 -14t-34 14t-14 34t14 34t34 14t34 -14t14 -34t-14 -34zM552 423q-14 -14 -34 -14t-34 14t-14 34t14 34t34 14t34 -14t14 -34t-14 -34zM282 180h-80q0 85 56 141t141 56t141 -56t56 -141h-79q0 52 -34 86t-84 34t-83.5 -34t-33.5 -86z" />
    <glyph glyph-name="smileface" unicode="&#x263a;" horiz-adv-x="798" 
d="M653 90q-102 -102 -254 -102q-151 0 -255 102q-102 104 -102 255q0 152 102 254q103 103 255 103t254 -103q103 -102 103 -254t-103 -255zM201 145q80 -80 198 -80t198 80q80 82 80 200q0 119 -80 199q-79 81 -198 81t-198 -81q-79 -79 -79 -199t79 -200zM314 423
q-14 -14 -34 -14t-34 14t-14 34t14 34t34 14t34 -14t14 -34t-14 -34zM552 423q-14 -14 -34 -14t-34 14t-14 34t14 34t34 14t34 -14t14 -34t-14 -34zM178 345h80q0 -63 40 -103q41 -41 101 -41t101 41t41 103h79q0 -95 -63 -158t-158 -63t-158 63t-63 158z" />
    <glyph glyph-name="uni279D" unicode="&#x279d;" horiz-adv-x="1082" 
d="M792 561l216 -216l-216 -216v150h-718v132h718v150z" />
    <glyph glyph-name="uni27F5" unicode="&#x27f5;" horiz-adv-x="1082" 
d="M309 411h699v-132h-699l152 -150h-171l-216 216l216 216h171z" />
    <glyph glyph-name="uni27F6" unicode="&#x27f6;" horiz-adv-x="1082" 
d="M621 561h171l216 -216l-216 -216h-171l152 150h-699v132h699z" />
    <glyph glyph-name="NULL" horiz-adv-x="0" 
 />
    <glyph glyph-name="CR" horiz-adv-x="333" 
 />
    <glyph glyph-name="K.ss02" horiz-adv-x="650" 
d="M364 349l291 -349h-201l-233 285v-285h-155v690h155v-280l230 280h198z" />
    <glyph glyph-name="uni0136.ss02" horiz-adv-x="650" 
d="M649 690l-285 -341l291 -349h-201l-233 285v-285h-155v690h155v-280l230 280h198zM344 -227h-120l43 175h150z" />
    <glyph glyph-name="R.ss02" horiz-adv-x="586" 
d="M572 0h-193l-146 236h-12v-236h-155v690h247q103 0 171 -66q69 -66 69 -165q0 -72 -39.5 -127.5t-105.5 -79.5zM310 544h-89v-173h89q36 0 60 24.5t24 61.5t-24 62t-60 25z" />
    <glyph glyph-name="Racute.ss02" horiz-adv-x="586" 
d="M305 890h183l-130 -148h-153zM572 0h-193l-146 236h-12v-236h-155v690h247q103 0 171 -66q69 -66 69 -165q0 -72 -39.5 -127.5t-105.5 -79.5zM310 544h-89v-173h89q36 0 60 24.5t24 61.5t-24 62t-60 25z" />
    <glyph glyph-name="Rcaron.ss02" horiz-adv-x="586" 
d="M475 890l-98 -148h-176l-99 148h137l50 -69l50 69h136zM572 0h-193l-146 236h-12v-236h-155v690h247q103 0 171 -66q69 -66 69 -165q0 -72 -39.5 -127.5t-105.5 -79.5zM310 544h-89v-173h89q36 0 60 24.5t24 61.5t-24 62t-60 25z" />
    <glyph glyph-name="uni0156.ss02" horiz-adv-x="586" 
d="M233 236h-12v-236h-155v690h247q103 0 171 -66q69 -66 69 -165q0 -72 -39.5 -127.5t-105.5 -79.5l164 -252h-193zM310 544h-89v-173h89q36 0 60 24.5t24 61.5t-24 62t-60 25zM315 -227h-120l43 175h150z" />
    <glyph glyph-name="uni0210.ss02" horiz-adv-x="586" 
d="M165 890l86 -148h-141l-104 148h159zM388 890l86 -148h-141l-103 148h158zM572 0h-193l-146 236h-12v-236h-155v690h247q103 0 171 -66q69 -66 69 -165q0 -72 -39.5 -127.5t-105.5 -79.5zM310 544h-89v-173h89q36 0 60 24.5t24 61.5t-24 62t-60 25z" />
    <glyph glyph-name="uni1E5A.ss02" horiz-adv-x="586" 
d="M233 236h-12v-236h-155v690h247q103 0 171 -66q69 -66 69 -165q0 -72 -39.5 -127.5t-105.5 -79.5l164 -252h-193zM310 544h-89v-173h89q36 0 60 24.5t24 61.5t-24 62t-60 25zM298 -48q37 0 61 -24t24 -61q0 -36 -24 -60t-61 -24q-36 0 -60.5 24t-24.5 60q0 37 24.5 61
t60.5 24z" />
    <glyph glyph-name="uni0212.ss02" horiz-adv-x="586" 
d="M237 740h-113q0 67 47 112t118 45t118 -45t47 -112h-113q0 23 -14.5 38t-37.5 15t-37.5 -15t-14.5 -38zM572 0h-193l-146 236h-12v-236h-155v690h247q103 0 171 -66q69 -66 69 -165q0 -72 -39.5 -127.5t-105.5 -79.5zM310 544h-89v-173h89q36 0 60 24.5t24 61.5t-24 62
t-60 25z" />
    <glyph glyph-name="G.ss03" horiz-adv-x="782" 
d="M404 255v140h350v-53q-2 -152 -104 -253q-103 -101 -253 -101q-156 0 -261 102q-104 104 -104 255q0 152 104 254q104 103 261 103q125 0 220 -68q97 -68 122 -172h-173q-24 42 -69 66.5t-100 24.5q-89 0 -147 -60q-59 -59 -59 -148q0 -88 59 -149q59 -59 147 -59
q65 0 115.5 32t71.5 86h-180z" />
    <glyph glyph-name="uni01F4.ss03" horiz-adv-x="782" 
d="M414 890h183l-130 -148h-153zM404 255v140h350v-53q-2 -152 -104 -253q-103 -101 -253 -101q-156 0 -261 102q-104 104 -104 255q0 152 104 254q104 103 261 103q125 0 220 -68q97 -68 122 -172h-173q-24 42 -69 66.5t-100 24.5q-89 0 -147 -60q-59 -59 -59 -148
q0 -88 59 -149q59 -59 147 -59q65 0 115.5 32t71.5 86h-180z" />
    <glyph glyph-name="Gbreve.ss03" horiz-adv-x="782" 
d="M232 889h113q0 -23 14.5 -38t37.5 -15t37.5 15t14.5 38h113q0 -67 -48 -112q-46 -45 -117 -45q-70 0 -118 45q-47 45 -47 112zM404 255v140h350v-53q-2 -152 -104 -253q-103 -101 -253 -101q-156 0 -261 102q-104 104 -104 255q0 152 104 254q104 103 261 103
q125 0 220 -68q97 -68 122 -172h-173q-24 42 -69 66.5t-100 24.5q-89 0 -147 -60q-59 -59 -59 -148q0 -88 59 -149q59 -59 147 -59q65 0 115.5 32t71.5 86h-180z" />
    <glyph glyph-name="Gcaron.ss03" horiz-adv-x="782" 
d="M583 890l-98 -148h-176l-99 148h137l50 -69l50 69h136zM404 255v140h350v-53q-2 -152 -104 -253q-103 -101 -253 -101q-156 0 -261 102q-104 104 -104 255q0 152 104 254q104 103 261 103q125 0 220 -68q97 -68 122 -172h-173q-24 42 -69 66.5t-100 24.5q-89 0 -147 -60
q-59 -59 -59 -148q0 -88 59 -149q59 -59 147 -59q65 0 115.5 32t71.5 86h-180z" />
    <glyph glyph-name="Gcircumflex.ss03" horiz-adv-x="782" 
d="M447 742l-50 69l-50 -69h-137l99 148h176l98 -148h-136zM404 255v140h350v-53q-2 -152 -104 -253q-103 -101 -253 -101q-156 0 -261 102q-104 104 -104 255q0 152 104 254q104 103 261 103q125 0 220 -68q97 -68 122 -172h-173q-24 42 -69 66.5t-100 24.5q-89 0 -147 -60
q-59 -59 -59 -148q0 -88 59 -149q59 -59 147 -59q65 0 115.5 32t71.5 86h-180z" />
    <glyph glyph-name="uni0122.ss03" horiz-adv-x="782" 
d="M404 255v140h350v-53q-2 -152 -104 -253q-103 -101 -253 -101q-156 0 -261 102q-104 104 -104 255q0 152 104 254q104 103 261 103q125 0 220 -68q97 -68 122 -172h-173q-24 42 -69 66.5t-100 24.5q-89 0 -147 -60q-59 -59 -59 -148q0 -88 59 -149q59 -59 147 -59
q65 0 115.5 32t71.5 86h-180zM414 -227h-120l43 175h150z" />
    <glyph glyph-name="Gdotaccent.ss03" horiz-adv-x="782" 
d="M397 738q-36 0 -60.5 24t-24.5 61q0 36 24.5 60t60.5 24q37 0 61 -24t24 -60q0 -37 -24 -61t-61 -24zM404 255v140h350v-53q-2 -152 -104 -253q-103 -101 -253 -101q-156 0 -261 102q-104 104 -104 255q0 152 104 254q104 103 261 103q125 0 220 -68q97 -68 122 -172
h-173q-24 42 -69 66.5t-100 24.5q-89 0 -147 -60q-59 -59 -59 -148q0 -88 59 -149q59 -59 147 -59q65 0 115.5 32t71.5 86h-180z" />
    <glyph glyph-name="B.ss05" horiz-adv-x="575" 
d="M447 367q48 -19 79 -69t31 -111q0 -81 -56 -134t-139 -53h-296v690h271q79 0 132 -50t53 -127q0 -45 -21 -85t-54 -61zM216 140h108q32 0 53 21t21 53t-21.5 53.5t-52.5 21.5h-74v131h49q27 0 45.5 19t18.5 46q0 28 -18.5 46.5t-45.5 18.5h-83v-410z" />
    <glyph glyph-name="P.ss05" horiz-adv-x="581" 
d="M66 690h255q104 0 172 -67q70 -67 70 -168t-70 -168q-68 -67 -172 -67h-66v146h62q37 0 62 25.5t25 63.5t-25 63.5t-62 25.5h-96v-544h-155v690z" />
    <glyph glyph-name="R.ss05" horiz-adv-x="586" 
d="M440 273l-16 -7l148 -266h-192l-126 238v133h56q36 0 60 24.5t24 61.5t-24 62t-60 25h-89v-544h-155v690h247q103 0 171 -66q69 -66 69 -165q0 -62 -31 -112.5t-82 -73.5z" />
    <glyph glyph-name="Racute.ss05" horiz-adv-x="586" 
d="M305 890h183l-130 -148h-153zM440 273l-16 -7l148 -266h-192l-126 238v133h56q36 0 60 24.5t24 61.5t-24 62t-60 25h-89v-544h-155v690h247q103 0 171 -66q69 -66 69 -165q0 -62 -31 -112.5t-82 -73.5z" />
    <glyph glyph-name="Rcaron.ss05" horiz-adv-x="586" 
d="M475 890l-98 -148h-176l-99 148h137l50 -69l50 69h136zM440 273l-16 -7l148 -266h-192l-126 238v133h56q36 0 60 24.5t24 61.5t-24 62t-60 25h-89v-544h-155v690h247q103 0 171 -66q69 -66 69 -165q0 -62 -31 -112.5t-82 -73.5z" />
    <glyph glyph-name="uni0156.ss05" horiz-adv-x="586" 
d="M310 544h-89v-544h-155v690h247q103 0 171 -66q69 -66 69 -165q0 -62 -31 -112.5t-82 -73.5l-16 -7l148 -266h-192l-126 238v133h56q36 0 60 24.5t24 61.5t-24 62t-60 25zM315 -227h-120l43 175h150z" />
    <glyph glyph-name="uni0210.ss05" horiz-adv-x="586" 
d="M165 890l86 -148h-141l-104 148h159zM388 890l86 -148h-141l-103 148h158zM440 273l-16 -7l148 -266h-192l-126 238v133h56q36 0 60 24.5t24 61.5t-24 62t-60 25h-89v-544h-155v690h247q103 0 171 -66q69 -66 69 -165q0 -62 -31 -112.5t-82 -73.5z" />
    <glyph glyph-name="uni1E5A.ss05" horiz-adv-x="586" 
d="M310 544h-89v-544h-155v690h247q103 0 171 -66q69 -66 69 -165q0 -62 -31 -112.5t-82 -73.5l-16 -7l148 -266h-192l-126 238v133h56q36 0 60 24.5t24 61.5t-24 62t-60 25zM298 -48q37 0 61 -24t24 -61q0 -36 -24 -60t-61 -24q-36 0 -60.5 24t-24.5 60q0 37 24.5 61
t60.5 24z" />
    <glyph glyph-name="uni0212.ss05" horiz-adv-x="586" 
d="M237 740h-113q0 67 47 112t118 45t118 -45t47 -112h-113q0 23 -14.5 38t-37.5 15t-37.5 -15t-14.5 -38zM440 273l-16 -7l148 -266h-192l-126 238v133h56q36 0 60 24.5t24 61.5t-24 62t-60 25h-89v-544h-155v690h247q103 0 171 -66q69 -66 69 -165q0 -62 -31 -112.5
t-82 -73.5z" />
    <glyph glyph-name="I.ss06" horiz-adv-x="287" 
d="M221 0h-155v690h155v-690z" />
    <glyph glyph-name="Iacute.ss06" horiz-adv-x="287" 
d="M213 742h-153l100 148h183zM221 0h-155v690h155v-690z" />
    <glyph glyph-name="Ibreve.ss06" horiz-adv-x="287" 
d="M-21 889h113q0 -23 14.5 -38t37.5 -15t37.5 15t14.5 38h113q0 -67 -48 -112q-47 -45 -117 -45t-118 45q-47 45 -47 112zM221 0h-155v690h155v-690z" />
    <glyph glyph-name="Icircumflex.ss06" horiz-adv-x="287" 
d="M194 742l-50 69l-50 -69h-137l99 148h176l98 -148h-136zM221 0h-155v690h155v-690z" />
    <glyph glyph-name="uni0208.ss06" horiz-adv-x="287" 
d="M107 742h-141l-104 148h159zM330 742h-141l-103 148h158zM221 0h-155v690h155v-690z" />
    <glyph glyph-name="Idieresis.ss06" horiz-adv-x="287" 
d="M-47 819q0 34 23 57t58 23t58 -23t23 -57q0 -35 -23.5 -58t-57.5 -23t-57.5 23t-23.5 58zM172 819q0 34 23 57t58 23t58 -23t23 -57q0 -35 -23 -58t-58 -23t-58 23t-23 58zM221 0h-155v690h155v-690z" />
    <glyph glyph-name="Idotaccent.ss06" horiz-adv-x="287" 
d="M144 738q-36 0 -60.5 24t-24.5 61q0 36 24.5 60t60.5 24q37 0 61 -24t24 -60q0 -37 -24 -61t-61 -24zM221 0h-155v690h155v-690z" />
    <glyph glyph-name="uni1ECA.ss06" horiz-adv-x="287" 
d="M221 0h-155v690h155v-690zM144 -217q-36 0 -60.5 24t-24.5 60q0 37 24.5 61t60.5 24q37 0 61 -24t24 -61q0 -36 -24 -60t-61 -24z" />
    <glyph glyph-name="Igrave.ss06" horiz-adv-x="287" 
d="M227 742h-153l-130 148h183zM221 0h-155v690h155v-690z" />
    <glyph glyph-name="uni020A.ss06" horiz-adv-x="287" 
d="M92 740h-113q0 67 47 112q46 45 118 45t118 -45q47 -45 47 -112h-113q0 23 -14.5 38t-37.5 15t-37.5 -15t-14.5 -38zM221 0h-155v690h155v-690z" />
    <glyph glyph-name="Imacron.ss06" horiz-adv-x="287" 
d="M281 751h-274v123h274v-123zM221 0h-155v690h155v-690z" />
    <glyph glyph-name="Iogonek.ss06" horiz-adv-x="287" 
d="M161 -140q35 0 63 24v-103q-37 -26 -94 -26q-56 0 -93 32.5t-37 81.5q0 42 27.5 77.5t72.5 53.5h-34v690h155v-690h-1q-105 -46 -105 -98q0 -20 13 -31t33 -11z" />
    <glyph glyph-name="Itilde.ss06" horiz-adv-x="287" 
d="M208 748q-30 0 -65 18q-32 19 -45 19q-15 0 -25 -10t-10 -25h-102q0 67 31.5 108.5t86.5 41.5q31 0 65 -19q35 -18 46 -18q15 0 24.5 10t9.5 25h103q0 -68 -31.5 -109t-87.5 -41zM221 0h-155v690h155v-690z" />
    <glyph glyph-name="i.loclTRK" horiz-adv-x="262" 
d="M131 558q-36 0 -60.5 24t-24.5 61q0 36 24.5 60t60.5 24q37 0 61 -24t24 -60q0 -37 -24 -61t-61 -24zM204 0h-146v510h146v-510z" />
    <glyph glyph-name="a.ss01" 
d="M430 454v56h146v-510h-146v56q-62 -68 -154 -68q-106 0 -176 76t-70 191q0 114 70 190q71 77 176 77q92 0 154 -68zM305 129q54 0 89.5 36t35.5 90t-35.5 90t-89.5 36q-53 0 -88.5 -36t-35.5 -90t35.5 -90t88.5 -36z" />
    <glyph glyph-name="aacute.ss01" 
d="M338 710h183l-130 -148h-153zM430 454v56h146v-510h-146v56q-62 -68 -154 -68q-106 0 -176 76t-70 191q0 114 70 190q71 77 176 77q92 0 154 -68zM305 129q54 0 89.5 36t35.5 90t-35.5 90t-89.5 36q-53 0 -88.5 -36t-35.5 -90t35.5 -90t88.5 -36z" />
    <glyph glyph-name="abreve.ss01" 
d="M157 709h113q0 -23 14.5 -38t37.5 -15t37.5 15t14.5 38h113q0 -67 -48 -112q-47 -45 -117 -45t-118 45q-47 45 -47 112zM430 454v56h146v-510h-146v56q-62 -68 -154 -68q-106 0 -176 76t-70 191q0 114 70 190q71 77 176 77q92 0 154 -68zM305 129q54 0 89.5 36t35.5 90
t-35.5 90t-89.5 36q-53 0 -88.5 -36t-35.5 -90t35.5 -90t88.5 -36z" />
    <glyph glyph-name="uni01CE.ss01" 
d="M508 710l-98 -148h-176l-99 148h137l50 -69l50 69h136zM430 454v56h146v-510h-146v56q-62 -68 -154 -68q-106 0 -176 76t-70 191q0 114 70 190q71 77 176 77q92 0 154 -68zM305 129q54 0 89.5 36t35.5 90t-35.5 90t-89.5 36q-53 0 -88.5 -36t-35.5 -90t35.5 -90t88.5 -36
z" />
    <glyph glyph-name="acircumflex.ss01" 
d="M372 562l-50 69l-50 -69h-137l99 148h176l98 -148h-136zM430 454v56h146v-510h-146v56q-62 -68 -154 -68q-106 0 -176 76t-70 191q0 114 70 190q71 77 176 77q92 0 154 -68zM305 129q54 0 89.5 36t35.5 90t-35.5 90t-89.5 36q-53 0 -88.5 -36t-35.5 -90t35.5 -90
t88.5 -36z" />
    <glyph glyph-name="uni0201.ss01" 
d="M198 710l86 -148h-141l-104 148h159zM421 710l86 -148h-141l-103 148h158zM430 454v56h146v-510h-146v56q-62 -68 -154 -68q-106 0 -176 76t-70 191q0 114 70 190q71 77 176 77q92 0 154 -68zM305 129q54 0 89.5 36t35.5 90t-35.5 90t-89.5 36q-53 0 -88.5 -36t-35.5 -90
t35.5 -90t88.5 -36z" />
    <glyph glyph-name="adieresis.ss01" 
d="M131 639q0 34 23 57t58 23t58 -23t23 -57q0 -35 -23.5 -58t-57.5 -23t-57.5 23t-23.5 58zM350 639q0 34 23 57t58 23t58 -23t23 -57q0 -35 -23 -58t-58 -23t-58 23t-23 58zM430 454v56h146v-510h-146v56q-62 -68 -154 -68q-106 0 -176 76t-70 191q0 114 70 190
q71 77 176 77q92 0 154 -68zM305 129q54 0 89.5 36t35.5 90t-35.5 90t-89.5 36q-53 0 -88.5 -36t-35.5 -90t35.5 -90t88.5 -36z" />
    <glyph glyph-name="uni1EA1.ss01" 
d="M430 454v56h146v-510h-146v56q-62 -68 -154 -68q-106 0 -176 76t-70 191q0 114 70 190q71 77 176 77q92 0 154 -68zM305 129q54 0 89.5 36t35.5 90t-35.5 90t-89.5 36q-53 0 -88.5 -36t-35.5 -90t35.5 -90t88.5 -36zM321 -48q37 0 61 -24t24 -61q0 -36 -24 -60t-61 -24
q-36 0 -60.5 24t-24.5 60q0 37 24.5 61t60.5 24z" />
    <glyph glyph-name="agrave.ss01" 
d="M305 710l100 -148h-153l-130 148h183zM430 454v56h146v-510h-146v56q-62 -68 -154 -68q-106 0 -176 76t-70 191q0 114 70 190q71 77 176 77q92 0 154 -68zM305 129q54 0 89.5 36t35.5 90t-35.5 90t-89.5 36q-53 0 -88.5 -36t-35.5 -90t35.5 -90t88.5 -36z" />
    <glyph glyph-name="uni0203.ss01" 
d="M270 560h-113q0 67 47 112q46 45 118 45t118 -45q47 -45 47 -112h-113q0 23 -14.5 38t-37.5 15t-37.5 -15t-14.5 -38zM430 454v56h146v-510h-146v56q-62 -68 -154 -68q-106 0 -176 76t-70 191q0 114 70 190q71 77 176 77q92 0 154 -68zM305 129q54 0 89.5 36t35.5 90
t-35.5 90t-89.5 36q-53 0 -88.5 -36t-35.5 -90t35.5 -90t88.5 -36z" />
    <glyph glyph-name="amacron.ss01" 
d="M185 694h274v-123h-274v123zM430 454v56h146v-510h-146v56q-62 -68 -154 -68q-106 0 -176 76t-70 191q0 114 70 190q71 77 176 77q92 0 154 -68zM305 129q54 0 89.5 36t35.5 90t-35.5 90t-89.5 36q-53 0 -88.5 -36t-35.5 -90t35.5 -90t88.5 -36z" />
    <glyph glyph-name="aogonek.ss01" 
d="M516 -140q34 0 63 24v-103q-37 -26 -94 -26q-56 0 -93 32.5t-37 81.5q0 42 27.5 77.5t72.5 53.5h-25v56q-62 -68 -154 -68q-106 0 -176 76t-70 191q0 114 70 190q71 77 176 77q92 0 154 -68v56h146v-510h-1q-105 -46 -105 -98q0 -20 13 -31t33 -11zM305 129q54 0 89.5 36
t35.5 90t-35.5 90t-89.5 36q-53 0 -88.5 -36t-35.5 -90t35.5 -90t88.5 -36z" />
    <glyph glyph-name="aring.ss01" 
d="M398 581q-32 -30 -77 -30t-77 30q-31 30 -31 75t31 75q32 30 77 30t77 -30q31 -30 31 -75t-31 -75zM344 679q-9 10 -23 10t-23 -10q-9 -9 -9 -23t9 -24q9 -9 23 -9t23 9q9 10 9 24t-9 23zM430 454v56h146v-510h-146v56q-62 -68 -154 -68q-106 0 -176 76t-70 191
q0 114 70 190q71 77 176 77q92 0 154 -68zM305 129q54 0 89.5 36t35.5 90t-35.5 90t-89.5 36q-53 0 -88.5 -36t-35.5 -90t35.5 -90t88.5 -36z" />
    <glyph glyph-name="atilde.ss01" 
d="M275 605q-15 0 -25 -10t-10 -25h-102q0 67 31.5 108.5t86.5 41.5q31 0 65 -19q35 -18 46 -18q15 0 24.5 10t9.5 25h103q0 -68 -31.5 -109t-87.5 -41q-31 0 -65 18q-32 19 -45 19zM430 454v56h146v-510h-146v56q-62 -68 -154 -68q-106 0 -176 76t-70 191q0 114 70 190
q71 77 176 77q92 0 154 -68zM305 129q54 0 89.5 36t35.5 90t-35.5 90t-89.5 36q-53 0 -88.5 -36t-35.5 -90t35.5 -90t88.5 -36z" />
    <glyph glyph-name="k.ss02" horiz-adv-x="548" 
d="M337 257l214 -257h-185l-162 196v-196h-146v720h146v-398l156 188h184z" />
    <glyph glyph-name="uni0137.ss02" horiz-adv-x="548" 
d="M366 0l-162 196v-196h-146v720h146v-398l156 188h184l-207 -253l214 -257h-185zM306 -227h-120l43 175h150z" />
    <glyph glyph-name="g.ss04" 
d="M430 455v55h146v-455q0 -115 -72 -186q-73 -71 -191 -71q-99 0 -167.5 51t-90.5 139h150q12 -26 41 -41.5t67 -15.5q53 0 85 34.5t32 90.5v16q-61 -67 -154 -67q-105 0 -176 74q-70 73 -70 185q0 111 70 184q71 74 176 74q93 0 154 -67zM215 174q36 -36 90 -36
q55 0 89 36q36 36 36 90t-36 90q-34 36 -89 36q-54 0 -90 -36q-35 -37 -35 -90t35 -90z" />
    <glyph glyph-name="uni01F5.ss04" 
d="M337 710h183l-130 -148h-153zM430 455v55h146v-455q0 -115 -72 -186q-73 -71 -191 -71q-99 0 -167.5 51t-90.5 139h150q12 -26 41 -41.5t67 -15.5q53 0 85 34.5t32 90.5v16q-61 -67 -154 -67q-105 0 -176 74q-70 73 -70 185q0 111 70 184q71 74 176 74q93 0 154 -67z
M215 174q36 -36 90 -36q55 0 89 36q36 36 36 90t-36 90q-34 36 -89 36q-54 0 -90 -36q-35 -37 -35 -90t35 -90z" />
    <glyph glyph-name="gbreve.ss04" 
d="M155 709h113q0 -23 14.5 -38t37.5 -15t37.5 15t14.5 38h113q0 -67 -48 -112q-47 -45 -117 -45t-118 45q-47 45 -47 112zM430 455v55h146v-455q0 -115 -72 -186q-73 -71 -191 -71q-99 0 -167.5 51t-90.5 139h150q12 -26 41 -41.5t67 -15.5q53 0 85 34.5t32 90.5v16
q-61 -67 -154 -67q-105 0 -176 74q-70 73 -70 185q0 111 70 184q71 74 176 74q93 0 154 -67zM215 174q36 -36 90 -36q55 0 89 36q36 36 36 90t-36 90q-34 36 -89 36q-54 0 -90 -36q-35 -37 -35 -90t35 -90z" />
    <glyph glyph-name="gcaron.ss04" 
d="M507 710l-98 -148h-176l-99 148h137l50 -69l50 69h136zM430 455v55h146v-455q0 -115 -72 -186q-73 -71 -191 -71q-99 0 -167.5 51t-90.5 139h150q12 -26 41 -41.5t67 -15.5q53 0 85 34.5t32 90.5v16q-61 -67 -154 -67q-105 0 -176 74q-70 73 -70 185q0 111 70 184
q71 74 176 74q93 0 154 -67zM215 174q36 -36 90 -36q55 0 89 36q36 36 36 90t-36 90q-34 36 -89 36q-54 0 -90 -36q-35 -37 -35 -90t35 -90z" />
    <glyph glyph-name="gcircumflex.ss04" 
d="M371 562l-50 69l-50 -69h-137l99 148h176l98 -148h-136zM430 455v55h146v-455q0 -115 -72 -186q-73 -71 -191 -71q-99 0 -167.5 51t-90.5 139h150q12 -26 41 -41.5t67 -15.5q53 0 85 34.5t32 90.5v16q-61 -67 -154 -67q-105 0 -176 74q-70 73 -70 185q0 111 70 184
q71 74 176 74q93 0 154 -67zM215 174q36 -36 90 -36q55 0 89 36q36 36 36 90t-36 90q-34 36 -89 36q-54 0 -90 -36q-35 -37 -35 -90t35 -90z" />
    <glyph glyph-name="uni0123.ss04" 
d="M297 736h120l-43 -176h-150zM430 455v55h146v-455q0 -115 -72 -186q-73 -71 -191 -71q-99 0 -167.5 51t-90.5 139h150q12 -26 41 -41.5t67 -15.5q53 0 85 34.5t32 90.5v16q-61 -67 -154 -67q-105 0 -176 74q-70 73 -70 185q0 111 70 184q71 74 176 74q93 0 154 -67z
M215 174q36 -36 90 -36q55 0 89 36q36 36 36 90t-36 90q-34 36 -89 36q-54 0 -90 -36q-35 -37 -35 -90t35 -90z" />
    <glyph glyph-name="gdotaccent.ss04" 
d="M320 558q-36 0 -60.5 24t-24.5 61q0 36 24.5 60t60.5 24q37 0 61 -24t24 -60q0 -37 -24 -61t-61 -24zM430 455v55h146v-455q0 -115 -72 -186q-73 -71 -191 -71q-99 0 -167.5 51t-90.5 139h150q12 -26 41 -41.5t67 -15.5q53 0 85 34.5t32 90.5v16q-61 -67 -154 -67
q-105 0 -176 74q-70 73 -70 185q0 111 70 184q71 74 176 74q93 0 154 -67zM215 174q36 -36 90 -36q55 0 89 36q36 36 36 90t-36 90q-34 36 -89 36q-54 0 -90 -36q-35 -37 -35 -90t35 -90z" />
    <glyph glyph-name="f_t.dlig" horiz-adv-x="756" 
d="M725 510v-133h-121v-244h121v-133h-267v377h-210v-377h-146v377h-77v133h77v210h267v-133h-121v-77h210v150h146v-150h121z" />
    <glyph glyph-name="t_t.dlig" horiz-adv-x="785" 
d="M754 510v-133h-121v-244h121v-133h-267v377h-230v-244h121v-133h-267v377h-89v133h89v150h146v-150h230v150h146v-150h121z" />
    <glyph glyph-name="zero.zero" horiz-adv-x="631" 
d="M315 702q121 0 197 -100q76 -98 76 -257q0 -158 -76 -258q-76 -99 -197 -99q-119 0 -196 99q-76 100 -76 258q0 159 76 257q76 100 196 100zM315 553q-50 0 -82 -59q-31 -58 -31 -149q0 -26 3 -50l188 207q-30 51 -78 51zM315 137q51 0 82 58q32 59 32 150q0 26 -3 50
l-188 -207q31 -51 77 -51z" />
    <glyph glyph-name="zero.subs" horiz-adv-x="395" 
d="M197 -121q-73 0 -119 60q-46 58 -46 154t46 154q46 60 119 60t119 -60q47 -61 47 -154t-47 -154q-46 -60 -119 -60zM157 13q15 -30 40 -30t40 29q15 30 15 81t-15 80q-15 30 -40 30t-40 -31q-15 -30 -15 -79t15 -80z" />
    <glyph glyph-name="one.subs" horiz-adv-x="312" 
d="M218 300v-316h65v-98h-247v98h74v188l-74 -33v113l105 48h77z" />
    <glyph glyph-name="two.subs" horiz-adv-x="357" 
d="M271 56l-76 -72h131v-98h-296v82l144 138q40 37 40 63q0 16 -10.5 27t-25.5 11q-16 0 -27 -11t-11 -27h-109q0 59 43 98q43 40 108 40q61 0 101 -40q41 -39 41 -98q0 -60 -53 -113z" />
    <glyph glyph-name="three.subs" horiz-adv-x="345" 
d="M275 101q47 -32 47 -87t-43 -95t-107 -40t-107 40q-43 39 -43 99h110q-2 -24 19.5 -34t43.5 0t20 34q0 19 -14 31t-36 12h-61v78h61q18 0 29.5 11t11.5 27q0 14 -9.5 23.5t-23.5 9.5q-15 0 -25 -9.5t-10 -23.5h-110q0 55 41 93q41 37 103 37t103 -38q42 -37 42 -87
t-42 -81z" />
    <glyph glyph-name="four.subs" horiz-adv-x="374" 
d="M313 52h39v-97h-39v-69h-108v69h-186v79l159 266h135v-248zM205 186l-75 -134h75v134z" />
    <glyph glyph-name="five.subs" horiz-adv-x="358" 
d="M197 156q62 0 102 -40q42 -39 42 -98q0 -58 -45 -99q-43 -40 -109 -40t-110 40q-44 39 -44 98h110q0 -28 27.5 -39.5t47.5 9.5q21 19 9.5 47.5t-40.5 28.5q-25 0 -39 -18h-110l22 255h253v-97h-155l-5 -55q22 8 44 8z" />
    <glyph glyph-name="six.subs" horiz-adv-x="351" 
d="M294 300l-87 -140q54 -6 89 -45t35 -93q0 -61 -44 -102t-109 -41q-64 0 -110 41q-44 41 -44 102q0 42 28 91l114 187h128zM147 -8q13 -12 31 -12t30 12t12 30t-12 30q-12 13 -30 13t-31 -13q-12 -12 -12 -30t12 -30z" />
    <glyph glyph-name="seven.subs" horiz-adv-x="333" 
d="M31 199v101h282v-84l-144 -330h-121l138 313h-155z" />
    <glyph glyph-name="eight.subs" horiz-adv-x="348" 
d="M274 100q52 -36 52 -94q0 -54 -44 -90q-43 -37 -108 -37t-108 37q-43 36 -43 90q0 58 52 94q-46 33 -46 87q0 50 41 85q43 35 104 35t104 -35q42 -34 42 -85q0 -53 -46 -87zM174 203q-14 0 -24.5 -9.5t-10.5 -22.5t10.5 -23t24.5 -10q15 0 25.5 9.5t10.5 23.5
q0 13 -10.5 22.5t-25.5 9.5zM145 -6q12 -11 29 -11t29 11q12 10 12 26t-12 26q-12 11 -29 11t-29 -11q-11 -10 -11 -26t11 -26z" />
    <glyph glyph-name="nine.subs" horiz-adv-x="351" 
d="M178 307q65 0 109 -41t44 -102q0 -44 -28 -91l-113 -187h-129l87 140q-54 6 -89 45t-35 93q0 61 44 102t110 41zM178 121q18 0 30.5 12t12.5 31q0 18 -12.5 30t-30.5 12q-26 2 -37 -20t0 -44t37 -21z" />
    <glyph glyph-name="zero.dnom" horiz-adv-x="395" 
d="M197 -7q-72 0 -119 59q-46 59 -46 155t46 154q46 60 119 60t119 -60q47 -61 47 -154t-47 -154q-46 -60 -119 -60zM157 127q15 -30 40 -30t40 29q15 30 15 81t-15 80q-15 30 -40 30t-40 -31q-15 -30 -15 -79q0 -48 15 -80z" />
    <glyph glyph-name="one.dnom" horiz-adv-x="312" 
d="M218 414v-316h65v-98h-247v98h74v188l-74 -33v113l105 48h77z" />
    <glyph glyph-name="two.dnom" horiz-adv-x="357" 
d="M271 170l-76 -72h131v-98h-296v82l144 138q40 37 40 63q0 16 -10.5 27t-25.5 11q-16 0 -27 -11t-11 -27h-109q0 59 43 98q43 40 108 40q61 0 101 -40q41 -39 41 -98q0 -60 -53 -113z" />
    <glyph glyph-name="three.dnom" horiz-adv-x="345" 
d="M275 215q47 -32 47 -87t-43 -95t-107 -40t-107 39q-43 40 -43 100h110q-2 -24 19.5 -34t43.5 0t20 34q0 19 -14 31t-36 12h-61v78h61q18 0 29.5 11t11.5 27q0 14 -9.5 23.5t-23.5 9.5q-15 0 -25 -9.5t-10 -23.5h-110q0 55 41 93q41 37 103 37t103 -38q42 -37 42 -87
t-42 -81z" />
    <glyph glyph-name="four.dnom" horiz-adv-x="374" 
d="M313 166h39v-97h-39v-69h-108v69h-186v79l159 266h135v-248zM205 300l-75 -134h75v134z" />
    <glyph glyph-name="five.dnom" horiz-adv-x="358" 
d="M197 270q62 0 102 -40q42 -39 42 -98q0 -58 -45 -99q-43 -40 -109 -40q-65 0 -110 39q-44 41 -44 99h110q0 -28 27.5 -39.5t47.5 8.5q21 21 9.5 49t-40.5 28q-25 0 -39 -18h-110l22 255h253v-97h-155l-5 -55q22 8 44 8z" />
    <glyph glyph-name="six.dnom" horiz-adv-x="351" 
d="M294 414l-87 -140q54 -6 89 -45t35 -93q0 -61 -44 -102t-109 -41q-64 0 -110 41q-44 41 -44 102q0 42 28 91l114 187h128zM147 106q13 -12 31 -12t30 12t12 30t-12 30q-12 13 -30 13t-31 -13q-12 -12 -12 -30t12 -30z" />
    <glyph glyph-name="seven.dnom" horiz-adv-x="333" 
d="M31 313v101h282v-84l-144 -330h-121l138 313h-155z" />
    <glyph glyph-name="eight.dnom" horiz-adv-x="348" 
d="M274 214q52 -36 52 -94q0 -53 -44 -91q-44 -36 -108 -36t-108 36q-43 37 -43 91q0 58 52 94q-46 33 -46 87q0 50 41 85q43 35 104 35t104 -35q42 -34 42 -85q0 -53 -46 -87zM174 317q-14 0 -24.5 -9.5t-10.5 -22.5t10.5 -23t24.5 -10q15 0 25.5 9.5t10.5 23.5
q0 13 -10.5 22.5t-25.5 9.5zM145 107q12 -10 29 -10t29 10q12 11 12 27t-12 26q-12 11 -29 11t-29 -11q-11 -10 -11 -26t11 -27z" />
    <glyph glyph-name="nine.dnom" horiz-adv-x="351" 
d="M178 421q65 0 109 -41t44 -102q0 -44 -28 -91l-113 -187h-129l87 140q-54 6 -89 45t-35 93q0 61 44 102t110 41zM178 235q18 0 30.5 12t12.5 31q0 18 -12.5 30t-30.5 12q-26 2 -37 -20t0 -44t37 -21z" />
    <glyph glyph-name="zero.numr" horiz-adv-x="395" 
d="M197 269q-72 0 -119 59q-46 59 -46 155t46 154q46 60 119 60t119 -60q47 -61 47 -154t-47 -154q-46 -60 -119 -60zM157 403q15 -30 40 -30t40 29q15 30 15 81t-15 80q-15 30 -40 30t-40 -31q-15 -30 -15 -79t15 -80z" />
    <glyph glyph-name="one.numr" horiz-adv-x="312" 
d="M218 690v-316h65v-98h-247v98h74v188l-74 -33v113l105 48h77z" />
    <glyph glyph-name="two.numr" horiz-adv-x="357" 
d="M271 446l-76 -72h131v-98h-296v82l144 138q40 37 40 63q0 16 -10.5 27t-25.5 11q-16 0 -27 -11t-11 -27h-109q0 59 43 98q43 40 108 40q61 0 101 -40q41 -39 41 -98q0 -60 -53 -113z" />
    <glyph glyph-name="three.numr" horiz-adv-x="345" 
d="M275 491q47 -32 47 -87t-43 -95t-107 -40t-107 39q-43 40 -43 100h110q-2 -24 19.5 -34t43.5 0t20 34q0 19 -14 31t-36 12h-61v78h61q18 0 29.5 11t11.5 27q0 14 -9.5 23.5t-23.5 9.5q-15 0 -25 -9.5t-10 -23.5h-110q0 55 41 93q41 37 103 37t103 -38q42 -37 42 -87
t-42 -81z" />
    <glyph glyph-name="four.numr" horiz-adv-x="374" 
d="M313 442h39v-97h-39v-69h-108v69h-186v79l159 266h135v-248zM205 576l-75 -134h75v134z" />
    <glyph glyph-name="five.numr" horiz-adv-x="358" 
d="M197 546q62 0 102 -40q42 -39 42 -98q0 -58 -45 -99q-43 -40 -109 -40q-65 0 -110 39q-44 41 -44 99h110q0 -28 27.5 -39.5t47.5 8.5q21 21 9.5 49t-40.5 28q-25 0 -39 -18h-110l22 255h253v-97h-155l-5 -55q22 8 44 8z" />
    <glyph glyph-name="six.numr" horiz-adv-x="351" 
d="M294 690l-87 -140q54 -6 89 -45t35 -93q0 -61 -44 -102t-109 -41q-64 0 -110 41q-44 41 -44 102q0 42 28 91l114 187h128zM147 382q13 -12 31 -12t30 12t12 30t-12 30q-12 13 -30 13t-31 -13q-12 -12 -12 -30t12 -30z" />
    <glyph glyph-name="seven.numr" horiz-adv-x="333" 
d="M31 589v101h282v-84l-144 -330h-121l138 313h-155z" />
    <glyph glyph-name="eight.numr" horiz-adv-x="348" 
d="M274 490q52 -36 52 -94q0 -53 -44 -91q-44 -36 -108 -36t-108 36q-43 37 -43 91q0 58 52 94q-46 33 -46 87q0 50 41 85q43 35 104 35t104 -35q42 -34 42 -85q0 -53 -46 -87zM174 593q-14 0 -24.5 -9.5t-10.5 -22.5t10.5 -23t24.5 -10q15 0 25.5 9.5t10.5 23.5
q0 13 -10.5 22.5t-25.5 9.5zM145 383q12 -10 29 -10t29 10q12 11 12 27t-12 26q-12 11 -29 11t-29 -11q-11 -10 -11 -26t11 -27z" />
    <glyph glyph-name="nine.numr" horiz-adv-x="351" 
d="M178 697q65 0 109 -41t44 -102q0 -44 -28 -91l-113 -187h-129l87 140q-54 6 -89 45t-35 93q0 61 44 102t110 41zM178 511q18 0 30.5 12t12.5 31q0 18 -12.5 30t-30.5 12q-26 2 -37 -20t0 -44t37 -21z" />
    <glyph glyph-name="exclamdown.case" horiz-adv-x="279" 
d="M140 507q-42 0 -70 28t-28 69t28 68.5t70 27.5q41 0 69 -27.5t28 -68.5t-28 -69t-69 -28zM217 0h-154v170l9 290h136l9 -290v-170z" />
    <glyph glyph-name="questiondown.case" horiz-adv-x="495" 
d="M256 507q-42 0 -70 28t-28 69t28 68.5t70 27.5q41 0 69 -27.5t28 -68.5t-28 -69t-69 -28zM256 -12q-93 0 -155 59t-62 148q0 60 28 100q15 20 56 58q30 25 43 43.5t13 41.5v21h154v-21q0 -40 -15 -74q-12 -30 -28 -49q-7 -8 -40 -37q-28 -25 -40 -42.5t-12 -40.5
q0 -25 16.5 -41.5t41.5 -16.5q24 0 40.5 16.5t16.5 41.5h159q0 -88 -62 -148q-62 -59 -154 -59z" />
    <glyph glyph-name="periodcentered.case" horiz-adv-x="313" 
d="M228 273q-28 -28 -71 -28q-44 0 -72 28q-29 29 -29 72q0 42 29 71t72 29q42 0 71 -29t29 -71q0 -43 -29 -72z" />
    <glyph glyph-name="bullet.case" horiz-adv-x="361" 
d="M269 256q-35 -35 -88 -35q-52 0 -89 35q-36 36 -36 89t36 88q36 36 89 36q54 0 88 -36q36 -35 36 -88t-36 -89z" />
    <glyph glyph-name="asterisk.case" horiz-adv-x="394" 
d="M307 542l-31 -11l31 -12l55 -29l-46 -77l-55 29l-24 20l5 -31v-59h-90v59l6 31l-25 -20l-55 -29l-45 77l55 31l29 10l-29 12l-55 29l45 77l56 -29l24 -20l-6 31v59h90v-59l-5 -31l25 20l54 29l46 -77z" />
    <glyph glyph-name="slash.case" horiz-adv-x="544" 
d="M145 -105h-147l400 900h147z" />
    <glyph glyph-name="backslash.case" horiz-adv-x="544" 
d="M545 -105h-147l-400 900h147z" />
    <glyph glyph-name="parenleft.case" horiz-adv-x="369" 
d="M365 -125h-147q-65 87 -104 213q-39 129 -39 257q0 129 39 256q38 127 104 214h147q-63 -88 -100 -214t-37 -256t37 -257q37 -125 100 -213z" />
    <glyph glyph-name="parenright.case" horiz-adv-x="369" 
d="M151 -125h-147q62 85 99 213q38 131 38 257q0 127 -38 256q-37 128 -99 214h147q64 -85 103 -214q40 -127 40 -256t-40 -256q-39 -129 -103 -214z" />
    <glyph glyph-name="braceleft.case" horiz-adv-x="433" 
d="M298 623v-191q0 -29 -16 -52t-44 -34q60 -26 60 -87v-192q0 -24 14.5 -39t37.5 -15h55v-138h-112q-65 0 -105 40.5t-40 106.5v199q0 25 -15 40.5t-39 15.5h-39v138h39q24 0 39 15.5t15 40.5v197q0 66 40 106.5t105 40.5h112v-138h-55q-23 0 -37.5 -15t-14.5 -39z" />
    <glyph glyph-name="braceright.case" horiz-adv-x="433" 
d="M339 415h39v-138h-39q-24 0 -39 -15.5t-15 -40.5v-199q0 -66 -40.5 -106.5t-105.5 -40.5h-111v138h54q23 0 37.5 15t14.5 39v192q0 62 61 87q-61 25 -61 86v191q0 24 -14.5 39t-37.5 15h-54v138h111q65 0 105.5 -40.5t40.5 -106.5v-197q0 -25 15 -40.5t39 -15.5z" />
    <glyph glyph-name="bracketleft.case" horiz-adv-x="372" 
d="M345 815v-138h-110v-664h110v-138h-260v940h260z" />
    <glyph glyph-name="bracketright.case" horiz-adv-x="372" 
d="M28 677v138h260v-940h-260v138h109v664h-109z" />
    <glyph glyph-name="hyphen.case" horiz-adv-x="408" 
d="M352 275h-296v141h296v-141z" />
    <glyph glyph-name="endash.case" horiz-adv-x="608" 
d="M552 280h-496v132h496v-132z" />
    <glyph glyph-name="emdash.case" horiz-adv-x="1068" 
d="M1012 280h-956v132h956v-132z" />
    <glyph glyph-name="guillemotleft.case" horiz-adv-x="666" 
d="M186 550h171l-148 -205l148 -205h-171l-148 205zM460 550h171l-148 -205l148 -205h-171l-147 205z" />
    <glyph glyph-name="guillemotright.case" horiz-adv-x="666" 
d="M41 550h171l147 -205l-147 -205h-171l148 205zM315 550h171l148 -205l-148 -205h-171l148 205z" />
    <glyph glyph-name="guilsinglleft.case" horiz-adv-x="392" 
d="M186 550h171l-148 -205l148 -205h-171l-148 205z" />
    <glyph glyph-name="guilsinglright.case" horiz-adv-x="392" 
d="M41 550h171l147 -205l-147 -205h-171l148 205z" />
    <glyph glyph-name="plus.case" horiz-adv-x="534" 
d="M334 411h144v-132h-144v-145h-134v145h-144v132h144v145h134v-145z" />
    <glyph glyph-name="at.case" horiz-adv-x="830" 
d="M420 70q103 0 167 49h157q-60 -69 -145 -108t-181 -39q-163 0 -270 106q-108 106 -108 266q0 159 108 266q109 107 271 107q159 0 265 -99q108 -99 108 -248q0 -94 -45 -149.5t-123 -55.5q-90 0 -130 57q-36 -58 -112 -58q-73 0 -121 51q-47 53 -47 128q0 77 47 130
q46 52 114 52q57 0 96 -42v30h122v-215q0 -16 10.5 -26.5t26.5 -10.5q27 0 43 31t16 80q0 106 -78 177q-79 71 -192 71q-120 0 -199 -79q-78 -78 -78 -197q0 -117 79 -196q79 -78 199 -78zM471 344q0 28 -19 46t-47 18t-47.5 -18.5t-19.5 -45.5t19.5 -45.5t47.5 -18.5
t47 18.5t19 45.5z" />
    <glyph glyph-name="uni030C.alt" horiz-adv-x="0" 
d="M-43 490h-110l21 230h132z" />
    <glyph glyph-name="caron.alt" horiz-adv-x="153" 
d="M110 490h-110l21 230h132z" />
    </font>
</defs>
</svg>
